<svg width="38" height="38" viewBox="0 0 38 38" fill="none" xmlns="http://www.w3.org/2000/svg">
<path d="M29.1186 30.9999C27.5598 30.9999 26.036 30.5335 24.7399 29.6595C23.4438 28.7855 22.4336 27.5433 21.8371 26.0899C21.2407 24.6365 21.0846 23.0372 21.3888 21.4943C21.693 19.9514 22.4437 18.5342 23.546 17.4219C24.6483 16.3096 26.0527 15.5523 27.5816 15.2455C29.1105 14.9387 30.6952 15.0964 32.1353 15.6985C33.5754 16.3007 34.8063 17.3202 35.6722 18.6283C36.5381 19.9363 37.0001 21.4741 37 23.0472C36.9973 25.1557 36.1661 27.1772 34.6887 28.6681C33.2112 30.1589 31.208 30.9975 29.1186 30.9999V30.9999ZM29.1186 17.0055C27.9348 17.0057 26.7775 17.3601 25.7933 18.024C24.809 18.6878 24.0419 19.6314 23.589 20.7352C23.1361 21.8391 23.0177 23.0537 23.2487 24.2255C23.4798 25.3972 24.05 26.4734 24.8872 27.3182C25.7243 28.1629 26.7909 28.7382 27.9521 28.9712C29.1132 29.2042 30.3167 29.0846 31.4105 28.6274C32.5042 28.1701 33.439 27.3957 34.0967 26.4023C34.7544 25.4089 35.1055 24.241 35.1055 23.0463C35.1036 21.4446 34.4722 19.9091 33.3498 18.7766C32.2275 17.6441 30.7058 17.0072 29.1186 17.0055V17.0055Z" fill="#2273EF"/>
<path d="M28.0359 26.28C27.9114 26.2802 27.7881 26.2555 27.673 26.2075C27.558 26.1595 27.4535 26.089 27.3655 26.0001L24.7889 23.3998C24.618 23.2191 24.524 22.9783 24.5269 22.7285C24.5298 22.4788 24.6294 22.24 24.8044 22.0634C24.9794 21.8868 25.216 21.7862 25.4635 21.7833C25.7109 21.7804 25.9497 21.8753 26.1288 22.0477L28.0834 24.0203L31.806 20.7808C31.9003 20.6988 32.0097 20.6361 32.1279 20.5968C32.2461 20.5574 32.3708 20.5422 32.4949 20.5515C32.619 20.5608 32.7401 20.5944 32.8513 20.651C32.9624 20.7075 33.0615 20.7856 33.1427 20.8807C33.224 20.9759 33.2859 21.0862 33.3249 21.2055C33.3639 21.3248 33.3792 21.4508 33.37 21.5761C33.3608 21.7014 33.3272 21.8235 33.2712 21.9356C33.2152 22.0478 33.1379 22.1477 33.0436 22.2297L28.6542 26.049C28.4822 26.1983 28.2628 26.2804 28.0359 26.28Z" fill="#2273EF"/>
<path d="M1.9477 12.1615C1.69635 12.1615 1.4553 12.0607 1.27757 11.8814C1.09985 11.702 1 11.4588 1 11.2051V9.86196C1.00071 9.10331 1.29959 8.37598 1.83108 7.83945C2.36257 7.30292 3.08326 7.00096 3.83501 7H24.9249C25.6768 7.00072 26.3977 7.30256 26.9294 7.83912C27.4611 8.37568 27.7601 9.10315 27.7608 9.86196V11.1408C27.7608 11.3944 27.661 11.6377 27.4832 11.817C27.3055 11.9964 27.0645 12.0972 26.8131 12.0972C26.5618 12.0972 26.3207 11.9964 26.143 11.817C25.9653 11.6377 25.8654 11.3944 25.8654 11.1408V9.86196C25.8652 9.6103 25.766 9.36905 25.5897 9.19111C25.4133 9.01316 25.1743 8.91308 24.9249 8.91284H3.83501C3.58565 8.91308 3.34656 9.01316 3.17023 9.19111C2.9939 9.36905 2.89473 9.6103 2.89449 9.86196V11.2051C2.89449 11.4586 2.79477 11.7017 2.61723 11.881C2.4397 12.0604 2.19889 12.1613 1.9477 12.1615V12.1615Z" fill="#2273EF"/>
<path d="M18.0828 29.1124H3.83501C3.08326 29.1114 2.36257 28.8095 1.83108 28.273C1.29959 27.7365 1.00071 27.0092 1 26.2505V10.8685C1 10.6149 1.09985 10.3716 1.27757 10.1923C1.4553 10.0129 1.69635 9.91211 1.9477 9.91211C2.19904 9.91211 2.44009 10.0129 2.61782 10.1923C2.79555 10.3716 2.8954 10.6149 2.8954 10.8685V26.2505C2.89587 26.5021 2.9951 26.7432 3.17138 26.9211C3.34766 27.099 3.58661 27.199 3.8359 27.1995H18.0828C18.2096 27.1956 18.336 27.2174 18.4543 27.2636C18.5726 27.3099 18.6806 27.3797 18.7717 27.4688C18.8628 27.558 18.9352 27.6649 18.9847 27.7828C19.0342 27.9007 19.0596 28.0275 19.0596 28.1556C19.0596 28.2837 19.0342 28.4105 18.9847 28.5284C18.9352 28.6463 18.8628 28.753 18.7717 28.8422C18.6806 28.9313 18.5726 29.0011 18.4543 29.0473C18.336 29.0936 18.2096 29.1154 18.0828 29.1115V29.1124Z" fill="#2273EF"/>
<path d="M14.9777 19.5413C14.7716 19.5414 14.5711 19.4738 14.4066 19.3486C14.242 19.2234 14.1224 19.0476 14.0658 18.8477C14.0092 18.6477 14.0187 18.4346 14.0928 18.2406C14.167 18.0466 14.3019 17.8822 14.4769 17.7725L26.2585 10.3921C26.3642 10.3235 26.4825 10.2769 26.6063 10.2548C26.73 10.2327 26.857 10.2358 26.9796 10.2637C27.1022 10.2916 27.2181 10.3438 27.3206 10.4173C27.423 10.4909 27.5099 10.5843 27.5762 10.6921C27.6425 10.7998 27.6869 10.9198 27.7068 11.0451C27.7267 11.1703 27.7218 11.2984 27.6922 11.4217C27.6626 11.545 27.609 11.6612 27.5345 11.7634C27.46 11.8655 27.3661 11.9518 27.2583 12.017L15.4766 19.3972C15.3269 19.4913 15.154 19.5412 14.9777 19.5413Z" fill="#2273EF"/>
<path d="M14.8677 19.5409C14.7037 19.5409 14.5426 19.4978 14.4001 19.4159L1.53529 12.0356C1.42446 11.975 1.32673 11.8927 1.2478 11.7935C1.16888 11.6943 1.11037 11.5803 1.07567 11.458C1.04098 11.3357 1.0308 11.2076 1.04575 11.0813C1.0607 10.955 1.10049 10.8329 1.16275 10.7223C1.22502 10.6117 1.30852 10.5147 1.40838 10.4371C1.50823 10.3595 1.62243 10.3027 1.74429 10.2702C1.86615 10.2376 1.99321 10.2299 2.11805 10.2475C2.24289 10.2651 2.36299 10.3077 2.47132 10.3727L15.3362 17.7531C15.518 17.8575 15.6606 18.0197 15.7416 18.2144C15.8226 18.4091 15.8374 18.6254 15.7838 18.8295C15.7303 19.0336 15.6112 19.214 15.4453 19.3427C15.2795 19.4714 15.076 19.5411 14.8668 19.5409H14.8677Z" fill="#2273EF"/>
<path d="M2.81551 28.4624C2.63228 28.4624 2.45301 28.4086 2.29939 28.3079C2.14576 28.2071 2.02438 28.0636 1.94993 27.8946C1.87548 27.7257 1.85115 27.5386 1.8799 27.356C1.90865 27.1734 1.98923 27.0031 2.1119 26.8658L7.95335 20.324C8.03667 20.2307 8.13739 20.1549 8.24976 20.1009C8.36212 20.0468 8.48393 20.0156 8.60822 20.0091C8.73251 20.0026 8.85686 20.0209 8.97416 20.0628C9.09147 20.1048 9.19943 20.1698 9.29189 20.2539C9.38434 20.338 9.45948 20.4396 9.51301 20.553C9.56655 20.6664 9.59743 20.7893 9.60389 20.9148C9.61035 21.0402 9.59226 21.1657 9.55066 21.284C9.50906 21.4024 9.44476 21.5113 9.36144 21.6046L3.5191 28.1465C3.43038 28.246 3.32187 28.3255 3.20065 28.38C3.07942 28.4344 2.9482 28.4625 2.81551 28.4624V28.4624Z" fill="#2273EF"/>
</svg>
