<svg width="267" height="263" viewBox="0 0 267 263" fill="none" xmlns="http://www.w3.org/2000/svg">
<g opacity="0.3" filter="url(#filter0_f_202_392)">
<path d="M183.421 208.336L31.4731 162.226C30.3508 161.902 29.3281 161.339 28.4771 160.58C27.6261 159.82 26.9676 158.882 26.5479 157.831C26.1283 156.779 25.9577 155.641 26.0482 154.495C26.1388 153.35 26.4882 152.225 27.072 151.201L73.0236 69.8192C74.0435 68.0898 75.6406 66.7286 77.5397 65.97C79.4389 65.2114 81.5212 65.1029 83.428 65.6632L235.357 111.736C236.48 112.061 237.502 112.623 238.353 113.382C239.204 114.142 239.863 115.08 240.283 116.132C240.702 117.183 240.873 118.322 240.782 119.467C240.692 120.613 240.342 121.737 239.759 122.762L193.807 204.143C192.794 205.875 191.202 207.241 189.307 208.006C187.411 208.772 185.33 208.888 183.421 208.336Z" fill="url(#paint0_linear_202_392)"/>
<path d="M31.6183 161.748L31.6121 161.746C30.5599 161.442 29.6038 160.915 28.81 160.207C28.0164 159.499 27.403 158.624 27.0123 157.645C26.6215 156.666 26.4621 155.605 26.5467 154.535C26.6313 153.464 26.9581 152.411 27.5064 151.448L27.5074 151.447L73.4543 70.0732C73.4551 70.0718 73.4559 70.0705 73.4567 70.0691C74.4194 68.4389 75.9283 67.1521 77.7252 66.4344C79.5229 65.7163 81.4896 65.6153 83.2852 66.1424C83.2858 66.1426 83.2864 66.1428 83.287 66.143L235.212 112.214L235.218 112.216C236.271 112.521 237.227 113.047 238.02 113.755C238.814 114.464 239.427 115.338 239.818 116.317C240.209 117.296 240.368 118.358 240.284 119.428C240.199 120.498 239.872 121.552 239.324 122.514L239.323 122.516L193.375 203.891C193.375 203.892 193.374 203.893 193.373 203.894C192.417 205.527 190.914 206.819 189.12 207.543C187.326 208.267 185.36 208.376 183.563 207.857C183.562 207.856 183.561 207.856 183.56 207.856L31.6183 161.748Z" stroke="black"/>
</g>
<g clip-path="url(#clip0_202_392)">
<path d="M240.712 114.98L238.356 109.043L234.343 118.83L240.712 114.98Z" fill="#5187B7"/>
<path d="M36.4463 119.233L39.204 126.331L53.9167 132.666L36.4463 119.233Z" fill="#5187B7"/>
<path d="M178.784 195.849L42.483 129.092C41.4805 128.608 40.594 127.911 39.8852 127.049C39.1764 126.187 38.6622 125.181 38.3785 124.101C38.0948 123.021 38.0483 121.893 38.2422 120.795C38.4361 119.697 38.8659 118.656 39.5015 117.743L90.1688 45.3595C91.2795 43.8128 92.8958 42.7079 94.7368 42.2368C96.5779 41.7656 98.5275 41.9579 100.247 42.7802L236.638 109.55C237.639 110.031 238.524 110.725 239.232 111.583C239.939 112.442 240.452 113.445 240.735 114.522C241.017 115.599 241.063 116.724 240.868 117.819C240.673 118.914 240.243 119.951 239.606 120.86L188.851 193.361C187.728 194.889 186.108 195.974 184.27 196.428C182.433 196.883 180.492 196.678 178.784 195.849Z" fill="#4B60CE"/>
<path d="M176.996 191.058L40.7973 124.221C39.7897 123.743 38.898 123.049 38.1851 122.188C37.4721 121.326 36.9553 120.319 36.671 119.237C36.3867 118.155 36.3419 117.024 36.5397 115.925C36.7375 114.825 37.1731 113.783 37.8158 112.873L88.4831 40.4893C89.6 38.9575 91.215 37.867 93.0501 37.4057C94.8851 36.9443 96.8252 37.1411 98.5362 37.962L234.722 104.76C235.73 105.238 236.621 105.932 237.334 106.794C238.047 107.655 238.564 108.662 238.848 109.744C239.133 110.826 239.177 111.957 238.98 113.057C238.782 114.156 238.346 115.198 237.704 116.108L187.036 188.492C185.925 190.027 184.315 191.123 182.483 191.592C180.65 192.06 178.71 191.871 176.996 191.058Z" fill="url(#paint1_linear_202_392)"/>
<g style="mix-blend-mode:overlay" opacity="0.29">
<path d="M176.996 191.058L40.7973 124.221C39.7897 123.743 38.898 123.049 38.1851 122.188C37.4721 121.326 36.9553 120.319 36.671 119.237C36.3867 118.155 36.3419 117.024 36.5397 115.925C36.7375 114.825 37.1731 113.783 37.8158 112.873L88.4831 40.4893C89.6 38.9575 91.215 37.867 93.0501 37.4057C94.8851 36.9443 96.8252 37.1411 98.5362 37.962L234.722 104.76C235.73 105.238 236.621 105.932 237.334 106.794C238.047 107.655 238.564 108.662 238.848 109.744C239.133 110.826 239.177 111.957 238.98 113.057C238.782 114.156 238.346 115.198 237.704 116.108L187.036 188.492C185.925 190.027 184.315 191.123 182.483 191.592C180.65 192.06 178.71 191.871 176.996 191.058Z" fill="#2377F3"/>
</g>
<g style="mix-blend-mode:multiply" opacity="0.29">
<path d="M176.996 191.058L40.7973 124.221C39.7897 123.743 38.898 123.049 38.1851 122.188C37.4721 121.326 36.9553 120.319 36.671 119.237C36.3867 118.155 36.3419 117.024 36.5397 115.925C36.7375 114.825 37.1731 113.783 37.8158 112.873L88.4831 40.4893C89.6 38.9575 91.215 37.867 93.0501 37.4057C94.8851 36.9443 96.8252 37.1411 98.5362 37.962L234.722 104.76C235.73 105.238 236.621 105.932 237.334 106.794C238.047 107.655 238.564 108.662 238.848 109.744C239.133 110.826 239.177 111.957 238.98 113.057C238.782 114.156 238.346 115.198 237.704 116.108L187.036 188.492C185.925 190.027 184.315 191.123 182.483 191.592C180.65 192.06 178.71 191.871 176.996 191.058Z" fill="#0E8BFF"/>
</g>
<path opacity="0.25" d="M237.628 107.563C238.185 108.769 238.412 110.101 238.287 111.422C238.163 112.744 237.69 114.006 236.918 115.081L186.264 187.503C185.147 189.035 183.532 190.126 181.697 190.587C179.862 191.048 177.922 190.852 176.211 190.031L39.8329 123.299C38.554 122.682 37.4651 121.727 36.6826 120.537C37.4409 122.196 38.7576 123.534 40.3997 124.315L176.778 191.047C178.489 191.867 180.429 192.064 182.264 191.603C184.099 191.142 185.714 190.051 186.831 188.519L237.498 116.135C238.376 114.889 238.857 113.404 238.881 111.874C238.904 110.345 238.468 108.842 237.628 107.563Z" fill="#F7F7F7"/>
<path d="M100.006 85.5897L85.8782 78.7054C85.4056 78.4 85.0005 78 84.6885 77.5305C84.3764 77.061 84.1641 76.532 84.0649 75.9769C83.9657 75.4218 83.9818 74.8525 84.112 74.3048C84.2422 73.7571 84.4839 73.2428 84.8217 72.7942L94.847 58.5021C95.4511 57.5233 96.3725 56.7842 97.4568 56.4089C98.5411 56.0336 99.7223 56.0449 100.802 56.4409L114.892 63.3385C115.397 63.612 115.835 63.9957 116.173 64.4613C116.511 64.927 116.742 65.4627 116.847 66.0288C116.952 66.5949 116.929 67.1771 116.78 67.7322C116.631 68.2874 116.36 68.8014 115.987 69.2363L106.538 83.329C105.823 84.3448 104.809 85.109 103.637 85.5144C102.466 85.9199 101.196 85.9462 100.006 85.5897Z" fill="#DED01B"/>
<path d="M99.3708 84.2514L85.281 77.3538C84.776 77.0803 84.3382 76.6966 83.9999 76.2309C83.6616 75.7653 83.4314 75.2296 83.3263 74.6635C83.2212 74.0974 83.2439 73.5152 83.3927 72.9601C83.5415 72.4049 83.8127 71.8909 84.1861 71.456L94.2498 57.1506C94.8801 56.1962 95.8194 55.4905 96.9094 55.1527C97.9994 54.8148 99.1734 54.8654 100.233 55.2959L114.362 62.1802C114.835 62.4825 115.242 62.8795 115.557 63.3465C115.871 63.8134 116.087 64.3402 116.189 64.8939C116.292 65.4476 116.28 66.0162 116.154 66.5641C116.028 67.112 115.79 67.6274 115.457 68.0781L105.393 82.3835C104.758 83.343 103.812 84.0524 102.716 84.3925C101.619 84.7327 100.438 84.6829 99.3708 84.2514Z" fill="url(#paint2_linear_202_392)"/>
<path d="M177.536 174.594L54.8644 115.889C54.4831 115.714 54.144 115.459 53.8703 115.139C53.5967 114.82 53.3951 114.445 53.2796 114.04C53.1641 113.636 53.1373 113.211 53.2013 112.796C53.2652 112.38 53.4183 111.984 53.6499 111.635L59.7928 102.409C60.2013 101.775 60.8293 101.316 61.5558 101.121C62.2823 100.925 63.0561 101.007 63.7285 101.35L186.414 160.094C186.792 160.269 187.128 160.525 187.398 160.844C187.667 161.163 187.865 161.537 187.975 161.94C188.086 162.343 188.108 162.765 188.039 163.177C187.97 163.589 187.812 163.98 187.577 164.323L181.434 173.549C181.03 174.178 180.408 174.633 179.688 174.826C178.968 175.019 178.201 174.937 177.536 174.594Z" fill="#4F708E"/>
<path d="M177.4 173.083L54.573 114.302C54.2449 114.105 53.9591 113.845 53.7327 113.535C53.5062 113.226 53.3437 112.875 53.2547 112.502C53.1658 112.129 53.1522 111.742 53.2148 111.364C53.2774 110.987 53.4149 110.626 53.6191 110.303L59.762 101.077C60.1706 100.444 60.7985 99.9847 61.525 99.7892C62.2516 99.5937 63.0254 99.6752 63.6977 100.018L186.072 158.61C186.461 158.764 186.813 159 187.103 159.303C187.393 159.607 187.614 159.969 187.752 160.366C187.889 160.763 187.939 161.185 187.899 161.602C187.858 162.02 187.728 162.423 187.517 162.785L181.374 172.01C180.974 172.663 180.34 173.138 179.602 173.337C178.863 173.536 178.076 173.445 177.4 173.083Z" fill="#F5FCFC"/>
</g>
<defs>
<filter id="filter0_f_202_392" x="10.0244" y="49.3096" width="246.781" height="175.37" filterUnits="userSpaceOnUse" color-interpolation-filters="sRGB">
<feFlood flood-opacity="0" result="BackgroundImageFix"/>
<feBlend mode="normal" in="SourceGraphic" in2="BackgroundImageFix" result="shape"/>
<feGaussianBlur stdDeviation="8" result="effect1_foregroundBlur_202_392"/>
</filter>
<linearGradient id="paint0_linear_202_392" x1="183.803" y1="169.083" x2="13.0631" y2="113.39" gradientUnits="userSpaceOnUse">
<stop stop-color="#194064"/>
<stop offset="1" stop-color="#353B41" stop-opacity="0"/>
</linearGradient>
<linearGradient id="paint1_linear_202_392" x1="48.0004" y1="50.7549" x2="237.824" y2="184.142" gradientUnits="userSpaceOnUse">
<stop offset="0.06" stop-color="#716EEB"/>
<stop offset="1" stop-color="#C8B2F9"/>
</linearGradient>
<linearGradient id="paint2_linear_202_392" x1="83.0682" y1="73.5338" x2="116.606" y2="70.4363" gradientUnits="userSpaceOnUse">
<stop offset="0.29" stop-color="#EDDD48"/>
<stop offset="0.93" stop-color="#FBFD9A"/>
</linearGradient>
<clipPath id="clip0_202_392">
<rect width="194.665" height="180.197" fill="white" transform="translate(17 63.6729) rotate(-19.0921)"/>
</clipPath>
</defs>
</svg>
