<svg width="48" height="48" viewBox="0 0 48 48" fill="none" xmlns="http://www.w3.org/2000/svg">
<path d="M14.6956 17.4008L16.594 4.80078H6.72039L2.59479 15.6008C2.46759 15.9848 2.40039 16.3832 2.40039 16.8008C2.40039 19.4504 5.16039 21.6008 8.57079 21.6008C11.7148 21.6008 14.314 19.7672 14.6956 17.4008ZM24.0004 21.6008C27.4084 21.6008 30.1708 19.4504 30.1708 16.8008C30.1708 16.7024 30.1636 16.604 30.1588 16.5104L28.9372 4.80078H19.0636L17.8396 16.5008C17.8339 16.6007 17.8307 16.7007 17.83 16.8008C17.83 19.4504 20.5924 21.6008 24.0004 21.6008ZM36.0004 24.1112V33.6008H12.0004V24.1256C10.9492 24.5048 9.79239 24.7208 8.57079 24.7208C8.10279 24.7208 7.64919 24.6656 7.20039 24.6032V39.8408C7.20039 41.6888 8.70999 43.2008 10.5556 43.2008H37.4404C39.2884 43.2008 40.8004 41.6864 40.8004 39.8408V24.6056C40.3467 24.6752 39.8889 24.7145 39.43 24.7232C38.2597 24.722 37.0988 24.5148 36.0004 24.1112V24.1112ZM45.4084 15.6008L41.278 4.80078H31.4068L33.3028 17.3816C33.6724 19.7576 36.2716 21.6008 39.43 21.6008C42.838 21.6008 45.6004 19.4504 45.6004 16.8008C45.6004 16.3832 45.5332 15.9848 45.4084 15.6008Z" fill="white"/>
</svg>
