<svg width="48" height="49" viewBox="0 0 48 49" fill="none" xmlns="http://www.w3.org/2000/svg">
<g clip-path="url(#clip0_51173_17894)">
<path d="M36 22.1016H32.5755V34.1016H36V22.1016Z" fill="#2273EF"/>
<path d="M12 34.1016H15.4292V22.1016H12V34.1016Z" fill="#2273EF"/>
<path d="M18.8586 22.1016V34.1016H22.2901V22.1016H18.8586Z" fill="#2273EF"/>
<path d="M25.7196 22.1016V34.1016H29.1464V22.1016H25.7196Z" fill="#2273EF"/>
<path d="M40.0994 38.9004H7.90323C7.71698 38.901 7.53857 38.9746 7.40687 39.1051C7.27517 39.2356 7.2008 39.4126 7.2002 39.5972V41.3004H40.8002V39.5972C40.7996 39.413 40.7256 39.2364 40.5944 39.1059C40.4632 38.9755 40.2853 38.9016 40.0994 38.9004Z" fill="#2273EF"/>
<path d="M37.7999 19.7012H10.2032C10.0435 19.7018 9.89062 19.7753 9.77774 19.9059C9.66485 20.0364 9.60111 20.2134 9.60059 20.398V22.1012H38.4006V20.398C38.4001 20.2138 38.3366 20.0372 38.2242 19.9067C38.1117 19.7762 37.9592 19.7024 37.7999 19.7012Z" fill="#2273EF"/>
<path d="M37.7999 34.1016H10.2032C10.0435 34.1022 9.89062 34.1757 9.77774 34.3063C9.66485 34.4368 9.60111 34.6138 9.60059 34.7984V36.5016H38.4006V34.7984C38.4001 34.6142 38.3366 34.4376 38.2242 34.3071C38.1117 34.1766 37.9592 34.1028 37.7999 34.1016Z" fill="#2273EF"/>
<path d="M8.1693 17.3008H39.8508C41.5485 17.3008 40.4516 16.2579 40.4516 16.2579L23.9679 5.30078L7.44424 16.2874C7.44424 16.2874 6.55576 17.3008 8.1693 17.3008ZM23.9656 9.32879L30.8874 13.9293H17.0462L23.9656 9.32879Z" fill="#2273EF"/>
</g>
<defs>
<clipPath id="clip0_51173_17894">
<rect width="33.6" height="36" fill="white" transform="translate(7.2002 5.30078)"/>
</clipPath>
</defs>
</svg>
