<svg width="48" height="48" viewBox="0 0 48 48" fill="none" xmlns="http://www.w3.org/2000/svg">
<g clip-path="url(#clip0_51174_17418)">
<path d="M4.0781 14.8694C2.80381 16.4777 2.2192 18.5256 2.45271 20.5642C2.68621 22.6027 3.71886 24.4654 5.3238 25.7439L22.7836 39.6158C24.3929 40.8692 26.432 41.4368 28.4575 41.1949C30.483 40.953 32.3311 39.9213 33.6 38.3241C34.8689 36.7269 35.4559 34.6934 35.2336 32.6657C35.0112 30.638 33.9975 28.78 32.4126 27.4958L14.9525 13.6239C13.3445 12.349 11.2965 11.7641 9.25779 11.9976C7.21905 12.2311 5.35614 13.264 4.0781 14.8694ZM6.19011 16.7367L7.25798 17.5838C6.70953 18.2758 6.45011 19.1531 6.53376 20.0321C6.61741 20.9111 7.03768 21.7237 7.70681 22.2999L6.85954 23.3679C5.90728 22.5668 5.30468 21.4261 5.17966 20.188C5.05464 18.9499 5.41722 17.7119 6.19011 16.7367V16.7367ZM30.67 29.6966C31.6929 30.5091 32.3511 31.6948 32.4999 32.9926C32.6486 34.2905 32.2759 35.5942 31.4634 36.6171C30.6508 37.64 29.4653 38.2981 28.1675 38.4468C26.8696 38.5956 25.5657 38.2228 24.5428 37.4103L15.8141 30.4743L21.9413 22.7607L30.67 29.6966Z" fill="white"/>
<path d="M29.914 11.3164C28.9213 13.0257 28.577 15.0352 28.9437 16.9776C29.3104 18.92 30.3637 20.6656 31.9112 21.8954C33.4587 23.1252 35.3968 23.757 37.3718 23.6756C39.3468 23.5941 41.2265 22.8047 42.6675 21.4517L29.914 11.3164Z" fill="white"/>
<path d="M31.4121 9.43014L44.1656 19.5654C45.1583 17.8561 45.5029 15.8466 45.1362 13.9042C44.7696 11.9619 43.7163 10.2162 42.1687 8.98644C40.6212 7.75664 38.6828 7.12475 36.7078 7.20622C34.7328 7.28768 32.8531 8.07707 31.4121 9.43014V9.43014Z" fill="white"/>
</g>
<defs>
<clipPath id="clip0_51174_17418">
<rect width="43.2" height="36.0014" fill="white" transform="translate(2.40039 7.19922)"/>
</clipPath>
</defs>
</svg>
