<svg width="48" height="48" viewBox="0 0 48 48" fill="none" xmlns="http://www.w3.org/2000/svg">
<g clip-path="url(#clip0_51173_17762)">
<path d="M2.40039 40.223V43.2016H45.6004V40.223C45.5998 39.9598 45.5005 39.7075 45.3241 39.5212C45.1476 39.3349 44.9082 39.2296 44.6584 39.2284H41.5267V25.492H43.6476L33.1932 9.60156H14.8101L12.0466 13.7252V9.60156H7.96167V19.7893L4.13197 25.4871H5.86158V39.2235H3.34686C3.22237 39.2235 3.09922 39.2495 2.98424 39.2997C2.86926 39.35 2.76463 39.4236 2.67671 39.5165C2.5888 39.6093 2.51922 39.7195 2.47179 39.8407C2.42437 39.9619 2.40009 40.0918 2.40039 40.223ZM23.3763 39.2284V24.2064L31.4844 12.1437L39.01 23.5829V39.2309H33.5893V29.1329H29.0251V39.2284H23.3763ZM8.29309 39.2284V25.492H20.8642V39.2284H8.29309Z" fill="white"/>
</g>
<defs>
<clipPath id="clip0_51173_17762">
<rect width="43.2" height="36.0014" fill="white" transform="translate(2.40039 7.19922)"/>
</clipPath>
</defs>
</svg>
