<svg width="36" height="36" viewBox="0 0 36 36" fill="none" xmlns="http://www.w3.org/2000/svg">
<g clip-path="url(#clip0_14_2555)">
<g filter="url(#filter0_d_14_2555)">
<path fill-rule="evenodd" clip-rule="evenodd" d="M31.75 16.2812C31.75 23.8752 25.594 30.0312 18 33.4688C10.4061 30.0312 4.25 23.8752 4.25 16.2812C4.25 8.68733 10.4061 2.53125 18 2.53125C25.594 2.53125 31.75 8.68733 31.75 16.2812Z" fill="#0475F4"/>
<path fill-rule="evenodd" clip-rule="evenodd" d="M31.75 16.2812C31.75 23.8752 25.594 30.0312 18 33.4688C10.4061 30.0312 4.25 23.8752 4.25 16.2812C4.25 8.68733 10.4061 2.53125 18 2.53125C25.594 2.53125 31.75 8.68733 31.75 16.2812Z" stroke="white" stroke-linecap="round" stroke-linejoin="round"/>
</g>
<circle cx="18" cy="16.2812" r="5.15625" fill="white"/>
</g>
<defs>
<filter id="filter0_d_14_2555" x="1.75" y="1.03125" width="32.5" height="35.9375" filterUnits="userSpaceOnUse" color-interpolation-filters="sRGB">
<feFlood flood-opacity="0" result="BackgroundImageFix"/>
<feColorMatrix in="SourceAlpha" type="matrix" values="0 0 0 0 0 0 0 0 0 0 0 0 0 0 0 0 0 0 127 0" result="hardAlpha"/>
<feOffset dy="1"/>
<feGaussianBlur stdDeviation="1"/>
<feComposite in2="hardAlpha" operator="out"/>
<feColorMatrix type="matrix" values="0 0 0 0 0 0 0 0 0 0 0 0 0 0 0 0 0 0 0.2 0"/>
<feBlend mode="normal" in2="BackgroundImageFix" result="effect1_dropShadow_14_2555"/>
<feBlend mode="normal" in="SourceGraphic" in2="effect1_dropShadow_14_2555" result="shape"/>
</filter>
<clipPath id="clip0_14_2555">
<rect width="36" height="36" fill="white"/>
</clipPath>
</defs>
</svg>
