<svg width="25" height="24" viewBox="0 0 25 24" fill="none" xmlns="http://www.w3.org/2000/svg">
<path fill-rule="evenodd" clip-rule="evenodd" d="M21.8409 10.8001H7.80488L13.2559 5.34911C13.3688 5.23802 13.4586 5.10566 13.5201 4.95968C13.5816 4.81371 13.6136 4.65699 13.6143 4.49859C13.6149 4.34018 13.5842 4.18321 13.5239 4.03674C13.4636 3.89027 13.3748 3.75718 13.2628 3.64517C13.1508 3.53316 13.0177 3.44444 12.8713 3.38411C12.7248 3.32379 12.5678 3.29307 12.4094 3.29371C12.251 3.29436 12.0943 3.32636 11.9483 3.38787C11.8023 3.44938 11.67 3.53919 11.5589 3.65211L4.05888 11.1521C4.05588 11.1541 4.05488 11.1581 4.05188 11.1611C3.88736 11.329 3.77578 11.5415 3.73098 11.7723C3.68618 12.003 3.71014 12.2419 3.79988 12.4591C3.85988 12.6021 3.94488 12.7291 4.05188 12.8391L4.05888 12.8491L11.5589 20.3491C11.7939 20.5831 12.1009 20.6991 12.4069 20.6991C12.6441 20.6991 12.8761 20.6287 13.0734 20.497C13.2707 20.3652 13.4245 20.1778 13.5153 19.9587C13.6062 19.7395 13.6301 19.4983 13.5839 19.2655C13.5377 19.0328 13.4236 18.819 13.2559 18.6511L7.80588 13.2001H21.8419C22.1601 13.2001 22.4654 13.0737 22.6904 12.8486C22.9155 12.6236 23.0419 12.3184 23.0419 12.0001C23.0419 11.6819 22.9155 11.3766 22.6904 11.1516C22.4654 10.9265 22.1601 10.8001 21.8419 10.8001" fill="#8B95A1"/>
</svg>
