<svg width="24" height="25" viewBox="0 0 24 25" fill="none" xmlns="http://www.w3.org/2000/svg">
<path fill-rule="evenodd" clip-rule="evenodd" d="M7.125 3.5H6C4.89543 3.5 4 4.39543 4 5.5V20.5C4 21.6046 4.89543 22.5 6 22.5H10V19.5C10 18.9477 10.4477 18.5 11 18.5H13C13.5523 18.5 14 18.9477 14 19.5V22.5H18C19.1046 22.5 20 21.6046 20 20.5V5.5C20 4.39543 19.1046 3.5 18 3.5H16.875V8.375C16.875 9.47957 15.9796 10.375 14.875 10.375H9.125C8.02043 10.375 7.125 9.47957 7.125 8.375V3.5ZM11 11.5H9V13.5H11V11.5ZM9 14.5H11V16.5H9V14.5ZM15 11.5H13V13.5H15V11.5ZM13 14.5H15V16.5H13V14.5Z" fill="#8694AA"/>
<path fill-rule="evenodd" clip-rule="evenodd" d="M10 1.5C8.89543 1.5 8 2.39543 8 3.5V7.5C8 8.60457 8.89543 9.5 10 9.5H14C15.1046 9.5 16 8.60457 16 7.5V3.5C16 2.39543 15.1046 1.5 14 1.5H10ZM13 2.5H11V4.5H9L9 6.5H11V8.5H13V6.5H15V4.5H13V2.5Z" fill="#8694AA"/>
</svg>
