<svg width="24" height="24" viewBox="0 0 24 24" fill="none" xmlns="http://www.w3.org/2000/svg">
<path d="M4 5C4 3.89543 4.89543 3 6 3H18C19.1046 3 20 3.89543 20 5V20C20 21.1046 19.1046 22 18 22H6C4.89543 22 4 21.1046 4 20V5Z" fill="#0BA8B3"/>
<rect x="8" y="1" width="8" height="8" rx="2" fill="#A8E1E7"/>
<rect x="11" y="2" width="2" height="6" fill="#005E6A"/>
<rect x="15" y="4" width="2" height="6" transform="rotate(90 15 4)" fill="#005E6A"/>
<path d="M10 19C10 18.4477 10.4477 18 11 18H13C13.5523 18 14 18.4477 14 19V22H10V19Z" fill="#FFEDC9"/>
<path d="M9 11H11V13H9V11Z" fill="#FFEDC9"/>
<path d="M9 14H11V16H9V14Z" fill="#FFEDC9"/>
<path d="M13 11H15V13H13V11Z" fill="#FFEDC9"/>
<path d="M13 14H15V16H13V14Z" fill="#FFEDC9"/>
</svg>
