<svg width="25" height="25" viewBox="0 0 25 25" fill="none" xmlns="http://www.w3.org/2000/svg">
<path fill-rule="evenodd" clip-rule="evenodd" d="M12.8752 13.2421C12.5144 13.249 12.156 13.1839 11.8207 13.0507C11.4854 12.9174 11.18 12.7186 10.9225 12.466C10.6649 12.2133 10.4603 11.9119 10.3207 11.5792C10.181 11.2465 10.1091 10.8894 10.1091 10.5286C10.1091 10.1678 10.181 9.81061 10.3207 9.47795C10.4603 9.14529 10.6649 8.84381 10.9225 8.59115C11.18 8.3385 11.4854 8.13973 11.8207 8.00647C12.156 7.87321 12.5144 7.80815 12.8752 7.81507C13.5858 7.82871 14.2627 8.1206 14.7605 8.62799C15.2582 9.13539 15.5371 9.8178 15.5371 10.5286C15.5371 11.2393 15.2582 11.9218 14.7605 12.4292C14.2627 12.9365 13.5858 13.2284 12.8752 13.2421M10.7512 1.53707C6.48117 2.49007 3.48717 6.50907 3.65517 10.8811C3.78717 14.3151 5.89417 17.3871 12.1632 23.4141C12.5592 23.7941 13.1932 23.7961 13.5902 23.4151C20.0742 17.1821 22.1062 14.1101 22.1062 10.5281C22.1062 4.73807 16.7732 0.193072 10.7512 1.53807" fill="white"/>
</svg>
