<svg width="28" height="29" viewBox="0 0 28 29" fill="none" xmlns="http://www.w3.org/2000/svg">
<mask id="mask0_267_8051" style="mask-type:alpha" maskUnits="userSpaceOnUse" x="4" y="3" width="21" height="25">
<rect x="4.375" y="3.41113" width="20.125" height="23.625" rx="1" fill="#73BCFF"/>
</mask>
<g mask="url(#mask0_267_8051)">
<path d="M17.0625 27.2549L24.6914 19.6533L26.332 4.06738L25.0742 2.18066L4.51172 1.93457L2.84375 2.8916L2.70703 24.2471L3.63672 27.8838L17.0625 27.2549Z" fill="white"/>
</g>
<path d="M13.0432 3.1556V10.0389C13.0432 10.5523 12.4365 10.8089 12.0632 10.4706L10.0215 8.59226C9.79988 8.38226 9.44988 8.38226 9.22821 8.59226L7.18654 10.4589C6.81321 10.8089 6.20654 10.5406 6.20654 10.0389V3.1556C6.20654 2.82893 6.46321 2.57227 6.78988 2.57227H12.4599C12.7865 2.57227 13.0432 2.82893 13.0432 3.1556Z" fill="#FF9062"/>
<path fill-rule="evenodd" clip-rule="evenodd" d="M17.29 21.0278V27.0359L24.4998 19.8262H18.4917C18.173 19.8262 17.8673 19.9528 17.642 20.1781C17.4166 20.4035 17.29 20.7091 17.29 21.0278Z" fill="#A3A6FF"/>
</svg>
