<svg width="24" height="24" viewBox="0 0 24 24" fill="none" xmlns="http://www.w3.org/2000/svg">
<rect x="11.4062" y="17.1567" width="8" height="2" rx="1" transform="rotate(-45 11.4062 17.1567)" fill="url(#paint0_linear_65_5456)"/>
<path d="M3.19631 8.23145C2.82299 7.09968 3.51607 5.89463 4.68206 5.64818L17.496 2.93979C18.7688 2.67076 19.9557 3.66938 19.9083 4.96948L19.7171 10.2103C19.6842 11.1101 19.0542 11.877 18.1779 12.0839L7.24211 14.6656C6.23247 14.904 5.2082 14.3308 4.88323 13.3456L3.19631 8.23145Z" fill="#59B1F0"/>
<path d="M3.22614 8.05154C3.12579 6.95154 3.93616 5.97846 5.03616 5.87811L18.3747 4.66125C19.6504 4.54487 20.7051 5.64097 20.5397 6.91121L19.4415 15.3455C19.3222 16.2615 18.5913 16.9766 17.6729 17.0758L6.20395 18.314C5.09287 18.4339 4.09907 17.6202 3.99754 16.5072L3.22614 8.05154Z" fill="url(#paint1_linear_65_5456)"/>
<rect x="3" y="6" width="18" height="14" rx="2" fill="#4A62E1"/>
<rect x="4.17041" y="7.84985" width="9.04104" height="1.06365" rx="0.531826" fill="#8CAEFE"/>
<rect x="16.4028" y="10.509" width="5.85008" height="4.25461" rx="2" fill="#012D9D"/>
<circle cx="18.2012" cy="12.7481" r="1.00687" fill="#FFEDC9"/>
<defs>
<linearGradient id="paint0_linear_65_5456" x1="17.8368" y1="17.5762" x2="12.2242" y2="18.8137" gradientUnits="userSpaceOnUse">
<stop stop-color="#C9E8FF"/>
<stop offset="1" stop-color="#C8F6F9"/>
</linearGradient>
<linearGradient id="paint1_linear_65_5456" x1="12.5896" y1="7.26786" x2="0.0275535" y2="10.1948" gradientUnits="userSpaceOnUse">
<stop stop-color="#4AE1CF"/>
<stop offset="0.986607" stop-color="#407EDB"/>
</linearGradient>
</defs>
</svg>
