<svg width="28" height="28" viewBox="0 0 28 28" fill="none" xmlns="http://www.w3.org/2000/svg">
<path fill-rule="evenodd" clip-rule="evenodd" d="M8.75016 14.9265C2.87016 14.9265 0.583496 18.9364 0.583496 20.8007C0.583496 22.665 5.452 23.162 8.75016 23.162C12.0483 23.162 16.9168 22.665 16.9168 20.8007C16.9168 18.9364 14.6302 14.9265 8.75016 14.9265ZM8.75016 13.5884C9.3247 13.5884 9.8936 13.4752 10.4244 13.2554C10.9552 13.0355 11.4375 12.7132 11.8438 12.307C12.25 11.9007 12.5723 11.4184 12.7921 10.8876C13.012 10.3568 13.1252 9.78791 13.1252 9.21338C13.1252 8.63885 13.012 8.06994 12.7921 7.53914C12.5723 7.00834 12.25 6.52604 11.8438 6.11979C11.4375 5.71353 10.9552 5.39127 10.4244 5.17141C9.8936 4.95154 9.3247 4.83838 8.75016 4.83838C7.58984 4.83838 6.47704 5.29932 5.65657 6.11979C4.8361 6.94026 4.37516 8.05306 4.37516 9.21338C4.37516 10.3737 4.8361 11.4865 5.65657 12.307C6.47704 13.1274 7.58984 13.5884 8.75016 13.5884Z" fill="#B7C4D5"/>
<path fill-rule="evenodd" clip-rule="evenodd" d="M19.2502 14.9265C13.3702 14.9265 11.0835 18.9364 11.0835 20.8007C11.0835 22.665 15.952 23.162 19.2502 23.162C22.5483 23.162 27.4168 22.665 27.4168 20.8007C27.4168 18.9364 25.1302 14.9265 19.2502 14.9265ZM19.2502 13.5884C19.8247 13.5884 20.3936 13.4752 20.9244 13.2554C21.4552 13.0355 21.9375 12.7132 22.3438 12.307C22.75 11.9007 23.0723 11.4184 23.2921 10.8876C23.512 10.3568 23.6252 9.78791 23.6252 9.21338C23.6252 8.63885 23.512 8.06994 23.2921 7.53914C23.0723 7.00834 22.75 6.52604 22.3438 6.11979C21.9375 5.71353 21.4552 5.39127 20.9244 5.17141C20.3936 4.95154 19.8247 4.83838 19.2502 4.83838C18.0898 4.83838 16.977 5.29932 16.1566 6.11979C15.3361 6.94026 14.8752 8.05306 14.8752 9.21338C14.8752 10.3737 15.3361 11.4865 16.1566 12.307C16.977 13.1274 18.0898 13.5884 19.2502 13.5884Z" fill="#768FB0"/>
</svg>
