<svg width="24" height="25" viewBox="0 0 24 25" fill="none" xmlns="http://www.w3.org/2000/svg">
<rect x="8.12402" y="18.2144" width="1" height="4" rx="0.5" transform="rotate(30 8.12402 18.2144)" fill="#8694AA"/>
<path d="M7.7207 18.0315L9.45275 19.0315L8.45275 20.7635C8.17661 21.2418 7.56502 21.4057 7.08673 21.1296C6.60844 20.8534 6.44456 20.2418 6.7207 19.7635L7.7207 18.0315Z" fill="#8694AA"/>
<path fill-rule="evenodd" clip-rule="evenodd" d="M18.5501 9.27433C18.5503 9.27395 18.5505 9.27357 18.5508 9.27318C19.6553 7.36001 18.9998 4.91365 17.0867 3.80908C15.1735 2.70453 12.7272 3.35999 11.6226 5.27307C11.6249 5.27431 11.6271 5.27557 11.6293 5.27686L18.5169 9.25342C18.5283 9.26001 18.5394 9.267 18.5501 9.27433ZM17.9418 10.0761L11.2317 6.20203C10.7536 7.91819 11.4725 9.80533 13.0867 10.7373C14.7009 11.6692 16.6946 11.3482 17.9418 10.0761Z" fill="#8694AA"/>
<path fill-rule="evenodd" clip-rule="evenodd" d="M11.4702 8.64791C11.2338 8.5114 10.9331 8.64665 10.8783 8.91413L10.3556 11.4685L13.8197 13.4685L15.7705 11.7386C15.9748 11.5575 15.9416 11.2294 15.7051 11.0929L11.4702 8.64791ZM13.8064 13.4611L10.3694 11.4767L6.96795 18.1756C6.58713 18.9256 6.85942 19.8425 7.58788 20.2631C8.31635 20.6837 9.24653 20.4611 9.70565 19.7562L13.8064 13.4611ZM12.087 12.4695C11.8478 12.3314 11.542 12.4133 11.4039 12.6525L10.9039 13.5185C10.7659 13.7576 10.8478 14.0634 11.087 14.2015C11.3261 14.3396 11.6319 14.2576 11.77 14.0185L12.27 13.1525C12.408 12.9133 12.3261 12.6075 12.087 12.4695Z" fill="#8694AA"/>
</svg>
