<svg width="24" height="25" viewBox="0 0 24 25" fill="none" xmlns="http://www.w3.org/2000/svg">
<path fill-rule="evenodd" clip-rule="evenodd" d="M5.38184 6H19.8887L19.908 5.46924C19.9555 4.16914 18.7686 3.17053 17.4958 3.43956L5.38184 6Z" fill="#8694AA"/>
<path fill-rule="evenodd" clip-rule="evenodd" d="M9.89551 5.9351L19.017 6.01428C19.6106 6.01944 20.1418 6.28272 20.5047 6.697C20.2858 5.76041 19.4018 5.06786 18.3745 5.16157L9.89551 5.9351Z" fill="#8694AA"/>
<path fill-rule="evenodd" clip-rule="evenodd" d="M5.09375 6.72021C3.98918 6.72021 3.09375 7.61565 3.09375 8.72021V18.7202C3.09375 19.8248 3.98918 20.7202 5.09375 20.7202H19.0938C20.1983 20.7202 21.0938 19.8248 21.0938 18.7202V15.3399C21.8283 15.0439 22.3467 14.3246 22.3467 13.4841V13.2295C22.3467 12.389 21.8283 11.6697 21.0938 11.3737V8.72021C21.0938 7.61565 20.1983 6.72021 19.0938 6.72021H5.09375ZM19.3018 13.4683C19.3018 14.0244 18.851 14.4752 18.295 14.4752C17.7389 14.4752 17.2881 14.0244 17.2881 13.4683C17.2881 12.9122 17.7389 12.4614 18.295 12.4614C18.851 12.4614 19.3018 12.9122 19.3018 13.4683ZM4.70224 8.34961C4.40852 8.34961 4.17041 8.58772 4.17041 8.88144C4.17041 9.17515 4.40852 9.41326 4.70224 9.41326H12.6796C12.9733 9.41326 13.2114 9.17515 13.2114 8.88144C13.2114 8.58772 12.9733 8.34961 12.6796 8.34961H4.70224Z" fill="#8694AA"/>
</svg>
