<svg width="28" height="28" viewBox="0 0 28 28" fill="none" xmlns="http://www.w3.org/2000/svg">
<rect x="2.29688" y="2.36987" width="23.3333" height="23.3333" rx="3" fill="white"/>
<path fill-rule="evenodd" clip-rule="evenodd" d="M19.1198 14.475L11.3724 19.5226C11.2869 19.5783 11.1879 19.6099 11.0858 19.6141C10.9838 19.6182 10.8826 19.5947 10.7928 19.546C10.703 19.4974 10.6281 19.4254 10.5759 19.3376C10.5236 19.2499 10.4961 19.1497 10.4961 19.0476V8.95244C10.4961 8.85034 10.5236 8.75013 10.5759 8.66239C10.6281 8.57465 10.703 8.50265 10.7928 8.454C10.8826 8.40534 10.9838 8.38183 11.0858 8.38596C11.1879 8.39009 11.2869 8.4217 11.3724 8.47745L19.1198 13.525C19.1988 13.5765 19.2638 13.6469 19.3088 13.7299C19.3537 13.8128 19.3773 13.9057 19.3773 14C19.3773 14.0944 19.3537 14.1872 19.3088 14.2702C19.2638 14.3531 19.1988 14.4235 19.1198 14.475V14.475Z" fill="#3ACFFF"/>
</svg>
