<svg width="24" height="25" viewBox="0 0 24 25" fill="none" xmlns="http://www.w3.org/2000/svg">
<path fill-rule="evenodd" clip-rule="evenodd" d="M7.09909 14.901H8.89909V13.101H7.09909V14.901V14.901ZM7.09909 11.15H8.89909V9.35H7.09909V11.15V11.15ZM7.09909 7.4H8.89909V5.6H7.09909V7.4V7.4ZM11.1001 14.901H12.9001V13.101H11.1001V14.901ZM11.1001 11.15H12.9001V9.35H11.1001V11.15ZM11.1001 7.4H12.9001V5.6H11.1001V7.4V7.4ZM15.1021 14.901H16.9021V13.101H15.1021V14.901ZM15.1021 11.15H16.9021V9.35H15.1021V11.15ZM15.1021 7.4H16.9021V5.6H15.1021V7.4V7.4ZM19.5031 2H4.49709C4.36569 1.99987 4.23554 2.02564 4.1141 2.07583C3.99266 2.12603 3.88231 2.19967 3.78934 2.29254C3.69638 2.38541 3.62263 2.4957 3.57231 2.61709C3.52199 2.73848 3.49609 2.86859 3.49609 3V21.888C3.49609 22.2063 3.62252 22.5115 3.84757 22.7365C4.07261 22.9616 4.37783 23.088 4.69609 23.088H10.0001V19.335C10.0001 19.0698 10.1055 18.8154 10.293 18.6279C10.4805 18.4404 10.7349 18.335 11.0001 18.335H13.0001C13.2653 18.335 13.5197 18.4404 13.7072 18.6279C13.8947 18.8154 14.0001 19.0698 14.0001 19.335V23.088H19.3031C19.6214 23.088 19.9266 22.9616 20.1516 22.7365C20.3767 22.5115 20.5031 22.2063 20.5031 21.888V3C20.5031 2.73478 20.3977 2.48043 20.2102 2.29289C20.0227 2.10536 19.7683 2 19.5031 2Z" fill="#8B95A1"/>
</svg>
