<svg width="24" height="25" viewBox="0 0 24 25" fill="none" xmlns="http://www.w3.org/2000/svg">
<path fill-rule="evenodd" clip-rule="evenodd" d="M19.5 2.5H4.5C4.23478 2.5 3.98043 2.60536 3.79289 2.79289C3.60536 2.98043 3.5 3.23478 3.5 3.5V21.5C3.5 21.7652 3.60536 22.0196 3.79289 22.2071C3.98043 22.3946 4.23478 22.5 4.5 22.5H13V17.5C13 16.122 14.122 15 15.5 15H20.5V3.5C20.5 3.23478 20.3946 2.98043 20.2071 2.79289C20.0196 2.60536 19.7652 2.5 19.5 2.5" fill="#8B95A1"/>
<path fill-rule="evenodd" clip-rule="evenodd" d="M14.5 17.5V22.5L20.5 16.5H15.5C15.2348 16.5 14.9804 16.6054 14.7929 16.7929C14.6054 16.9804 14.5 17.2348 14.5 17.5Z" fill="#8B95A1"/>
</svg>
