<svg width="24" height="24" viewBox="0 0 24 24" fill="none" xmlns="http://www.w3.org/2000/svg">
<path fill-rule="evenodd" clip-rule="evenodd" d="M12.0001 12.6832C11.668 12.6896 11.3379 12.6296 11.0292 12.5069C10.7205 12.3842 10.4393 12.2012 10.2022 11.9686C9.965 11.7359 9.77662 11.4583 9.64802 11.152C9.51942 10.8457 9.45318 10.5169 9.45318 10.1847C9.45318 9.85245 9.51942 9.52358 9.64802 9.21727C9.77662 8.91096 9.965 8.63337 10.2022 8.40073C10.4393 8.16809 10.7205 7.98507 11.0292 7.86237C11.3379 7.73967 11.668 7.67976 12.0001 7.68614C12.6545 7.6987 13.2778 7.96746 13.7361 8.43465C14.1944 8.90185 14.4511 9.53019 14.4511 10.1847C14.4511 10.8391 14.1944 11.4675 13.7361 11.9347C13.2778 12.4019 12.6545 12.6706 12.0001 12.6832M10.0444 1.90552C6.1127 2.78302 3.3559 6.48361 3.51059 10.5092C3.63213 13.6712 5.5722 16.4998 11.3445 22.0493C11.7092 22.3992 12.2929 22.401 12.6585 22.0502C18.6288 16.311 20.4998 13.4824 20.4998 10.1842C20.4998 4.85292 15.5893 0.668 10.0444 1.90644" fill="#FF4F4F"/>
<path d="M12.0001 12.6832C11.668 12.6896 11.3379 12.6296 11.0292 12.5069C10.7205 12.3842 10.4393 12.2012 10.2022 11.9686C9.965 11.7359 9.77662 11.4583 9.64802 11.152C9.51942 10.8457 9.45318 10.5169 9.45318 10.1847C9.45318 9.85245 9.51942 9.52358 9.64802 9.21727C9.77662 8.91096 9.965 8.63337 10.2022 8.40073C10.4393 8.16809 10.7205 7.98507 11.0292 7.86237C11.3379 7.73967 11.668 7.67976 12.0001 7.68614C12.6545 7.6987 13.2778 7.96746 13.7361 8.43465C14.1944 8.90185 14.4511 9.53019 14.4511 10.1847C14.4511 10.8391 14.1944 11.4675 13.7361 11.9347C13.2778 12.4019 12.6545 12.6706 12.0001 12.6832M10.0444 1.90552C6.1127 2.78302 3.3559 6.48361 3.51059 10.5092C3.63213 13.6712 5.5722 16.4998 11.3445 22.0493C11.7092 22.3992 12.2929 22.401 12.6585 22.0502C18.6288 16.311 20.4998 13.4824 20.4998 10.1842C20.4998 4.85292 15.5893 0.668 10.0444 1.90644" stroke="white"/>
<circle cx="12" cy="9.96875" r="4.96875" fill="white"/>
<path fill-rule="evenodd" clip-rule="evenodd" d="M10.6144 7.3433C10.6144 7.19839 10.7883 7.14043 10.9042 7.22737L13.9472 9.77772C14.1211 9.92263 14.1211 10.1835 13.9472 10.3284L10.9042 12.9657C10.7883 13.0526 10.6144 12.9657 10.6144 12.8497L10.6144 7.3433Z" fill="#FF4F4F"/>
</svg>
