<svg width="28" height="29" viewBox="0 0 28 29" fill="none" xmlns="http://www.w3.org/2000/svg">
<path fill-rule="evenodd" clip-rule="evenodd" d="M17.208 20.9108V26.7441L24.208 19.7441H18.3747C18.0653 19.7441 17.7685 19.8671 17.5497 20.0858C17.3309 20.3046 17.208 20.6014 17.208 20.9108Z" fill="#1F67FD"/>
<mask id="mask0_267_7997" style="mask-type:alpha" maskUnits="userSpaceOnUse" x="4" y="3" width="21" height="25">
<rect x="4.375" y="3.41113" width="20.125" height="23.625" rx="1" fill="#73BCFF"/>
</mask>
<g mask="url(#mask0_267_7997)">
<path d="M17.0625 27.2549L24.6914 19.6533L26.332 4.06738L25.0742 2.18066L4.51172 1.93457L2.84375 2.8916L2.70703 24.2471L3.63672 27.8838L17.0625 27.2549Z" fill="white"/>
</g>
<path fill-rule="evenodd" clip-rule="evenodd" d="M24.4419 19.8105C24.4021 19.8747 24.3543 19.9354 24.2986 19.9911L17.285 27.0047C17.2354 26.886 17.208 26.7558 17.208 26.6191V20.7441C17.208 20.1919 17.6557 19.7441 18.208 19.7441H24.083C24.2095 19.7441 24.3305 19.7676 24.4419 19.8105Z" fill="#9AE6FF"/>
</svg>
