<svg width="28" height="28" viewBox="0 0 28 28" fill="none" xmlns="http://www.w3.org/2000/svg">
<path fill-rule="evenodd" clip-rule="evenodd" d="M19.7015 7.75127C19.7016 8.50122 19.554 9.24385 19.2671 9.93675C18.9801 10.6297 18.5595 11.2593 18.0293 11.7896C17.499 12.32 16.8695 12.7407 16.1767 13.0277C15.4838 13.3148 14.7412 13.4626 13.9913 13.4627C12.4767 13.4628 11.024 12.8613 9.95295 11.7904C8.88185 10.7196 8.28003 9.26704 8.27987 7.75243C8.27979 7.00248 8.42743 6.25985 8.71436 5.56695C9.00129 4.87405 9.42188 4.24445 9.95212 3.71409C11.023 2.64299 12.4755 2.04117 13.9901 2.04102C15.5047 2.04086 16.9574 2.64239 18.0285 3.71327C19.0996 4.78415 19.7014 6.23666 19.7015 7.75127M13.9907 15.2098C5.76687 15.2098 2.56787 20.4434 2.56787 22.8783C2.56787 25.3119 9.3777 25.9606 13.9907 25.9606C18.6037 25.9606 25.4135 25.3119 25.4135 22.8783C25.4135 20.4434 22.2145 15.2098 13.9907 15.2098Z" fill="#768FB0"/>
</svg>
