<svg width="24" height="25" viewBox="0 0 24 25" fill="none" xmlns="http://www.w3.org/2000/svg">
<path fill-rule="evenodd" clip-rule="evenodd" d="M6.737 21.75H4C3.73478 21.75 3.48043 21.6446 3.29289 21.4571C3.10536 21.2696 3 21.0152 3 20.75V14.224C3 13.9588 3.10536 13.7044 3.29289 13.5169C3.48043 13.3294 3.73478 13.224 4 13.224H6.737C7.00222 13.224 7.25657 13.3294 7.44411 13.5169C7.63164 13.7044 7.737 13.9588 7.737 14.224V20.75C7.737 21.0152 7.63164 21.2696 7.44411 21.4571C7.25657 21.6446 7.00222 21.75 6.737 21.75ZM13.369 21.75H10.632C10.3668 21.75 10.1124 21.6446 9.92489 21.4571C9.73736 21.2696 9.632 21.0152 9.632 20.75V9.487C9.632 9.22178 9.73736 8.96743 9.92489 8.77989C10.1124 8.59236 10.3668 8.487 10.632 8.487H13.369C13.6342 8.487 13.8886 8.59236 14.0761 8.77989C14.2636 8.96743 14.369 9.22178 14.369 9.487V20.75C14.369 21.0152 14.2636 21.2696 14.0761 21.4571C13.8886 21.6446 13.6342 21.75 13.369 21.75ZM20 21.75H17.263C16.9978 21.75 16.7434 21.6446 16.5559 21.4571C16.3684 21.2696 16.263 21.0152 16.263 20.75V4.75C16.263 4.48478 16.3684 4.23043 16.5559 4.04289C16.7434 3.85536 16.9978 3.75 17.263 3.75H20C20.2652 3.75 20.5196 3.85536 20.7071 4.04289C20.8946 4.23043 21 4.48478 21 4.75V20.75C21 21.0152 20.8946 21.2696 20.7071 21.4571C20.5196 21.6446 20.2652 21.75 20 21.75Z" fill="#8B95A1"/>
</svg>
