<svg width="24" height="25" viewBox="0 0 24 25" fill="none" xmlns="http://www.w3.org/2000/svg">
<path fill-rule="evenodd" clip-rule="evenodd" d="M13.1883 3.37796C12.482 2.85611 11.5178 2.85611 10.8114 3.37796L2.69194 9.37662C1.60985 10.1761 1.60985 11.7944 2.69194 12.5938L5.3335 14.5454V13.8435C5.3335 11.6344 7.12436 9.84351 9.3335 9.84351H14.6668C16.876 9.84351 18.6668 11.6344 18.6668 13.8435V14.545L21.3078 12.5938C22.3899 11.7944 22.3899 10.1761 21.3078 9.37662L13.1883 3.37796Z" fill="#8694AA"/>
<rect x="19.5156" y="8.50781" width="1" height="6.97656" rx="0.5" fill="#8694AA"/>
<path d="M19.5156 15.3594H20.5156L21 17.5H19L19.5156 15.3594Z" fill="#8694AA"/>
<rect x="19.2158" y="14.5596" width="1.6" height="1.6" rx="0.8" fill="#8694AA"/>
<path d="M6 14.5C6 12.2909 7.79086 10.5 10 10.5H14C16.2091 10.5 18 12.2909 18 14.5V18.5C18 19.0523 17.5523 19.5 17 19.5H7C6.44772 19.5 6 19.0523 6 18.5V14.5Z" fill="#8694AA"/>
</svg>
