<svg width="24" height="24" viewBox="0 0 24 24" fill="none" xmlns="http://www.w3.org/2000/svg">
<path d="M10.8116 2.87801C11.5179 2.35616 12.4821 2.35616 13.1884 2.87801L21.3079 8.87667C22.39 9.67611 22.39 11.2944 21.3079 12.0939L13.1884 18.0926C12.4821 18.6144 11.5179 18.6144 10.8116 18.0926L2.69206 12.0939C1.60997 11.2944 1.60997 9.67611 2.69206 8.87667L10.8116 2.87801Z" fill="#10115F"/>
<path d="M6 14C6 11.7909 7.79086 10 10 10H14C16.2091 10 18 11.7909 18 14V18C18 18.5523 17.5523 19 17 19H7C6.44772 19 6 18.5523 6 18V14Z" fill="#5657A7"/>
<rect x="19.5156" y="8.00781" width="1" height="6.97656" rx="0.5" fill="#FCD486"/>
<path d="M19.5156 14.8594H20.5156L21 17H19L19.5156 14.8594Z" fill="#FCD486"/>
<rect x="19.2158" y="14.0596" width="1.6" height="1.6" rx="0.8" fill="#EBA51C"/>
</svg>
