<svg width="25" height="24" viewBox="0 0 25 24" fill="none" xmlns="http://www.w3.org/2000/svg">
<path d="M9.50098 17V18C9.50098 18.394 9.57858 18.7841 9.72934 19.1481C9.88011 19.512 10.1011 19.8427 10.3797 20.1213C10.6583 20.3999 10.989 20.6209 11.3529 20.7716C11.7169 20.9224 12.107 21 12.501 21C12.895 21 13.2851 20.9224 13.6491 20.7716C14.013 20.6209 14.3437 20.3999 14.6223 20.1213C14.9009 19.8427 15.1219 19.512 15.2726 19.1481C15.4234 18.7841 15.501 18.394 15.501 18V17" stroke="#1F67FD" stroke-width="2" stroke-linecap="round" stroke-linejoin="round"/>
<path d="M20.501 17C20.501 17 18.501 12 18.501 9C18.501 5.732 15.769 3 12.501 3C9.23298 3 6.50098 5.732 6.50098 9C6.50098 13 4.50098 17 4.50098 17H20.501Z" stroke="#1F67FD" stroke-width="2" stroke-linecap="round" stroke-linejoin="round"/>
</svg>
