<svg width="32" height="32" viewBox="0 0 32 32" fill="none" xmlns="http://www.w3.org/2000/svg">
<path fill-rule="evenodd" clip-rule="evenodd" d="M8.98267 28.3335H5.33333C4.97971 28.3335 4.64057 28.193 4.39052 27.943C4.14048 27.6929 4 27.3538 4 27.0002V18.2988C4 17.9452 4.14048 17.6061 4.39052 17.356C4.64057 17.106 4.97971 16.9655 5.33333 16.9655H8.98267C9.33629 16.9655 9.67543 17.106 9.92548 17.356C10.1755 17.6061 10.316 17.9452 10.316 18.2988V27.0002C10.316 27.3538 10.1755 27.6929 9.92548 27.943C9.67543 28.193 9.33629 28.3335 8.98267 28.3335ZM17.8253 28.3335H14.176C13.8224 28.3335 13.4832 28.193 13.2332 27.943C12.9831 27.6929 12.8427 27.3538 12.8427 27.0002V11.9828C12.8427 11.6292 12.9831 11.2901 13.2332 11.04C13.4832 10.79 13.8224 10.6495 14.176 10.6495H17.8253C18.179 10.6495 18.5181 10.79 18.7681 11.04C19.0182 11.2901 19.1587 11.6292 19.1587 11.9828V27.0002C19.1587 27.3538 19.0182 27.6929 18.7681 27.943C18.5181 28.193 18.179 28.3335 17.8253 28.3335ZM26.6667 28.3335H23.0173C22.6637 28.3335 22.3246 28.193 22.0745 27.943C21.8245 27.6929 21.684 27.3538 21.684 27.0002V5.66683C21.684 5.31321 21.8245 4.97407 22.0745 4.72402C22.3246 4.47397 22.6637 4.3335 23.0173 4.3335H26.6667C27.0203 4.3335 27.3594 4.47397 27.6095 4.72402C27.8595 4.97407 28 5.31321 28 5.66683V27.0002C28 27.3538 27.8595 27.6929 27.6095 27.943C27.3594 28.193 27.0203 28.3335 26.6667 28.3335Z" fill="#B7C4D5"/>
<path d="M14.1761 28.3334H17.8254C18.1791 28.3334 18.5182 28.1929 18.7682 27.9429C19.0183 27.6928 19.1588 27.3537 19.1588 27.0001V11.9827C19.1588 11.6291 19.0183 11.29 18.7682 11.0399C18.5182 10.7899 18.1791 10.6494 17.8254 10.6494H14.1761C13.8225 10.6494 13.4833 10.7899 13.2333 11.0399C12.9832 11.29 12.8428 11.6291 12.8428 11.9827V27.0001C12.8428 27.3537 12.9832 27.6928 13.2333 27.9429C13.4833 28.1929 13.8225 28.3334 14.1761 28.3334Z" fill="#91A5C0"/>
<path d="M23.0174 28.3335H26.6667C27.0204 28.3335 27.3595 28.193 27.6096 27.943C27.8596 27.6929 28.0001 27.3538 28.0001 27.0002V5.66683C28.0001 5.31321 27.8596 4.97407 27.6096 4.72402C27.3595 4.47397 27.0204 4.3335 26.6667 4.3335H23.0174C22.6638 4.3335 22.3247 4.47397 22.0746 4.72402C21.8246 4.97407 21.6841 5.31321 21.6841 5.66683V27.0002C21.6841 27.3538 21.8246 27.6929 22.0746 27.943C22.3247 28.193 22.6638 28.3335 23.0174 28.3335Z" fill="#768FB0"/>
</svg>
