<svg width="24" height="25" viewBox="0 0 24 25" fill="none" xmlns="http://www.w3.org/2000/svg">
<path fill-rule="evenodd" clip-rule="evenodd" d="M11 3.5C9.89543 3.5 9 4.39543 9 5.5V20.5C9 21.6046 9.89543 22.5 11 22.5H19C20.1046 22.5 21 21.6046 21 20.5V5.5C21 4.39543 20.1046 3.5 19 3.5H11ZM12 7.5H14V9.5H12V7.5ZM12 10.5H14V12.5H12V10.5ZM18 7.5H16V9.5H18V7.5ZM16 10.5H18V12.5H16V10.5ZM18 13.5H16V15.5H18V13.5Z" fill="#8694AA"/>
<path fill-rule="evenodd" clip-rule="evenodd" d="M7.30003 11.1C7.12225 10.9667 6.87781 10.9667 6.70003 11.1L2.70003 14.1C2.47912 14.2657 2.43434 14.5791 2.60003 14.8C2.69817 14.9309 2.84815 14.9999 3.00003 15V21.5C3.00003 22.0523 3.44774 22.5 4.00003 22.5H10C10.5523 22.5 11 22.0523 11 21.5V15C11.1519 14.9999 11.3019 14.9309 11.4 14.8C11.5657 14.5791 11.5209 14.2657 11.3 14.1L7.30003 11.1ZM8 16.5H6V18.5H8V16.5Z" fill="#8694AA"/>
</svg>
