<svg width="24" height="25" viewBox="0 0 24 25" fill="none" xmlns="http://www.w3.org/2000/svg">
<g filter="url(#filter0_i_128_10296)">
<path d="M16.4571 9.20098C16.4571 8.59366 16.9494 8.10133 17.5568 8.10133C18.1641 8.10133 18.6564 8.59366 18.6564 9.20098V17.9982C18.6564 18.6055 18.1641 19.0979 17.5568 19.0979C16.9494 19.0979 16.4571 18.6055 16.4571 17.9982V9.20098Z" fill="#8694AA"/>
<path d="M14.2578 5.56367C14.2578 3.32126 16.0756 1.50342 18.3181 1.50342C18.5049 1.50342 18.6564 1.6549 18.6564 1.84177V11.4003H15.6717C14.8908 11.4003 14.2578 10.7673 14.2578 9.98645V5.56367Z" fill="#8694AA"/>
</g>
<path fill-rule="evenodd" clip-rule="evenodd" d="M3.82812 2.32816C3.82812 1.87267 4.19737 1.50342 4.65286 1.50342C5.10836 1.50342 5.4776 1.87267 5.4776 2.32816V7.00168H6.85217V2.32816C6.85217 1.87267 7.22142 1.50342 7.67691 1.50342C8.1324 1.50342 8.50165 1.87267 8.50165 2.32816V7.00168H9.87621V2.32816C9.87621 1.87267 10.2455 1.50342 10.701 1.50342C11.1564 1.50342 11.5257 1.87267 11.5257 2.32816V7.00168V7.27659V7.55151C11.5257 9.29502 10.3664 10.7678 8.77656 11.2409V12.92C9.11402 13.222 9.32639 13.661 9.32639 14.1495V21.847C9.32639 22.758 8.58789 23.4965 7.67691 23.4965C6.76593 23.4965 6.02743 22.758 6.02743 21.847V14.1495C6.02743 13.661 6.2398 13.222 6.57726 12.92V11.2409C4.98744 10.7678 3.82812 9.29502 3.82812 7.55151V7.27659V7.00168V2.32816ZM7.67679 22.6719C8.13228 22.6719 8.50153 22.3027 8.50153 21.8472C8.50153 21.3917 8.13228 21.0225 7.67679 21.0225C7.2213 21.0225 6.85205 21.3917 6.85205 21.8472C6.85205 22.3027 7.2213 22.6719 7.67679 22.6719Z" fill="#8694AA"/>
<path fill-rule="evenodd" clip-rule="evenodd" d="M17.0069 12.5C16.0959 12.5 15.3574 13.2385 15.3574 14.1495V21.847C15.3574 22.758 16.0959 23.4965 17.0069 23.4965C17.9179 23.4965 18.6564 22.758 18.6564 21.847V14.1495C18.6564 13.2385 17.9179 12.5 17.0069 12.5ZM17.0069 22.6719C17.4624 22.6719 17.8316 22.3027 17.8316 21.8472C17.8316 21.3917 17.4624 21.0225 17.0069 21.0225C16.5514 21.0225 16.1821 21.3917 16.1821 21.8472C16.1821 22.3027 16.5514 22.6719 17.0069 22.6719Z" fill="#8694AA"/>
<rect x="16.375" y="7.46875" width="2.28125" height="5.25" fill="#8694AA"/>
<defs>
<filter id="filter0_i_128_10296" x="14.2578" y="1.50342" width="4.39844" height="17.5945" filterUnits="userSpaceOnUse" color-interpolation-filters="sRGB">
<feFlood flood-opacity="0" result="BackgroundImageFix"/>
<feBlend mode="normal" in="SourceGraphic" in2="BackgroundImageFix" result="shape"/>
<feColorMatrix in="SourceAlpha" type="matrix" values="0 0 0 0 0 0 0 0 0 0 0 0 0 0 0 0 0 0 127 0" result="hardAlpha"/>
<feOffset/>
<feGaussianBlur stdDeviation="0.5"/>
<feComposite in2="hardAlpha" operator="arithmetic" k2="-1" k3="1"/>
<feColorMatrix type="matrix" values="0 0 0 0 0.0801269 0 0 0 0 0.220349 0 0 0 0 0.641016 0 0 0 0.1 0"/>
<feBlend mode="normal" in2="shape" result="effect1_innerShadow_128_10296"/>
</filter>
</defs>
</svg>
