<svg width="24" height="25" viewBox="0 0 24 25" fill="none" xmlns="http://www.w3.org/2000/svg">
<path fill-rule="evenodd" clip-rule="evenodd" d="M13.3178 11.3009L13.3178 6.30913C13.3178 6.1515 13.2868 5.99541 13.2266 5.84976C13.1663 5.70411 13.0779 5.57177 12.9665 5.46027C12.8551 5.34878 12.7228 5.26033 12.5772 5.19997C12.4315 5.1396 12.2755 5.10851 12.1178 5.10846C11.9602 5.10841 11.8041 5.13942 11.6585 5.19969C11.5128 5.25997 11.3805 5.34835 11.269 5.45977C11.1575 5.5712 11.069 5.7035 11.0087 5.84911C10.9483 5.99472 10.9172 6.15079 10.9172 6.30842L10.9179 11.3009L5.92474 11.3009C5.61343 11.3115 5.31842 11.4426 5.10198 11.6666C4.88553 11.8907 4.7646 12.19 4.76469 12.5015C4.76478 12.813 4.88589 13.1123 5.10247 13.3362C5.31904 13.5601 5.61413 13.691 5.92545 13.7015L10.9179 13.7008L10.9172 18.6932C10.918 18.9302 10.9889 19.1618 11.1209 19.3586C11.253 19.5555 11.4403 19.7089 11.6593 19.7996C11.8783 19.8903 12.1193 19.9142 12.3518 19.8683C12.5844 19.8224 12.7982 19.7088 12.9664 19.5417C13.1834 19.3246 13.3178 19.0248 13.3178 18.6939L13.3178 13.7008L18.3102 13.7015C18.4679 13.7017 18.624 13.6709 18.7697 13.6107C18.9154 13.5504 19.0478 13.4621 19.1593 13.3506C19.2708 13.2391 19.3592 13.1067 19.4194 12.961C19.4796 12.8153 19.5104 12.6592 19.5102 12.5015C19.5103 12.3438 19.4793 12.1876 19.419 12.0419C19.3587 11.8962 19.2702 11.7638 19.1587 11.6523C19.0472 11.5408 18.9148 11.4524 18.7691 11.3921C18.6234 11.3318 18.4672 11.3008 18.3095 11.3008L13.3178 11.3009Z" fill="#8B95A1"/>
</svg>
