<svg width="28" height="28" viewBox="0 0 28 28" fill="none" xmlns="http://www.w3.org/2000/svg">
<path fill-rule="evenodd" clip-rule="evenodd" d="M24.7448 18.7889L22.9563 17.894L15.8257 21.4594C15.2585 21.7419 14.6334 21.8884 13.9998 21.8875C13.3663 21.8883 12.7412 21.7417 12.174 21.4594L5.04334 17.894L3.25368 18.7889C3.05954 18.8856 2.89621 19.0346 2.78206 19.2191C2.6679 19.4035 2.60742 19.6161 2.60742 19.833C2.60742 20.05 2.6679 20.2626 2.78206 20.447C2.89621 20.6315 3.05954 20.7804 3.25368 20.8772L12.9568 25.727C13.2808 25.8893 13.6381 25.9738 14.0004 25.9738C14.3627 25.9738 14.7201 25.8893 15.044 25.727L24.746 20.876C24.9398 20.7792 25.1029 20.6302 25.2168 20.4459C25.3307 20.2616 25.3911 20.0492 25.3911 19.8325C25.3911 19.6158 25.3307 19.4033 25.2168 19.219C25.1029 19.0347 24.9398 18.8858 24.746 18.7889" fill="#B7C4D5"/>
<path fill-rule="evenodd" clip-rule="evenodd" d="M12.9568 25.7274L3.25476 20.8752C3.06123 20.7782 2.89851 20.6293 2.78479 20.4451C2.67107 20.2609 2.61084 20.0487 2.61084 19.8322C2.61084 19.6157 2.67107 19.4035 2.78479 19.2193C2.89851 19.0351 3.06123 18.8862 3.25476 18.7892L12.9568 13.9382C13.2807 13.7759 13.638 13.6914 14.0003 13.6914C14.3627 13.6914 14.72 13.7759 15.0439 13.9382L24.7459 18.7892C24.9398 18.8861 25.1028 19.035 25.2167 19.2193C25.3307 19.4037 25.391 19.6161 25.391 19.8328C25.391 20.0495 25.3307 20.2619 25.2167 20.4462C25.1028 20.6305 24.9398 20.7795 24.7459 20.8764L15.0439 25.7274C14.7197 25.8892 14.3622 25.9735 13.9998 25.9735C13.6373 25.9735 13.2799 25.8892 12.9556 25.7274" fill="#B7C4D5"/>
<path fill-rule="evenodd" clip-rule="evenodd" d="M12.9568 19.8944L3.25476 15.0422C3.06123 14.9452 2.89851 14.7963 2.78479 14.6121C2.67107 14.4279 2.61084 14.2157 2.61084 13.9992C2.61084 13.7827 2.67107 13.5705 2.78479 13.3863C2.89851 13.2021 3.06123 13.0532 3.25476 12.9562L12.9568 8.10519C13.2807 7.9429 13.638 7.8584 14.0003 7.8584C14.3627 7.8584 14.72 7.9429 15.0439 8.10519L24.7459 12.9562C24.9398 13.0531 25.1028 13.202 25.2167 13.3863C25.3307 13.5707 25.391 13.7831 25.391 13.9998C25.391 14.2165 25.3307 14.4289 25.2167 14.6132C25.1028 14.7975 24.9398 14.9465 24.7459 15.0434L15.0439 19.8944C14.7197 20.0562 14.3622 20.1405 13.9998 20.1405C13.6373 20.1405 13.2799 20.0562 12.9556 19.8944" fill="#91A5C0"/>
<path fill-rule="evenodd" clip-rule="evenodd" d="M12.9568 14.0618L3.25476 9.20967C3.06123 9.11268 2.89851 8.96375 2.78479 8.77955C2.67107 8.59535 2.61084 8.38315 2.61084 8.16667C2.61084 7.9502 2.67107 7.73799 2.78479 7.55379C2.89851 7.36959 3.06123 7.22067 3.25476 7.12367L12.9568 2.27267C13.2807 2.11038 13.638 2.02588 14.0003 2.02588C14.3627 2.02588 14.72 2.11038 15.0439 2.27267L24.7459 7.12367C24.9398 7.22055 25.1028 7.3695 25.2167 7.55382C25.3307 7.73814 25.391 7.95056 25.391 8.16726C25.391 8.38395 25.3307 8.59637 25.2167 8.78069C25.1028 8.96501 24.9398 9.11396 24.7459 9.21084L15.0439 14.0618C14.7197 14.2237 14.3622 14.308 13.9998 14.308C13.6373 14.308 13.2799 14.2237 12.9556 14.0618" fill="#768FB0"/>
</svg>
