<svg width="24" height="25" viewBox="0 0 24 25" fill="none" xmlns="http://www.w3.org/2000/svg">
<path fill-rule="evenodd" clip-rule="evenodd" d="M8.6248 20.5999C8.2798 20.5999 7.9348 20.4649 7.6648 20.2099C7.41291 19.9569 7.27148 19.6145 7.27148 19.2574C7.27148 18.9004 7.41291 18.5579 7.6648 18.3049L13.4698 12.4999L7.6648 6.70994C7.41291 6.45694 7.27148 6.11445 7.27148 5.75744C7.27148 5.40042 7.41291 5.05794 7.6648 4.80494C7.9178 4.55304 8.26028 4.41162 8.6173 4.41162C8.97432 4.41162 9.3168 4.55304 9.5698 4.80494L16.3198 11.5549C16.5717 11.8079 16.7131 12.1504 16.7131 12.5074C16.7131 12.8645 16.5717 13.2069 16.3198 13.4599L9.5698 20.2099C9.3148 20.4649 8.9698 20.5999 8.6248 20.5999" fill="white"/>
</svg>
