<svg width="24" height="24" viewBox="0 0 24 24" fill="none" xmlns="http://www.w3.org/2000/svg">
<path d="M19.9496 5.06371L19.9492 5.06332C19.4281 4.55247 18.8136 4.1465 18.1393 3.8675L18.1387 3.86723C17.4392 3.57668 16.689 3.42796 15.9316 3.4297L15.9305 3.42971C14.8665 3.4297 13.8293 3.72101 12.9284 4.27061L12.9283 4.27062C12.7128 4.4021 12.5084 4.54628 12.315 4.70318L12 4.95866L11.685 4.70318C11.4916 4.54628 11.2872 4.4021 11.0717 4.27062L11.0716 4.27061C10.1707 3.72101 9.13355 3.4297 8.06953 3.4297C7.30245 3.4297 6.56146 3.57641 5.86133 3.86723L5.86079 3.86746C5.18401 4.14766 4.57455 4.55035 4.05064 5.06347L4.04996 5.06414C3.52959 5.57186 3.11391 6.17675 2.82647 6.84453L19.9496 5.06371ZM19.9496 5.06371C20.4695 5.57223 20.8853 6.17724 21.1737 6.84488C21.4726 7.53956 21.6248 8.27564 21.6227 9.03375V9.03516C21.6227 9.74717 21.4773 10.5 21.1799 11.2776L21.1794 11.2788C20.933 11.928 20.5703 12.6114 20.1019 13.3105C19.3604 14.416 18.3317 15.5821 17.0397 16.7748C14.8937 18.7544 12.7703 20.1213 12.6888 20.1736L12.6887 20.1736L12.1342 20.5293C12.1341 20.5293 12.134 20.5294 12.134 20.5294C12.052 20.5816 11.9457 20.5816 11.8637 20.5294C11.8636 20.5294 11.8636 20.5293 11.8635 20.5293L11.309 20.1736L11.309 20.1736L11.3011 20.1687C11.3013 20.1688 11.3008 20.1685 11.2996 20.1678C11.2983 20.1669 11.296 20.1655 11.2927 20.1634L11.2691 20.1482C11.2491 20.1354 11.2215 20.1175 11.1867 20.0946C11.1171 20.0488 11.0192 19.9837 10.8971 19.9005C10.6528 19.7342 10.3121 19.4963 9.90668 19.1978C9.09509 18.6003 8.02815 17.7632 6.95797 16.7749L6.95792 16.7748M19.9496 5.06371L6.95792 16.7748M6.95792 16.7748C5.66607 15.5822 4.63738 14.4162 3.89587 13.3108L6.95792 16.7748ZM2.375 9.03516C2.375 8.27598 2.52747 7.53933 2.82645 6.84457L3.89571 13.3105C3.42803 12.6124 3.06713 11.9285 2.81779 11.2776C2.52038 10.5 2.375 9.74717 2.375 9.03516Z" stroke="#C7C7C7"/>
<path d="M21.6328 6.64689C21.3187 5.91947 20.8657 5.2603 20.2992 4.70626C19.7323 4.15058 19.064 3.70898 18.3305 3.40548C17.5699 3.08953 16.7541 2.92781 15.9305 2.9297C14.775 2.9297 13.6477 3.24611 12.668 3.84377C12.4336 3.98673 12.2109 4.14376 12 4.31486C11.7891 4.14376 11.5664 3.98673 11.332 3.84377C10.3523 3.24611 9.225 2.9297 8.06953 2.9297C7.2375 2.9297 6.43125 3.08908 5.66953 3.40548C4.93359 3.71017 4.27031 4.14845 3.70078 4.70626C3.13359 5.25967 2.6805 5.919 2.36719 6.64689C2.04141 7.40392 1.875 8.20782 1.875 9.03516C1.875 9.81563 2.03438 10.6289 2.35078 11.4563C2.61563 12.1477 2.99531 12.8648 3.48047 13.5891C4.24922 14.7352 5.30625 15.9305 6.61875 17.1422C8.79375 19.1508 10.9477 20.5383 11.0391 20.5945L11.5945 20.9508C11.8406 21.1078 12.157 21.1078 12.4031 20.9508L12.9586 20.5945C13.05 20.5359 15.2016 19.1508 17.3789 17.1422C18.6914 15.9305 19.7484 14.7352 20.5172 13.5891C21.0023 12.8648 21.3844 12.1477 21.6469 11.4563C21.9633 10.6289 22.1227 9.81563 22.1227 9.03516C22.125 8.20782 21.9586 7.40392 21.6328 6.64689Z" fill="#FF7B7B"/>
</svg>
