<svg width="28" height="28" viewBox="0 0 28 28" fill="none" xmlns="http://www.w3.org/2000/svg">
<path fill-rule="evenodd" clip-rule="evenodd" d="M17.208 20.1247V25.958L24.208 18.958H18.3747C18.0653 18.958 17.7685 19.0809 17.5497 19.2997C17.3309 19.5185 17.208 19.8153 17.208 20.1247Z" fill="#1F67FD"/>
<mask id="mask0_267_8320" style="mask-type:alpha" maskUnits="userSpaceOnUse" x="4" y="2" width="21" height="25">
<rect x="4.375" y="2.625" width="20.125" height="23.625" rx="1" fill="#73BCFF"/>
</mask>
<g mask="url(#mask0_267_8320)">
<path d="M17.0625 26.4688L24.6914 18.8672L26.332 3.28125L25.0742 1.39453L4.51172 1.14844L2.84375 2.10547L2.70703 23.4609L3.63672 27.0977L17.0625 26.4688Z" fill="#B7C4D5"/>
</g>
<path fill-rule="evenodd" clip-rule="evenodd" d="M24.4419 19.0243C24.4021 19.0886 24.3543 19.1492 24.2986 19.205L17.285 26.2185C17.2354 26.0999 17.208 25.9696 17.208 25.833V19.958C17.208 19.4057 17.6557 18.958 18.208 18.958H24.083C24.2095 18.958 24.3305 18.9815 24.4419 19.0243Z" fill="#768FB0"/>
</svg>
