<svg width="28" height="28" viewBox="0 0 28 28" fill="none" xmlns="http://www.w3.org/2000/svg">
<mask id="mask0_267_8263" style="mask-type:alpha" maskUnits="userSpaceOnUse" x="4" y="2" width="21" height="25">
<rect x="4.375" y="2.625" width="20.125" height="23.625" rx="1" fill="#73BCFF"/>
</mask>
<g mask="url(#mask0_267_8263)">
<path d="M17.0625 26.4688L24.6914 18.8672L26.332 3.28125L25.0742 1.39453L4.51172 1.14844L2.84375 2.10547L2.70703 23.4609L3.63672 27.0977L17.0625 26.4688Z" fill="#B7C4D5"/>
</g>
<path d="M13.0432 2.36947V9.2528C13.0432 9.76613 12.4365 10.0228 12.0632 9.68447L10.0215 7.80613C9.79988 7.59613 9.44988 7.59613 9.22821 7.80613L7.18654 9.6728C6.81321 10.0228 6.20654 9.75446 6.20654 9.2528V2.36947C6.20654 2.0428 6.46321 1.78613 6.78988 1.78613H12.4599C12.7865 1.78613 13.0432 2.0428 13.0432 2.36947Z" fill="#768FB0"/>
<path fill-rule="evenodd" clip-rule="evenodd" d="M17.29 20.2417V26.2498L24.4998 19.04H18.4917C18.173 19.04 17.8673 19.1666 17.642 19.392C17.4166 19.6173 17.29 19.923 17.29 20.2417Z" fill="#768FB0"/>
</svg>
