<svg width="25" height="25" viewBox="0 0 25 25" fill="none" xmlns="http://www.w3.org/2000/svg">
<path fill-rule="evenodd" clip-rule="evenodd" d="M12.125 17.618C11.8067 17.618 11.5015 17.4916 11.2765 17.2665C11.0514 17.0415 10.925 16.7363 10.925 16.418C10.925 16.0997 11.0514 15.7945 11.2765 15.5695C11.5015 15.3444 11.8067 15.218 12.125 15.218C12.4433 15.218 12.7485 15.3444 12.9735 15.5695C13.1986 15.7945 13.325 16.0997 13.325 16.418C13.325 16.7363 13.1986 17.0415 12.9735 17.2665C12.7485 17.4916 12.4433 17.618 12.125 17.618ZM11.125 7.783C11.125 7.51778 11.2304 7.26343 11.4179 7.07589C11.6054 6.88836 11.8598 6.783 12.125 6.783C12.3902 6.783 12.6446 6.88836 12.8321 7.07589C13.0196 7.26343 13.125 7.51778 13.125 7.783V12.783C13.125 13.0482 13.0196 13.3026 12.8321 13.4901C12.6446 13.6776 12.3902 13.783 12.125 13.783C11.8598 13.783 11.6054 13.6776 11.4179 13.4901C11.2304 13.3026 11.125 13.0482 11.125 12.783V7.783ZM12.125 1.5C6.05 1.5 1.125 6.425 1.125 12.5C1.125 18.576 6.05 23.5 12.125 23.5C18.2 23.5 23.125 18.576 23.125 12.5C23.125 6.425 18.2 1.5 12.125 1.5Z" fill="#8B95A1"/>
</svg>
