<svg width="24" height="24" viewBox="0 0 24 24" fill="none" xmlns="http://www.w3.org/2000/svg">
<path fill-rule="evenodd" clip-rule="evenodd" d="M22.3599 20.8399L18.9229 16.0299C18.639 15.6357 18.2274 15.3519 17.7579 15.2269L17.7039 15.2919C16.8089 16.3519 15.6709 17.5419 14.1209 19.0399C13.5524 19.5898 12.7919 19.8965 12.0009 19.8949C11.2103 19.8971 10.4501 19.5907 9.88194 19.0409C8.29994 17.5109 7.14394 16.2979 6.24194 15.2239C5.76831 15.3468 5.35263 15.6316 5.06694 16.0289L1.62994 20.8399C1.51786 20.9969 1.45121 21.1818 1.4373 21.3742C1.4234 21.5666 1.46277 21.7592 1.55111 21.9307C1.63945 22.1022 1.77333 22.246 1.93807 22.3464C2.1028 22.4469 2.29201 22.4999 2.48494 22.4999H21.5049C22.3589 22.4999 22.8549 21.5349 22.3589 20.8399" fill="white"/>
<path fill-rule="evenodd" clip-rule="evenodd" d="M11.9997 6.30195C12.266 6.29586 12.5309 6.34305 12.7788 6.44073C13.0266 6.53841 13.2525 6.68463 13.443 6.8708C13.6336 7.05696 13.785 7.27932 13.8885 7.52482C13.9919 7.77033 14.0453 8.03402 14.0454 8.30043C14.0455 8.56683 13.9925 8.83058 13.8893 9.07619C13.7861 9.32179 13.6348 9.54431 13.4444 9.73066C13.2541 9.91702 13.0284 10.0635 12.7806 10.1614C12.5329 10.2593 12.268 10.3068 12.0017 10.301C11.4713 10.3011 10.9625 10.0905 10.5873 9.71552C10.2122 9.34054 10.0013 8.83188 10.0012 8.30145C10.0011 7.77102 10.2117 7.26226 10.5866 6.88709C10.9616 6.51192 11.4703 6.30108 12.0007 6.30095M11.2727 17.603C11.469 17.7907 11.7303 17.8954 12.0019 17.8952C12.2736 17.895 12.5346 17.79 12.7307 17.6019C17.3487 13.1399 18.8027 10.902 18.8027 8.30195C18.8027 3.89795 14.6157 0.470951 10.0057 1.78395C7.09571 2.61395 5.19971 5.27595 5.19971 8.30195C5.19971 10.904 6.65471 13.1409 11.2727 17.6019" fill="#79AEFF"/>
</svg>
