<svg width="24" height="24" viewBox="0 0 24 24" fill="none" xmlns="http://www.w3.org/2000/svg">
<rect x="2" y="5" width="20" height="4" fill="#EBFAFF"/>
<path d="M3.87837 20.8847C3.4285 20.4346 3.17578 19.8243 3.17578 19.188V8.5H20.8238V19.187C20.8238 19.8233 20.5711 20.4336 20.1212 20.8837C19.6713 21.3338 19.0611 21.5867 18.4248 21.587H13.9998V17.834C13.9998 17.5688 13.8944 17.3144 13.7069 17.1269C13.5194 16.9394 13.265 16.834 12.9998 16.834H10.9998C10.7346 16.834 10.4802 16.9394 10.2927 17.1269C10.1051 17.3144 9.99978 17.5688 9.99978 17.834V21.588H5.57478C4.93843 21.5877 4.32824 21.3348 3.87837 20.8847Z" fill="#6295FF"/>
<path fill-rule="evenodd" clip-rule="evenodd" d="M21 2.5H3C2.73478 2.5 2.48043 2.60536 2.29289 2.79289C2.10536 2.98043 2 3.23478 2 3.5V5.167H22V3.5C22 3.23478 21.8946 2.98043 21.7071 2.79289C21.5196 2.60536 21.2652 2.5 21 2.5ZM2 8.5C2 8.76522 2.10536 9.01957 2.29289 9.20711C2.48043 9.39464 2.73478 9.5 3 9.5H21C21.2652 9.5 21.5196 9.39464 21.7071 9.20711C21.8946 9.01957 22 8.76522 22 8.5V6.833H2V8.5Z" fill="#1759E3"/>
</svg>
