<svg width="24" height="25" viewBox="0 0 24 25" fill="none" xmlns="http://www.w3.org/2000/svg">
<path fill-rule="evenodd" clip-rule="evenodd" d="M7.5 12.147C7.99246 12.147 8.48009 12.05 8.93506 11.8615C9.39003 11.6731 9.80343 11.3968 10.1517 11.0486C10.4999 10.7004 10.7761 10.287 10.9645 9.83204C11.153 9.37706 11.25 8.88943 11.25 8.39697C11.25 7.90452 11.153 7.41688 10.9645 6.96191C10.7761 6.50694 10.4999 6.09354 10.1517 5.74532C9.80343 5.3971 9.39003 5.12088 8.93506 4.93242C8.48009 4.74397 7.99246 4.64697 7.5 4.64697C6.50544 4.64697 5.55161 5.04206 4.84835 5.74532C4.14509 6.44858 3.75 7.40241 3.75 8.39697C3.75 9.39153 4.14509 10.3454 4.84835 11.0486C5.55161 11.7519 6.50544 12.147 7.5 12.147M8 18.328C8 17.064 8.771 15.193 10.48 13.776C9.637 13.479 8.652 13.293 7.5 13.293C2.46 13.293 0.5 16.731 0.5 18.328C0.5 19.928 4.673 20.352 7.5 20.352C7.971 20.352 8.48 20.339 9.001 20.312C8.34 19.785 8 19.125 8 18.328Z" fill="#8B95A1" fill-opacity="0.72"/>
<path fill-rule="evenodd" clip-rule="evenodd" d="M16.5 13.294C11.46 13.294 9.5 16.731 9.5 18.329C9.5 19.927 13.673 20.353 16.5 20.353C19.327 20.353 23.5 19.927 23.5 18.329C23.5 16.731 21.54 13.294 16.5 13.294ZM16.5 12.147C16.9925 12.147 17.4801 12.05 17.9351 11.8615C18.39 11.6731 18.8034 11.3968 19.1517 11.0486C19.4999 10.7004 19.7761 10.287 19.9645 9.83204C20.153 9.37706 20.25 8.88943 20.25 8.39697C20.25 7.90452 20.153 7.41688 19.9645 6.96191C19.7761 6.50694 19.4999 6.09354 19.1517 5.74532C18.8034 5.3971 18.39 5.12088 17.9351 4.93242C17.4801 4.74397 16.9925 4.64697 16.5 4.64697C15.5054 4.64697 14.5516 5.04206 13.8483 5.74532C13.1451 6.44858 12.75 7.40241 12.75 8.39697C12.75 9.39153 13.1451 10.3454 13.8483 11.0486C14.5516 11.7519 15.5054 12.147 16.5 12.147" fill="#8B95A1"/>
</svg>
