<svg width="24" height="24" viewBox="0 0 24 24" fill="none" xmlns="http://www.w3.org/2000/svg">
<path fill-rule="evenodd" clip-rule="evenodd" d="M13.3178 10.8008V5.80913C13.3178 5.6515 13.2868 5.49541 13.2266 5.34976C13.1663 5.20411 13.0779 5.07177 12.9665 4.96027C12.8551 4.84878 12.7228 4.76033 12.5772 4.69997C12.4315 4.6396 12.2755 4.60851 12.1178 4.60846C11.9602 4.60841 11.8041 4.63942 11.6585 4.69969C11.5128 4.75997 11.3805 4.84835 11.269 4.95977C11.1575 5.0712 11.069 5.2035 11.0087 5.34911C10.9483 5.49472 10.9172 5.65079 10.9172 5.80842L10.9179 10.8008L5.92474 10.8008C5.61343 10.8115 5.31842 10.9426 5.10198 11.1666C4.88553 11.3907 4.7646 11.69 4.76469 12.0015C4.76478 12.313 4.88589 12.6123 5.10247 12.8362C5.31904 13.0601 5.61413 13.191 5.92545 13.2015L10.9179 13.2008L10.9172 18.1932C10.918 18.4302 10.9889 18.6618 11.1209 18.8586C11.253 19.0555 11.4403 19.2089 11.6593 19.2996C11.8783 19.3903 12.1193 19.4142 12.3518 19.3683C12.5844 19.3224 12.7982 19.2088 12.9664 19.0417C13.1834 18.8246 13.3178 18.5248 13.3178 18.1939L13.3178 13.2008L18.3102 13.2015C18.4679 13.2017 18.624 13.1709 18.7697 13.1107C18.9154 13.0504 19.0478 12.9621 19.1593 12.8506C19.2708 12.7391 19.3592 12.6067 19.4194 12.461C19.4796 12.3153 19.5104 12.1592 19.5102 12.0015C19.5103 11.8438 19.4793 11.6876 19.419 11.5419C19.3587 11.3962 19.2702 11.2638 19.1587 11.1523C19.0472 11.0408 18.9148 10.9524 18.7691 10.8921C18.6234 10.8318 18.4672 10.8008 18.3095 10.8008L13.3178 10.8008Z" fill="white"/>
</svg>
