<svg width="24" height="25" viewBox="0 0 24 25" fill="none" xmlns="http://www.w3.org/2000/svg">
<path fill-rule="evenodd" clip-rule="evenodd" d="M13.8151 12.5001L19.4661 6.84912C19.5775 6.73769 19.666 6.6054 19.7264 6.45978C19.7867 6.31417 19.8178 6.1581 19.8179 6.00047C19.8179 5.84284 19.7869 5.68675 19.7266 5.5411C19.6664 5.39546 19.578 5.26311 19.4666 5.15162C19.3551 5.04013 19.2228 4.95167 19.0772 4.89131C18.9316 4.83094 18.7755 4.79985 18.6179 4.7998C18.4603 4.79976 18.3042 4.83076 18.1585 4.89104C18.0129 4.95132 17.8805 5.03969 17.7691 5.15112L12.1181 10.8031L6.46605 5.15112C6.23841 4.93849 5.93706 4.82263 5.62561 4.82799C5.31416 4.83335 5.01698 4.9595 4.79678 5.17983C4.57658 5.40015 4.4506 5.69741 4.44543 6.00887C4.44026 6.32032 4.5563 6.6216 4.76905 6.84912L10.4211 12.5001L4.76905 18.1511C4.60201 18.3193 4.48843 18.5331 4.4426 18.7657C4.39677 18.9983 4.42073 19.2392 4.51147 19.4582C4.60221 19.6772 4.75568 19.8645 4.95258 19.9965C5.14947 20.1285 5.381 20.1994 5.61805 20.2001C5.92505 20.2001 6.23205 20.0831 6.46605 19.8491L12.1181 14.1971L17.7691 19.8491C17.8803 19.9608 18.0126 20.0494 18.1582 20.1098C18.3038 20.1703 18.4599 20.2014 18.6176 20.2014C18.7752 20.2014 18.9313 20.1703 19.0769 20.1098C19.2225 20.0494 19.3548 19.9608 19.4661 19.8491C19.5776 19.7377 19.6661 19.6053 19.7265 19.4596C19.7869 19.314 19.818 19.1578 19.818 19.0001C19.818 18.8424 19.7869 18.6863 19.7265 18.5406C19.6661 18.3949 19.5776 18.2626 19.4661 18.1511L13.8151 12.5001Z" fill="#8B95A1"/>
</svg>
