<svg width="28" height="28" viewBox="0 0 28 28" fill="none" xmlns="http://www.w3.org/2000/svg">
<rect x="2.29688" y="2.36963" width="23.3333" height="23.3333" rx="3" fill="#B7C4D5"/>
<path fill-rule="evenodd" clip-rule="evenodd" d="M19.1198 14.4748L11.3724 19.5223C11.2869 19.5781 11.1879 19.6097 11.0858 19.6138C10.9838 19.6179 10.8826 19.5944 10.7928 19.5458C10.703 19.4971 10.6281 19.4251 10.5759 19.3374C10.5236 19.2497 10.4961 19.1494 10.4961 19.0473V8.9522C10.4961 8.8501 10.5236 8.74988 10.5759 8.66215C10.6281 8.57441 10.703 8.50241 10.7928 8.45375C10.8826 8.4051 10.9838 8.38159 11.0858 8.38572C11.1879 8.38984 11.2869 8.42145 11.3724 8.4772L19.1198 13.5248C19.1988 13.5763 19.2638 13.6467 19.3088 13.7296C19.3537 13.8126 19.3773 13.9054 19.3773 13.9998C19.3773 14.0941 19.3537 14.187 19.3088 14.2699C19.2638 14.3529 19.1988 14.4233 19.1198 14.4748Z" fill="#768FB0"/>
</svg>
