<svg width="24" height="24" viewBox="0 0 24 24" fill="none" xmlns="http://www.w3.org/2000/svg">
<path fill-rule="evenodd" clip-rule="evenodd" d="M22.3399 16.913L18.3609 13.833C18.1687 13.6847 17.9291 13.6115 17.6869 13.6272C17.4446 13.6428 17.2164 13.7462 17.0449 13.918L14.9329 16.031C14.7756 16.1899 14.5693 16.2911 14.3473 16.3181C14.1253 16.3451 13.9008 16.2965 13.7099 16.18C13.0299 15.763 11.8919 14.955 10.4679 13.53C9.04389 12.107 8.23589 10.968 7.81889 10.289C7.70226 10.0983 7.6536 9.87372 7.68083 9.65184C7.70807 9.42996 7.8096 9.22382 7.96889 9.06699L10.0809 6.95399C10.2529 6.78258 10.3564 6.55423 10.3719 6.31188C10.3873 6.06953 10.3137 5.82988 10.1649 5.63799L7.08589 1.65799C6.38589 0.754989 5.06589 0.611989 4.20589 1.36699C3.07289 2.36099 1.71189 3.84999 1.31589 5.52099C0.598894 8.53099 1.73189 12.308 6.71189 17.288C11.6919 22.267 15.4689 23.401 18.4779 22.685C20.1489 22.287 21.6389 20.925 22.6329 19.793C23.3869 18.933 23.2439 17.613 22.3399 16.913" fill="#8B95A1"/>
</svg>
