<svg width="150" height="24" viewBox="0 0 150 24" fill="none" xmlns="http://www.w3.org/2000/svg">
<g clip-path="url(#clip0_51150_24163)">
<path d="M4.99111 10.1959L3.40663 7.54203H3.27459L3.69712 10.2212V19.4212H0V1.60247H2.82565L10.4576 11.0299L11.9628 13.608H12.1213L11.6987 11.0047V1.72885H15.3958V19.5475H12.5702L4.99111 10.1959Z" fill="#2E2E2E"/>
<path d="M20.2723 3.75082H18.1596V1.72885H26.2933V3.75082H24.1806V17.3992H26.2933V19.4212H18.1596V17.3992H20.2723V3.75082Z" fill="#2E2E2E"/>
<path d="M41.0021 18.6629C40.4211 19.0505 39.6553 19.3285 38.7046 19.497C37.7539 19.6823 36.7768 19.775 35.7733 19.775C34.5937 19.775 33.4582 19.6065 32.3667 19.2695C31.2927 18.9325 30.3333 18.3933 29.4882 17.6519C28.6608 16.9105 28.0006 15.9585 27.5076 14.7959C27.0147 13.6332 26.7682 12.2263 26.7682 10.575C26.7682 8.85632 27.0499 7.41566 27.6132 6.25302C28.1766 5.07353 28.8984 4.12994 29.7787 3.42225C30.659 2.69771 31.6361 2.17537 32.71 1.85522C33.7839 1.53507 34.8402 1.375 35.8789 1.375C37.0233 1.375 37.9828 1.4424 38.7574 1.5772C39.5496 1.712 40.201 1.87207 40.7116 2.05742L39.9458 5.19148C39.5056 5.00614 38.9863 4.87134 38.3877 4.78709C37.8067 4.70284 37.0673 4.66071 36.1694 4.66071C35.3772 4.66071 34.6554 4.78709 34.004 5.03984C33.3702 5.27573 32.8244 5.638 32.3667 6.12665C31.9089 6.61529 31.548 7.23031 31.284 7.9717C31.0375 8.7131 30.9142 9.58086 30.9142 10.575C30.9142 11.4512 31.0287 12.2516 31.2575 12.9761C31.4864 13.7006 31.8297 14.3241 32.2875 14.8464C32.7452 15.3688 33.3262 15.7732 34.0304 16.0596C34.7346 16.3461 35.5532 16.4893 36.4863 16.4893C37.349 16.4893 38.0708 16.4135 38.6518 16.2618C39.2504 16.1102 39.7785 15.9164 40.2363 15.6805L41.0021 18.6629Z" fill="#2E2E2E"/>
<path d="M43.2623 1.72885H55.1723V5.01456H47.1707V8.85632H54.4329V12.142H47.1707V16.1354H55.3044V19.4212H43.2623V1.72885Z" fill="#2E2E2E"/>
<path d="M59.3711 1.59961H63.0568V7.27703H63.3728C63.794 6.81251 64.3293 6.45122 64.9787 6.19316C65.6456 5.91789 66.374 5.78025 67.1638 5.78025C68.954 5.78025 70.3142 6.3566 71.2444 7.50929C72.1922 8.64477 72.6661 10.3136 72.6661 12.5157C72.6661 13.7028 72.4906 14.7609 72.1395 15.6899C71.8061 16.619 71.3234 17.4018 70.6916 18.0383C70.0597 18.6749 69.2875 19.1652 68.3748 19.5093C67.4622 19.8362 66.4354 19.9996 65.2946 19.9996C63.9783 19.9996 62.8023 19.905 61.7668 19.7157C60.7313 19.5437 59.9327 19.3458 59.3711 19.1222V1.59961ZM63.0568 16.5932C63.4079 16.7652 63.7764 16.877 64.1626 16.9286C64.5662 16.963 64.9962 16.9803 65.4526 16.9803C67.7342 16.9803 68.875 15.5179 68.875 12.5932C68.875 11.3544 68.6381 10.4168 68.1642 9.78026C67.6903 9.12649 66.9883 8.79961 66.0581 8.79961C65.2683 8.79961 64.6277 8.98025 64.1362 9.34155C63.6623 9.70284 63.3025 10.2362 63.0568 10.9415V16.5932Z" fill="#2E2E2E"/>
<path d="M74.4772 6.11574H78.1629V19.6641H74.4772V6.11574Z" fill="#2E2E2E"/>
<path d="M79.9689 16.5932L85.7871 10.4512H85.7608L87.472 9.13509H79.9689V6.11574H91.6053V9.18671L85.8397 15.4061H85.8661L84.1285 16.6448H91.6053V19.6641H79.9689V16.5932Z" fill="#2E2E2E"/>
<path d="M102.438 19.6641V12.5932C102.438 11.2856 102.298 10.348 102.017 9.78026C101.736 9.21251 101.157 8.92864 100.279 8.92864C99.5421 8.92864 98.9542 9.10929 98.5154 9.47058C98.0766 9.81466 97.7344 10.2706 97.4886 10.8383V19.6641H93.8029V6.11574H96.6462L97.0674 7.99961H97.4097C97.6378 7.70714 97.9011 7.42327 98.1995 7.148C98.4978 6.87273 98.8225 6.63187 99.1735 6.42542C99.5421 6.21896 99.9458 6.05552 100.385 5.93509C100.841 5.79746 101.35 5.72864 101.912 5.72864C102.842 5.72864 103.614 5.93509 104.228 6.348C104.86 6.7437 105.36 7.41466 105.729 8.3609C106.238 7.53509 106.852 6.88993 107.572 6.42542C108.309 5.9609 109.16 5.72864 110.125 5.72864C110.968 5.72864 111.679 5.82327 112.258 6.01251C112.855 6.20176 113.337 6.52864 113.706 6.99316C114.074 7.45767 114.338 8.08563 114.496 8.87703C114.671 9.66843 114.759 10.6577 114.759 11.8448V19.6641H111.073V12.4125C111.073 11.8448 111.047 11.3458 110.994 10.9157C110.942 10.4856 110.836 10.1243 110.678 9.83187C110.52 9.52219 110.292 9.29853 109.994 9.1609C109.713 9.00606 109.336 8.92864 108.862 8.92864C108.125 8.92864 107.528 9.11789 107.072 9.49638C106.633 9.85767 106.317 10.3652 106.124 11.019V19.6641H102.438Z" fill="#2E2E2E"/>
<path d="M117.616 7.04477C118.406 6.70069 119.371 6.41681 120.512 6.19316C121.671 5.9695 122.864 5.85767 124.093 5.85767C125.058 5.85767 125.865 5.9695 126.515 6.19316C127.182 6.41681 127.708 6.7437 128.094 7.1738C128.481 7.58671 128.753 8.09423 128.911 8.69638C129.086 9.28133 129.174 9.93509 129.174 10.6577C129.174 11.5351 129.139 12.4039 129.068 13.2641C128.998 14.1243 128.963 15.0362 128.963 15.9996C128.963 16.6534 129.007 17.2899 129.095 17.9093C129.183 18.5286 129.323 19.1222 129.516 19.6899H126.515L125.909 17.677H125.593C125.137 18.2792 124.558 18.7953 123.856 19.2254C123.154 19.6555 122.25 19.8706 121.144 19.8706C120.477 19.8706 119.863 19.776 119.301 19.5867C118.757 19.3975 118.283 19.1308 117.88 18.7867C117.494 18.4254 117.186 18.0039 116.958 17.5222C116.748 17.0405 116.642 16.5157 116.642 15.948C116.642 14.4168 117.16 13.2641 118.196 12.4899C119.249 11.6985 120.837 11.3028 122.961 11.3028C123.452 11.3028 123.944 11.3458 124.435 11.4319C124.926 11.5007 125.269 11.5523 125.462 11.5867C125.514 11.2254 125.541 10.9157 125.541 10.6577C125.541 10.0039 125.374 9.52219 125.041 9.21251C124.707 8.90283 124.084 8.748 123.171 8.748C122.329 8.748 121.504 8.85122 120.697 9.05767C119.907 9.24692 119.205 9.48778 118.59 9.78026L117.616 7.04477ZM122.434 16.9803C123.259 16.9803 123.917 16.791 124.409 16.4125C124.9 16.034 125.26 15.6383 125.488 15.2254V13.677C125.4 13.6426 125.26 13.6082 125.067 13.5738C124.891 13.5394 124.689 13.505 124.461 13.4706C124.251 13.4362 124.031 13.4104 123.803 13.3932C123.593 13.376 123.399 13.3674 123.224 13.3674C122.276 13.3674 121.574 13.5394 121.118 13.8835C120.661 14.2104 120.433 14.6233 120.433 15.1222C120.433 15.7415 120.609 16.2061 120.96 16.5157C121.328 16.8254 121.82 16.9803 122.434 16.9803Z" fill="#2E2E2E"/>
<path d="M131.774 6.11574H134.407L134.854 7.79316H135.17C135.714 7.10499 136.346 6.58886 137.066 6.24477C137.785 5.90068 138.628 5.72864 139.593 5.72864C141.453 5.72864 142.849 6.27918 143.779 7.38025C144.709 8.46413 145.174 10.1932 145.174 12.5674C145.174 13.7028 145.025 14.7351 144.727 15.6641C144.428 16.576 143.989 17.3673 143.41 18.0383C142.831 18.6921 142.112 19.1996 141.252 19.5609C140.409 19.905 139.435 20.077 138.329 20.077C137.733 20.077 137.215 20.0168 136.776 19.8964C136.337 19.7932 135.898 19.6469 135.46 19.4577V24.7996H131.774V6.11574ZM138.461 8.748C137.618 8.748 136.969 8.93724 136.513 9.31574C136.056 9.67703 135.705 10.2448 135.46 11.019V16.2835C135.758 16.5243 136.091 16.7136 136.46 16.8512C136.829 16.9889 137.294 17.0577 137.855 17.0577C139.049 17.0577 139.935 16.6964 140.514 15.9738C141.094 15.234 141.383 14.0641 141.383 12.4641C141.383 11.3114 141.155 10.4082 140.699 9.75445C140.26 9.08348 139.514 8.748 138.461 8.748Z" fill="#2E2E2E"/>
<ellipse cx="76.323" cy="3.34961" rx="1.77909" ry="1.75" fill="#2E2E2E"/>
<ellipse cx="147.421" cy="3.78939" rx="2.22619" ry="2.18978" fill="#2273EF"/>
</g>
<defs>
<clipPath id="clip0_51150_24163">
<rect width="149.647" height="24" fill="white"/>
</clipPath>
</defs>
</svg>
