<svg width="120" height="19" viewBox="0 0 120 19" fill="none" xmlns="http://www.w3.org/2000/svg">
<g clip-path="url(#clip0_3_2317)">
<path d="M12.8495 0.810125H9.63714V10.3969L3.6407 0.810125H0V14.5634H3.23185V4.99591L9.22829 14.5634H12.8495V0.810125Z" fill="#000349"/>
<path d="M14.5784 14.5634H18.0634V0.810125H14.5784V14.5634Z" fill="#000349"/>
<path d="M30.4721 9.64464C30.1411 11.0913 28.642 12.0944 26.8314 12.0944C24.3783 12.0944 22.6456 10.2812 22.6456 7.69642C22.6456 5.07307 24.3588 3.25987 26.8509 3.27916C28.642 3.29845 30.1411 4.28221 30.4721 5.80606H33.2951V3.99287C32.2243 1.87104 29.4792 0.327892 26.7341 0.327892C22.3535 0.327892 19.1606 3.43348 19.1606 7.69642C19.1606 11.9594 22.3535 15.0457 26.7341 15.0457C29.4792 15.0457 32.2243 13.5411 33.2951 11.4771V9.64464H30.4721Z" fill="#000349"/>
<path d="M44.4681 14.5634V11.805H37.8487V8.71875H43.4947V6.32688H37.8487V3.5685H44.2734V0.810125H34.5V14.5634H44.4681Z" fill="#000349"/>
<path d="M48.0445 0.231445V9.99185C48.0445 12.866 50.3029 14.9492 53.4374 14.9492C56.6887 14.9492 59.0444 12.7116 59.0444 9.62535C59.0444 6.53906 56.9028 4.28221 53.9825 4.28221C52.8533 4.28221 51.8604 4.68728 51.14 5.36241V0.231445H48.0445ZM55.9489 9.62535C55.9489 11.1492 54.917 12.2487 53.4763 12.2487C52.0551 12.2487 51.0232 11.1492 51.0232 9.62535C51.0232 8.08221 52.0551 6.98271 53.4763 6.98271C54.917 6.98271 55.9489 8.08221 55.9489 9.62535Z" fill="#000349"/>
<path d="M60 14.5635H63.0956V4.66802H60V14.5635ZM59.7664 1.71675C59.7664 2.70051 60.5062 3.41421 61.538 3.41421C62.5894 3.41421 63.3292 2.70051 63.3292 1.71675C63.3292 0.713706 62.5894 0 61.538 0C60.5062 0 59.7664 0.713706 59.7664 1.71675Z" fill="#000349"/>
<path d="M64.6733 4.66799V7.17561H69.4043L64.4786 12.5573V14.5634H73.8042V12.0558H68.9759L73.6095 6.67408V4.66799H64.6733Z" fill="#000349"/>
<path d="M78.3018 4.66799H75.323V14.5634H78.4186V8.95023C78.4186 7.77358 79.1 6.98271 80.1513 6.98271C81.1637 6.98271 81.8257 7.77358 81.8257 8.95023V14.5634H84.9212V8.95023C84.9212 7.79287 85.6416 6.98271 86.7124 6.98271C87.7637 7.02129 88.4646 7.85073 88.4646 8.95023V14.5634H91.5602V8.29439C91.5602 5.94109 90.0026 4.3015 87.7442 4.3015C86.3814 4.3015 85.0381 4.95733 84.415 6.03754C83.831 4.95733 82.6628 4.28221 81.2221 4.28221C80.0151 4.28221 78.9053 4.86089 78.3018 5.86393V4.66799Z" fill="#000349"/>
<path d="M98.5984 4.28221C95.3471 4.28221 93.0498 6.51977 93.0498 9.62535C93.0498 12.7695 95.0551 14.9492 97.9559 14.9492C99.3382 14.9492 100.526 14.3898 101.344 13.3868V14.5634H104.186V9.62535C104.186 6.51977 101.85 4.28221 98.5984 4.28221ZM98.6179 6.98271C100.059 6.98271 101.09 8.08221 101.09 9.62535C101.09 11.1492 100.059 12.2487 98.6179 12.2487C97.1772 12.2487 96.1453 11.1492 96.1453 9.62535C96.1453 8.08221 97.1772 6.98271 98.6179 6.98271Z" fill="#000349"/>
<path d="M108.814 19V13.869C109.535 14.5441 110.528 14.9492 111.657 14.9492C114.577 14.9492 116.719 12.7116 116.719 9.62535C116.719 6.53906 114.363 4.28221 111.112 4.28221C107.977 4.28221 105.719 6.36545 105.719 9.23957V19H108.814ZM113.623 9.62535C113.623 11.1492 112.591 12.2487 111.151 12.2487C109.729 12.2487 108.698 11.1492 108.698 9.62535C108.698 8.08221 109.729 6.98271 111.151 6.98271C112.591 6.98271 113.623 8.08221 113.623 9.62535Z" fill="#000349"/>
<circle cx="118.3" cy="1.7" r="1.7" fill="#2273EF"/>
</g>
<defs>
<clipPath id="clip0_3_2317">
<rect width="120" height="19" fill="white"/>
</clipPath>
</defs>
</svg>
