<svg width="17" height="17" viewBox="0 0 17 17" fill="none" xmlns="http://www.w3.org/2000/svg">
<circle cx="8.46094" cy="8.45312" r="7.5" fill="#1573FF" stroke="white"/>
<path d="M5.89227 11.9218V10.8718L8.59227 8.32176C8.8056 8.12842 8.96227 7.95509 9.06227 7.80176C9.16227 7.64842 9.22893 7.50842 9.26227 7.38176C9.30227 7.25509 9.32227 7.13842 9.32227 7.03176C9.32227 6.75176 9.2256 6.53842 9.03227 6.39176C8.8456 6.23842 8.56893 6.16176 8.20227 6.16176C7.90893 6.16176 7.6356 6.21842 7.38227 6.33176C7.1356 6.44509 6.9256 6.62176 6.75227 6.86176L5.57227 6.10176C5.83893 5.70176 6.21227 5.38509 6.69227 5.15176C7.17227 4.91842 7.7256 4.80176 8.35227 4.80176C8.87227 4.80176 9.3256 4.88842 9.71227 5.06176C10.1056 5.22842 10.4089 5.46509 10.6223 5.77176C10.8423 6.07842 10.9523 6.44509 10.9523 6.87176C10.9523 7.09842 10.9223 7.32509 10.8623 7.55176C10.8089 7.77176 10.6956 8.00509 10.5223 8.25176C10.3556 8.49842 10.1089 8.77509 9.78227 9.08176L7.54227 11.1918L7.23227 10.6018H11.1823V11.9218H5.89227Z" fill="white"/>
</svg>
