<svg width="17" height="17" viewBox="0 0 17 17" fill="none" xmlns="http://www.w3.org/2000/svg">
<circle cx="8.53906" cy="8.45312" r="7.5" fill="#F5AC1E" stroke="white"/>
<path d="M8.28377 12.0419C7.7971 12.0419 7.31377 11.9785 6.83377 11.8519C6.36044 11.7185 5.95377 11.5319 5.61377 11.2919L6.25377 10.0519C6.52044 10.2452 6.8271 10.3985 7.17377 10.5119C7.5271 10.6252 7.88377 10.6819 8.24377 10.6819C8.65044 10.6819 8.97044 10.6019 9.20377 10.4419C9.4371 10.2819 9.55377 10.0585 9.55377 9.77188C9.55377 9.59188 9.5071 9.43188 9.41377 9.29188C9.32044 9.15188 9.15377 9.04521 8.91377 8.97188C8.68044 8.89854 8.35044 8.86188 7.92377 8.86188H6.13377L6.49377 4.92188H10.7638V6.22187H7.07377L7.91377 5.48187L7.66377 8.29188L6.82377 7.55188H8.30377C8.9971 7.55188 9.55377 7.64854 9.97377 7.84188C10.4004 8.02854 10.7104 8.28521 10.9038 8.61188C11.0971 8.93854 11.1938 9.30854 11.1938 9.72188C11.1938 10.1352 11.0904 10.5185 10.8838 10.8719C10.6771 11.2185 10.3571 11.5019 9.92377 11.7219C9.4971 11.9352 8.95044 12.0419 8.28377 12.0419Z" fill="white"/>
</svg>
