<svg width="17" height="17" viewBox="0 0 17 17" fill="none" xmlns="http://www.w3.org/2000/svg">
<circle cx="8.46094" cy="8.45312" r="7.5" fill="#01AEA4" stroke="white"/>
<path d="M8.2032 12.0419C7.71654 12.0419 7.2332 11.9785 6.7532 11.8519C6.2732 11.7185 5.86654 11.5319 5.5332 11.2919L6.1632 10.0519C6.42987 10.2452 6.73987 10.3985 7.0932 10.5119C7.44654 10.6252 7.8032 10.6819 8.1632 10.6819C8.56987 10.6819 8.88987 10.6019 9.1232 10.4419C9.35654 10.2819 9.4732 10.0619 9.4732 9.78188C9.4732 9.51521 9.36987 9.30521 9.1632 9.15188C8.95654 8.99854 8.6232 8.92188 8.1632 8.92188H7.4232V7.85188L9.3732 5.64188L9.5532 6.22187H5.8832V4.92188H10.7832V5.97188L8.8432 8.18188L8.0232 7.71187H8.4932C9.3532 7.71187 10.0032 7.90521 10.4432 8.29188C10.8832 8.67854 11.1032 9.17521 11.1032 9.78188C11.1032 10.1752 10.9999 10.5452 10.7932 10.8919C10.5865 11.2319 10.2699 11.5085 9.8432 11.7219C9.41654 11.9352 8.86987 12.0419 8.2032 12.0419Z" fill="white"/>
</svg>
