<svg width="17" height="18" viewBox="0 0 17 18" fill="none" xmlns="http://www.w3.org/2000/svg">
<circle cx="8.99316" cy="8.5" r="7.5" fill="#1573FF" stroke="white"/>
<path d="M6.42449 11.9686V10.9186L9.12449 8.36863C9.33783 8.1753 9.49449 8.00197 9.59449 7.84863C9.69449 7.6953 9.76116 7.5553 9.79449 7.42863C9.83449 7.30197 9.85449 7.1853 9.85449 7.07863C9.85449 6.79863 9.75783 6.5853 9.56449 6.43863C9.37783 6.2853 9.10116 6.20863 8.73449 6.20863C8.44116 6.20863 8.16783 6.2653 7.91449 6.37863C7.66783 6.49197 7.45783 6.66863 7.28449 6.90863L6.10449 6.14863C6.37116 5.74863 6.74449 5.43197 7.22449 5.19863C7.70449 4.9653 8.25783 4.84863 8.88449 4.84863C9.40449 4.84863 9.85783 4.9353 10.2445 5.10863C10.6378 5.2753 10.9412 5.51197 11.1545 5.81863C11.3745 6.1253 11.4845 6.49197 11.4845 6.91863C11.4845 7.1453 11.4545 7.37197 11.3945 7.59863C11.3412 7.81863 11.2278 8.05197 11.0545 8.29863C10.8878 8.5453 10.6412 8.82197 10.3145 9.12863L8.07449 11.2386L7.76449 10.6486H11.7145V11.9686H6.42449Z" fill="white"/>
<rect x="8.99316" y="14.5938" width="2.07549" height="2.07549" transform="rotate(45 8.99316 14.5938)" fill="white"/>
<rect x="8.99316" y="12.3594" width="2.92787" height="2.92787" transform="rotate(45 8.99316 12.3594)" fill="#1573FF"/>
</svg>
