<svg width="17" height="18" viewBox="0 0 17 18" fill="none" xmlns="http://www.w3.org/2000/svg">
<circle cx="8.53906" cy="8.5" r="7.5" fill="#F5AC1E" stroke="white"/>
<path d="M8.36189 12.0888C7.87523 12.0888 7.39189 12.0254 6.91189 11.8988C6.43856 11.7654 6.03189 11.5788 5.69189 11.3388L6.33189 10.0988C6.59856 10.2921 6.90523 10.4454 7.25189 10.5588C7.60523 10.6721 7.96189 10.7288 8.32189 10.7288C8.72856 10.7288 9.04856 10.6488 9.28189 10.4888C9.51523 10.3288 9.63189 10.1054 9.63189 9.81875C9.63189 9.63875 9.58523 9.47875 9.49189 9.33875C9.39856 9.19875 9.23189 9.09208 8.99189 9.01875C8.75856 8.94542 8.42856 8.90875 8.00189 8.90875H6.21189L6.57189 4.96875H10.8419V6.26875H7.15189L7.99189 5.52875L7.74189 8.33875L6.90189 7.59875H8.38189C9.07523 7.59875 9.63189 7.69542 10.0519 7.88875C10.4786 8.07542 10.7886 8.33208 10.9819 8.65875C11.1752 8.98542 11.2719 9.35542 11.2719 9.76875C11.2719 10.1821 11.1686 10.5654 10.9619 10.9188C10.7552 11.2654 10.4352 11.5488 10.0019 11.7688C9.57523 11.9821 9.02856 12.0888 8.36189 12.0888Z" fill="white"/>
<rect x="8.53906" y="14.5938" width="2.07549" height="2.07549" transform="rotate(45 8.53906 14.5938)" fill="white"/>
<rect x="8.53906" y="12.3594" width="2.92787" height="2.92787" transform="rotate(45 8.53906 12.3594)" fill="#F5AC1E"/>
</svg>
