<svg width="17" height="18" viewBox="0 0 17 18" fill="none" xmlns="http://www.w3.org/2000/svg">
<circle cx="8.99316" cy="8.5" r="7.5" fill="#01AEA4" stroke="white"/>
<path d="M8.73543 12.0888C8.24876 12.0888 7.76543 12.0254 7.28543 11.8988C6.80543 11.7654 6.39876 11.5788 6.06543 11.3388L6.69543 10.0988C6.9621 10.2921 7.2721 10.4454 7.62543 10.5588C7.97876 10.6721 8.33543 10.7288 8.69543 10.7288C9.1021 10.7288 9.4221 10.6488 9.65543 10.4888C9.88876 10.3288 10.0054 10.1088 10.0054 9.82875C10.0054 9.56208 9.9021 9.35208 9.69543 9.19875C9.48876 9.04542 9.15543 8.96875 8.69543 8.96875H7.95543V7.89875L9.90543 5.68875L10.0854 6.26875H6.41543V4.96875H11.3154V6.01875L9.37543 8.22875L8.55543 7.75875H9.02543C9.88543 7.75875 10.5354 7.95208 10.9754 8.33875C11.4154 8.72542 11.6354 9.22208 11.6354 9.82875C11.6354 10.2221 11.5321 10.5921 11.3254 10.9388C11.1188 11.2788 10.8021 11.5554 10.3754 11.7688C9.94876 11.9821 9.4021 12.0888 8.73543 12.0888Z" fill="white"/>
<rect x="8.99316" y="14.5938" width="2.07549" height="2.07549" transform="rotate(45 8.99316 14.5938)" fill="white"/>
<rect x="8.99316" y="12.3594" width="2.92787" height="2.92787" transform="rotate(45 8.99316 12.3594)" fill="#01AEA4"/>
</svg>
