<svg width="139" height="22" viewBox="0 0 139 22" fill="none" xmlns="http://www.w3.org/2000/svg">
<g clip-path="url(#clip0_3_2317)">
<path d="M14.8257 1.93804C14.8257 1.38575 14.3779 0.938039 13.8257 0.938039H12.1061C11.5538 0.938039 11.1061 1.38575 11.1061 1.93804V12.0385L4.4566 1.40774C4.27383 1.11553 3.95346 0.938039 3.60879 0.938039H0.947266C0.394981 0.938039 -0.0527344 1.38575 -0.0527344 1.93804V15.8629C-0.0527344 16.4152 0.394981 16.8629 0.947266 16.8629H2.68941C3.24169 16.8629 3.68941 16.4152 3.68941 15.8629V5.78474L10.3388 16.394C10.5216 16.6857 10.8417 16.8629 11.1861 16.8629H13.8257C14.3779 16.8629 14.8257 16.4152 14.8257 15.8629V1.93804Z" fill="#262626"/>
<path d="M16.8276 15.8629C16.8276 16.4152 17.2753 16.8629 17.8276 16.8629H19.8628C20.4151 16.8629 20.8628 16.4152 20.8628 15.8629V1.93804C20.8628 1.38575 20.4151 0.938039 19.8628 0.938039H17.8276C17.2753 0.938039 16.8276 1.38575 16.8276 1.93804V15.8629Z" fill="#262626"/>
<path d="M36.0278 11.1675C35.5615 11.1675 35.1712 11.4998 34.9555 11.9133C34.2957 13.1775 32.7838 14.004 31.0152 14.004C28.1748 14.004 26.1685 11.9045 26.1685 8.91164C26.1685 5.87408 28.1522 3.77459 31.0377 3.79692C32.7965 3.81586 34.3121 4.63793 34.9659 5.96344C35.174 6.38541 35.5664 6.72281 36.0369 6.72281H37.4995C38.0518 6.72281 38.4995 6.2751 38.4995 5.72281V4.86135C38.4995 4.70485 38.4641 4.54982 38.3878 4.41317C37.0769 2.06523 33.9897 0.379664 30.9025 0.379664C25.8303 0.379664 22.1333 3.9756 22.1333 8.91164C22.1333 13.8477 25.8303 17.4213 30.9025 17.4213C33.9854 17.4213 37.0683 15.7824 38.3823 13.5033C38.4624 13.3644 38.4995 13.2056 38.4995 13.0453V12.1675C38.4995 11.6152 38.0518 11.1675 37.4995 11.1675H36.0278Z" fill="#262626"/>
<path d="M50.4367 16.8629C50.9889 16.8629 51.4367 16.4152 51.4367 15.8629V14.669C51.4367 14.1167 50.9889 13.669 50.4367 13.669H43.772V10.0954H49.3095C49.8618 10.0954 50.3095 9.64768 50.3095 9.0954V8.32586C50.3095 7.77357 49.8618 7.32586 49.3095 7.32586H43.772V4.13195H50.2112C50.7635 4.13195 51.2112 3.68423 51.2112 3.13195V1.93804C51.2112 1.38575 50.7635 0.938039 50.2112 0.938039H40.8946C40.3424 0.938039 39.8946 1.38575 39.8946 1.93804V15.8629C39.8946 16.4152 40.3424 16.8629 40.8946 16.8629H50.4367Z" fill="#262626"/>
<path d="M56.5777 0.267989C56.0254 0.267989 55.5777 0.715705 55.5777 1.26799V11.5695C55.5777 14.8974 58.1927 17.3096 61.8221 17.3096C65.5868 17.3096 68.3145 14.7188 68.3145 11.1451C68.3145 7.57154 65.8348 4.95834 62.4533 4.95834C61.1458 4.95834 59.9961 5.42738 59.162 6.20911V1.26799C59.162 0.715704 58.7143 0.267989 58.162 0.267989H56.5777ZM64.7302 11.1451C64.7302 12.9096 63.5354 14.1827 61.8672 14.1827C60.2215 14.1827 59.0268 12.9096 59.0268 11.1451C59.0268 9.35834 60.2215 8.08525 61.8672 8.08525C63.5354 8.08525 64.7302 9.35834 64.7302 11.1451Z" fill="#262626"/>
<path d="M69.421 15.8629C69.421 16.4152 69.8687 16.8629 70.421 16.8629H72.0053C72.5576 16.8629 73.0053 16.4152 73.0053 15.8629V6.40508C73.0053 5.85279 72.5576 5.40508 72.0053 5.40508H70.421C69.8687 5.40508 69.421 5.85279 69.421 6.40508V15.8629ZM69.1504 1.98782C69.1504 3.1269 70.0071 3.9533 71.2018 3.9533C72.4192 3.9533 73.2758 3.1269 73.2758 1.98782C73.2758 0.826396 72.4192 0 71.2018 0C70.0071 0 69.1504 0.826396 69.1504 1.98782Z" fill="#262626"/>
<path d="M75.8321 5.40505C75.2798 5.40505 74.8321 5.85276 74.8321 6.40505V7.3086C74.8321 7.86088 75.2798 8.3086 75.8321 8.3086H80.3101L74.869 14.2535C74.7003 14.4378 74.6067 14.6787 74.6067 14.9286V15.8629C74.6067 16.4152 75.0544 16.8629 75.6067 16.8629H84.4048C84.9571 16.8629 85.4048 16.4152 85.4048 15.8629V14.9594C85.4048 14.4071 84.9571 13.9594 84.4048 13.9594H79.8141L84.9372 8.00917C85.0934 7.8277 85.1794 7.59618 85.1794 7.3567V6.40504C85.1794 5.85276 84.7317 5.40505 84.1794 5.40505H75.8321Z" fill="#262626"/>
<path d="M90.6125 6.40505C90.6125 5.85276 90.1648 5.40505 89.6125 5.40505H88.1634C87.6111 5.40505 87.1634 5.85276 87.1634 6.40505V15.8629C87.1634 16.4152 87.6111 16.8629 88.1634 16.8629H89.7477C90.3 16.8629 90.7477 16.4152 90.7477 15.8629V10.3634C90.7477 9.00098 91.5368 8.08525 92.7541 8.08525C93.9263 8.08525 94.6928 9.00098 94.6928 10.3634V15.8629C94.6928 16.4152 95.1405 16.8629 95.6928 16.8629H97.2771C97.8294 16.8629 98.2771 16.4152 98.2771 15.8629V10.3634C98.2771 9.02332 99.1112 8.08525 100.351 8.08525C101.568 8.12992 102.38 9.09032 102.38 10.3634V15.8629C102.38 16.4152 102.828 16.8629 103.38 16.8629H104.964C105.517 16.8629 105.964 16.4152 105.964 15.8629V9.60403C105.964 6.87916 104.161 4.98068 101.546 4.98068C99.9678 4.98068 98.4124 5.74007 97.691 6.99083C97.0147 5.74007 95.6621 4.95834 93.9939 4.95834C92.5963 4.95834 91.3113 5.62839 90.6125 6.78982V6.40505Z" fill="#262626"/>
<path d="M114.114 4.95834C110.349 4.95834 107.689 7.54921 107.689 11.1451C107.689 14.7858 110.011 17.3096 113.37 17.3096C114.97 17.3096 116.346 16.6619 117.292 15.5005V15.8629C117.292 16.4152 117.74 16.8629 118.292 16.8629H119.584C120.136 16.8629 120.584 16.4152 120.584 15.8629V11.1451C120.584 7.54921 117.879 4.95834 114.114 4.95834ZM114.136 8.08525C115.805 8.08525 116.999 9.35834 116.999 11.1451C116.999 12.9096 115.805 14.1827 114.136 14.1827C112.468 14.1827 111.273 12.9096 111.273 11.1451C111.273 9.35834 112.468 8.08525 114.136 8.08525Z" fill="#262626"/>
<path d="M124.943 22C125.495 22 125.943 21.5523 125.943 21V16.0589C126.777 16.8406 127.927 17.3096 129.234 17.3096C132.616 17.3096 135.095 14.7188 135.095 11.1451C135.095 7.57154 132.368 4.95834 128.603 4.95834C124.973 4.95834 122.358 7.37053 122.358 10.6984V21C122.358 21.5523 122.806 22 123.358 22H124.943ZM131.511 11.1451C131.511 12.9096 130.316 14.1827 128.648 14.1827C127.002 14.1827 125.808 12.9096 125.808 11.1451C125.808 9.35834 127.002 8.08525 128.648 8.08525C130.316 8.08525 131.511 9.35834 131.511 11.1451Z" fill="#262626"/>
<ellipse cx="136.926" cy="1.96842" rx="1.96842" ry="1.96842" fill="#1F67FD"/>
</g>
<defs>
<clipPath id="clip0_3_2317">
<rect width="138.947" height="22" fill="white"/>
</clipPath>
</defs>
</svg>
