<svg width="48" height="48" viewBox="0 0 48 48" fill="none" xmlns="http://www.w3.org/2000/svg">
<path fill-rule="evenodd" clip-rule="evenodd" d="M34.2211 2.70353C34.4172 2.50937 34.6826 2.40039 34.9593 2.40039C35.2354 2.40039 35.5002 2.50956 35.6954 2.70388C35.8907 2.8982 36.0004 3.16176 36.0004 3.43657V14.4224C36.0004 15.5982 34.8738 17.4092 32.4469 17.8835L33.5998 44.4004V44.4008C33.5996 45.0633 33.0624 45.6004 32.3998 45.6004H29.9998C29.3372 45.6004 28.8 45.0633 28.7998 44.4008V44.4004L29.9527 17.8843C27.5188 17.4061 26.4004 15.5611 26.4004 14.4224V3.43657C26.42 3.17432 26.5385 2.92914 26.7321 2.75021C26.9257 2.57128 27.1802 2.47184 27.4444 2.47184C27.7086 2.47184 27.963 2.57128 28.1567 2.75021C28.3503 2.92914 28.4688 3.17432 28.4883 3.43657V11.1078C28.4883 11.8921 30.1564 11.9379 30.1564 11.1078V3.43657C30.176 3.17432 30.2945 2.92914 30.4881 2.75021C30.6817 2.57128 30.9362 2.47184 31.2004 2.47184C31.4646 2.47184 31.719 2.57128 31.9127 2.75021C32.1063 2.92914 32.2248 3.17432 32.2444 3.43657V11.1078C32.2444 11.8463 33.9124 11.8005 33.9124 11.1078V3.43657C33.9139 3.16123 34.0249 2.89769 34.2211 2.70353ZM21.6 10.1975C21.6 13.8105 20.0903 16.8511 18.0412 17.7385L19.2004 44.4004C19.2004 44.4005 19.2004 44.4007 19.2004 44.4008C19.2002 45.0633 18.663 45.6004 18.0004 45.6004H15.6004C14.9378 45.6004 14.4006 45.0633 14.4004 44.4008C14.4004 44.4007 14.4004 44.4005 14.4004 44.4004L15.5597 17.7357C13.5126 16.8461 12 13.8152 12 10.1975C12 5.87781 14.1468 2.40039 16.8 2.40039C19.4531 2.40039 21.6 5.90057 21.6 10.1975Z" fill="#76869B"/>
</svg>
