<svg width="48" height="49" viewBox="0 0 48 49" fill="none" xmlns="http://www.w3.org/2000/svg">
<g clip-path="url(#clip0_51173_17858)">
<path d="M2.40039 40.723V43.7016H45.6004V40.723C45.5998 40.4598 45.5005 40.2075 45.3241 40.0212C45.1476 39.8349 44.9082 39.7296 44.6584 39.7284H41.5267V25.992H43.6476L33.1932 10.1016H14.8101L12.0466 14.2252V10.1016H7.96167V20.2893L4.13197 25.9871H5.86158V39.7235H3.34686C3.22237 39.7235 3.09922 39.7495 2.98424 39.7997C2.86926 39.85 2.76463 39.9236 2.67671 40.0165C2.5888 40.1093 2.51922 40.2195 2.47179 40.3407C2.42437 40.4619 2.40009 40.5918 2.40039 40.723ZM23.3763 39.7284V24.7064L31.4844 12.6437L39.01 24.0829V39.7309H33.5893V29.6329H29.0251V39.7284H23.3763ZM8.29309 39.7284V25.992H20.8642V39.7284H8.29309Z" fill="#2273EF"/>
</g>
<defs>
<clipPath id="clip0_51173_17858">
<rect width="43.2" height="36.0014" fill="white" transform="translate(2.40039 7.69922)"/>
</clipPath>
</defs>
</svg>
