<svg width="48" height="49" viewBox="0 0 48 49" fill="none" xmlns="http://www.w3.org/2000/svg">
<path d="M15.998 21.6755L16.0531 18.9707H11.7764L11.8314 21.6755H15.998Z" fill="#2273EF"/>
<path d="M23.3881 14.6758H21.4199L21.4873 17.9589H26.4481L26.5152 14.6758H23.3951H23.3881Z" fill="#2273EF"/>
<path d="M16.1753 17.3172L16.833 13.3091C16.8201 12.6512 16.5804 12.018 16.1545 11.5164C15.7286 11.0148 15.1425 10.6756 14.4954 10.5563V10.5732L14.409 10.5563C14.0861 10.489 13.7528 10.489 13.4299 10.5563H13.3435C12.6981 10.6748 12.1134 11.012 11.6876 11.5113C11.2618 12.0105 11.021 12.6412 11.0059 13.2972L11.6633 17.3195L16.1753 17.3172Z" fill="#2273EF"/>
<path d="M23.3825 12.9376H26.6295L27.4 8.23837C27.383 7.44465 27.0873 6.68224 26.5647 6.08461C26.0421 5.48697 25.3259 5.09222 24.5415 4.96957V4.98641C24.1599 4.90817 23.7665 4.90817 23.3849 4.98641V4.96957C22.6003 5.09177 21.8837 5.48629 21.361 6.08402C20.8384 6.68175 20.5428 7.44451 20.5264 8.23837L21.2945 12.9376H23.3825Z" fill="#2273EF"/>
<path d="M36.3357 17.3176L36.9932 13.2951C36.9785 12.639 36.7379 12.0082 36.312 11.5089C35.8862 11.0096 35.3011 10.6724 34.6556 10.5544H34.5691C34.2462 10.4871 33.913 10.4871 33.59 10.5544L33.5036 10.5711V10.5544C32.8563 10.6733 32.27 11.0122 31.8439 11.5138C31.4179 12.0155 31.1784 12.6491 31.166 13.3071L31.8237 17.3151L36.3357 17.3176Z" fill="#2273EF"/>
<path d="M36.1677 21.6755L36.223 18.9707H31.9463L32.0014 21.6755H36.1677Z" fill="#2273EF"/>
<path d="M31.7198 23.3322C31.6022 23.4858 31.3717 23.8002 31.0885 24.249C31.9048 26.537 32.3236 28.9479 32.3269 31.3771C32.3604 34.936 31.6125 38.4588 30.1357 41.6971C30.9445 43.3195 31.7943 44.061 32.2671 44.061H35.8908C36.4332 44.061 37.4151 43.0891 38.2431 41.229C39.2776 38.7503 39.7937 36.086 39.7598 33.4002C39.7391 29.7747 38.5769 26.2479 36.4381 23.3203L31.7198 23.3322Z" fill="#2273EF"/>
<path d="M16.8671 24.1816C16.6031 23.7688 16.3871 23.4784 16.2791 23.332H11.5606C9.42209 26.2597 8.25984 29.7866 8.2389 33.4121C8.20473 36.0976 8.72034 38.7618 9.75355 41.2409C10.5815 43.1009 11.5655 44.0729 12.1055 44.0729H15.7295C16.1951 44.0729 17.0301 43.3529 17.8269 41.7737C16.3269 38.5182 15.567 34.9707 15.6021 31.3865C15.6056 28.93 16.0337 26.4925 16.8671 24.1816Z" fill="#2273EF"/>
<path d="M26.7242 19.6953H21.2041C18.7207 23.0863 17.368 27.1731 17.3378 31.3761C17.2984 34.4793 17.8946 37.5576 19.0897 40.4217C20.1025 42.6969 21.2497 43.7312 21.8761 43.7312H26.0498C26.681 43.7312 27.821 42.6945 28.8362 40.4217C30.0297 37.5572 30.6251 34.479 30.5858 31.3761C30.5574 27.1736 29.2063 23.0867 26.7242 19.6953Z" fill="#2273EF"/>
</svg>
