<svg width="48" height="49" viewBox="0 0 48 49" fill="none" xmlns="http://www.w3.org/2000/svg">
<g clip-path="url(#clip0_51174_17401)">
<path d="M4.0781 15.3694C2.80381 16.9777 2.2192 19.0256 2.45271 21.0642C2.68621 23.1027 3.71886 24.9654 5.3238 26.2439L22.7836 40.1158C24.3929 41.3692 26.432 41.9368 28.4575 41.6949C30.483 41.453 32.3311 40.4213 33.6 38.8241C34.8689 37.2269 35.4559 35.1934 35.2336 33.1657C35.0112 31.138 33.9975 29.28 32.4126 27.9958L14.9525 14.1239C13.3445 12.849 11.2965 12.2641 9.25779 12.4976C7.21905 12.7311 5.35614 13.764 4.0781 15.3694ZM6.19011 17.2367L7.25798 18.0838C6.70953 18.7758 6.45011 19.6531 6.53376 20.5321C6.61741 21.4111 7.03768 22.2237 7.70681 22.7999L6.85954 23.8679C5.90728 23.0668 5.30468 21.9261 5.17966 20.688C5.05464 19.4499 5.41722 18.2119 6.19011 17.2367V17.2367ZM30.67 30.1966C31.6929 31.0091 32.3511 32.1948 32.4999 33.4926C32.6486 34.7905 32.2759 36.0942 31.4634 37.1171C30.6508 38.14 29.4653 38.7981 28.1675 38.9468C26.8696 39.0956 25.5657 38.7228 24.5428 37.9103L15.8141 30.9743L21.9413 23.2607L30.67 30.1966Z" fill="#2273EF"/>
<path d="M29.914 11.8164C28.9213 13.5257 28.577 15.5352 28.9437 17.4776C29.3104 19.42 30.3637 21.1656 31.9112 22.3954C33.4587 23.6252 35.3968 24.257 37.3718 24.1756C39.3468 24.0941 41.2265 23.3047 42.6675 21.9517L29.914 11.8164Z" fill="#2273EF"/>
<path d="M31.4121 9.93014L44.1656 20.0654C45.1583 18.3561 45.5029 16.3466 45.1362 14.4042C44.7696 12.4619 43.7163 10.7162 42.1687 9.48644C40.6212 8.25664 38.6828 7.62475 36.7078 7.70622C34.7328 7.78768 32.8531 8.57707 31.4121 9.93014V9.93014Z" fill="#2273EF"/>
</g>
<defs>
<clipPath id="clip0_51174_17401">
<rect width="43.2" height="36.0014" fill="white" transform="translate(2.40039 7.69922)"/>
</clipPath>
</defs>
</svg>
