<svg width="48" height="49" viewBox="0 0 48 49" fill="none" xmlns="http://www.w3.org/2000/svg">
<path fill-rule="evenodd" clip-rule="evenodd" d="M34.2211 3.20353C34.4172 3.00937 34.6826 2.90039 34.9593 2.90039C35.2354 2.90039 35.5002 3.00956 35.6954 3.20388C35.8907 3.3982 36.0004 3.66176 36.0004 3.93657V14.9224C36.0004 16.0982 34.8738 17.9092 32.4469 18.3835L33.5998 44.9004V44.9008C33.5996 45.5633 33.0624 46.1004 32.3998 46.1004H29.9998C29.3372 46.1004 28.8 45.5633 28.7998 44.9008V44.9004L29.9527 18.3843C27.5188 17.9061 26.4004 16.0611 26.4004 14.9224V3.93657C26.42 3.67432 26.5385 3.42914 26.7321 3.25021C26.9257 3.07128 27.1802 2.97184 27.4444 2.97184C27.7086 2.97184 27.963 3.07128 28.1567 3.25021C28.3503 3.42914 28.4688 3.67432 28.4883 3.93657V11.6078C28.4883 12.3921 30.1564 12.4379 30.1564 11.6078V3.93657C30.176 3.67432 30.2945 3.42914 30.4881 3.25021C30.6817 3.07128 30.9362 2.97184 31.2004 2.97184C31.4646 2.97184 31.719 3.07128 31.9127 3.25021C32.1063 3.42914 32.2248 3.67432 32.2444 3.93657V11.6078C32.2444 12.3463 33.9124 12.3005 33.9124 11.6078V3.93657C33.9139 3.66123 34.0249 3.39769 34.2211 3.20353ZM21.6 10.6975C21.6 14.3105 20.0903 17.3511 18.0412 18.2385L19.2004 44.9004C19.2004 44.9005 19.2004 44.9007 19.2004 44.9008C19.2002 45.5633 18.663 46.1004 18.0004 46.1004H15.6004C14.9378 46.1004 14.4006 45.5633 14.4004 44.9008C14.4004 44.9007 14.4004 44.9005 14.4004 44.9004L15.5597 18.2357C13.5126 17.3461 12 14.3152 12 10.6975C12 6.37781 14.1468 2.90039 16.8 2.90039C19.4531 2.90039 21.6 6.40057 21.6 10.6975Z" fill="#2273EF"/>
</svg>
