<svg width="48" height="49" viewBox="0 0 48 49" fill="none" xmlns="http://www.w3.org/2000/svg">
<path d="M14.6956 17.9008L16.594 5.30078H6.72039L2.59479 16.1008C2.46759 16.4848 2.40039 16.8832 2.40039 17.3008C2.40039 19.9504 5.16039 22.1008 8.57079 22.1008C11.7148 22.1008 14.314 20.2672 14.6956 17.9008ZM24.0004 22.1008C27.4084 22.1008 30.1708 19.9504 30.1708 17.3008C30.1708 17.2024 30.1636 17.104 30.1588 17.0104L28.9372 5.30078H19.0636L17.8396 17.0008C17.8339 17.1007 17.8307 17.2007 17.83 17.3008C17.83 19.9504 20.5924 22.1008 24.0004 22.1008ZM36.0004 24.6112V34.1008H12.0004V24.6256C10.9492 25.0048 9.79239 25.2208 8.57079 25.2208C8.10279 25.2208 7.64919 25.1656 7.20039 25.1032V40.3408C7.20039 42.1888 8.70999 43.7008 10.5556 43.7008H37.4404C39.2884 43.7008 40.8004 42.1864 40.8004 40.3408V25.1056C40.3467 25.1752 39.8889 25.2145 39.43 25.2232C38.2597 25.222 37.0988 25.0148 36.0004 24.6112V24.6112ZM45.4084 16.1008L41.278 5.30078H31.4068L33.3028 17.8816C33.6724 20.2576 36.2716 22.1008 39.43 22.1008C42.838 22.1008 45.6004 19.9504 45.6004 17.3008C45.6004 16.8832 45.5332 16.4848 45.4084 16.1008Z" fill="#307BF0"/>
</svg>
