<svg width="48" height="48" viewBox="0 0 48 48" fill="none" xmlns="http://www.w3.org/2000/svg">
<g clip-path="url(#clip0_51173_17693)">
<path d="M36 21.6016H32.5755V33.6016H36V21.6016Z" fill="#76869B"/>
<path d="M12 33.6016H15.4292V21.6016H12V33.6016Z" fill="#76869B"/>
<path d="M18.8586 21.6016V33.6016H22.2901V21.6016H18.8586Z" fill="#76869B"/>
<path d="M25.7196 21.6016V33.6016H29.1464V21.6016H25.7196Z" fill="#76869B"/>
<path d="M40.0994 38.4004H7.90323C7.71698 38.401 7.53857 38.4746 7.40687 38.6051C7.27517 38.7356 7.2008 38.9126 7.2002 39.0972V40.8004H40.8002V39.0972C40.7996 38.913 40.7256 38.7364 40.5944 38.6059C40.4632 38.4755 40.2853 38.4016 40.0994 38.4004Z" fill="#76869B"/>
<path d="M37.7999 19.2012H10.2032C10.0435 19.2018 9.89062 19.2753 9.77774 19.4059C9.66485 19.5364 9.60111 19.7134 9.60059 19.898V21.6012H38.4006V19.898C38.4001 19.7138 38.3366 19.5372 38.2242 19.4067C38.1117 19.2762 37.9592 19.2024 37.7999 19.2012Z" fill="#76869B"/>
<path d="M37.7999 33.6016H10.2032C10.0435 33.6022 9.89062 33.6757 9.77774 33.8063C9.66485 33.9368 9.60111 34.1138 9.60059 34.2984V36.0016H38.4006V34.2984C38.4001 34.1142 38.3366 33.9376 38.2242 33.8071C38.1117 33.6766 37.9592 33.6028 37.7999 33.6016Z" fill="#76869B"/>
<path d="M8.1693 16.8008H39.8508C41.5485 16.8008 40.4516 15.7579 40.4516 15.7579L23.9679 4.80078L7.44424 15.7874C7.44424 15.7874 6.55576 16.8008 8.1693 16.8008ZM23.9656 8.82879L30.8874 13.4293H17.0462L23.9656 8.82879Z" fill="#76869B"/>
</g>
<defs>
<clipPath id="clip0_51173_17693">
<rect width="33.6" height="36" fill="white" transform="translate(7.2002 4.80078)"/>
</clipPath>
</defs>
</svg>
