<svg width="48" height="48" viewBox="0 0 48 48" fill="none" xmlns="http://www.w3.org/2000/svg">
<g clip-path="url(#clip0_51173_17741)">
<path d="M12.1145 40.8H35.889L38.4006 24H9.60059L12.1145 40.8Z" fill="white"/>
<path fill-rule="evenodd" clip-rule="evenodd" d="M24.0002 19.2008C25.3257 19.2008 26.4002 18.1263 26.4002 16.8008H40.8002V21.6008H7.2002V16.8008H21.6002C21.6002 18.1263 22.6747 19.2008 24.0002 19.2008Z" fill="white"/>
<rect x="26.4004" y="7.20117" width="7.2" height="4.8" rx="2.4" transform="rotate(90 26.4004 7.20117)" fill="white"/>
<path fill-rule="evenodd" clip-rule="evenodd" d="M24.0002 21.6C26.6512 21.6 28.8002 19.451 28.8002 16.8C28.8002 14.149 26.6512 12 24.0002 12C21.3492 12 19.2002 14.149 19.2002 16.8C19.2002 19.451 21.3492 21.6 24.0002 21.6ZM24.0002 19.2C25.3257 19.2 26.4002 18.1255 26.4002 16.8C26.4002 15.4745 25.3257 14.4 24.0002 14.4C22.6747 14.4 21.6002 15.4745 21.6002 16.8C21.6002 18.1255 22.6747 19.2 24.0002 19.2Z" fill="white"/>
</g>
<defs>
<clipPath id="clip0_51173_17741">
<rect width="33.6" height="36" fill="white" transform="translate(7.2002 4.80078)"/>
</clipPath>
</defs>
</svg>
