<svg width="48" height="48" viewBox="0 0 48 48" fill="none" xmlns="http://www.w3.org/2000/svg">
<path d="M15.998 21.1755L16.0531 18.4707H11.7764L11.8314 21.1755H15.998Z" fill="#76869B"/>
<path d="M23.3881 14.1758H21.4199L21.4873 17.4589H26.4481L26.5152 14.1758H23.3951H23.3881Z" fill="#76869B"/>
<path d="M16.1753 16.8172L16.833 12.8091C16.8201 12.1512 16.5804 11.518 16.1545 11.0164C15.7286 10.5148 15.1425 10.1756 14.4954 10.0563V10.0732L14.409 10.0563C14.0861 9.98904 13.7528 9.98904 13.4299 10.0563H13.3435C12.6981 10.1748 12.1134 10.512 11.6876 11.0113C11.2618 11.5105 11.021 12.1412 11.0059 12.7972L11.6633 16.8195L16.1753 16.8172Z" fill="#76869B"/>
<path d="M23.3825 12.4376H26.6295L27.4 7.73837C27.383 6.94465 27.0873 6.18224 26.5647 5.58461C26.0421 4.98697 25.3259 4.59222 24.5415 4.46957V4.48641C24.1599 4.40817 23.7665 4.40817 23.3849 4.48641V4.46957C22.6003 4.59177 21.8837 4.98629 21.361 5.58402C20.8384 6.18175 20.5428 6.94451 20.5264 7.73837L21.2945 12.4376H23.3825Z" fill="#76869B"/>
<path d="M36.3357 16.8176L36.9932 12.7951C36.9785 12.139 36.7379 11.5082 36.312 11.0089C35.8862 10.5096 35.3011 10.1724 34.6556 10.0544H34.5691C34.2462 9.98708 33.913 9.98708 33.59 10.0544L33.5036 10.0711V10.0544C32.8563 10.1733 32.27 10.5122 31.8439 11.0138C31.4179 11.5155 31.1784 12.1491 31.166 12.8071L31.8237 16.8151L36.3357 16.8176Z" fill="#76869B"/>
<path d="M36.1677 21.1755L36.223 18.4707H31.9463L32.0014 21.1755H36.1677Z" fill="#76869B"/>
<path d="M31.7198 22.8322C31.6022 22.9858 31.3717 23.3002 31.0885 23.749C31.9048 26.037 32.3236 28.4479 32.3269 30.8771C32.3604 34.436 31.6125 37.9588 30.1357 41.1971C30.9445 42.8195 31.7943 43.561 32.2671 43.561H35.8908C36.4332 43.561 37.4151 42.5891 38.2431 40.729C39.2776 38.2503 39.7937 35.586 39.7598 32.9002C39.7391 29.2747 38.5769 25.7479 36.4381 22.8203L31.7198 22.8322Z" fill="#76869B"/>
<path d="M16.8671 23.6816C16.6031 23.2688 16.3871 22.9784 16.2791 22.832H11.5606C9.42209 25.7597 8.25984 29.2866 8.2389 32.9121C8.20473 35.5976 8.72034 38.2618 9.75355 40.7409C10.5815 42.6009 11.5655 43.5729 12.1055 43.5729H15.7295C16.1951 43.5729 17.0301 42.8529 17.8269 41.2737C16.3269 38.0182 15.567 34.4707 15.6021 30.8865C15.6056 28.43 16.0337 25.9925 16.8671 23.6816Z" fill="#76869B"/>
<path d="M26.7242 19.1953H21.2041C18.7207 22.5863 17.368 26.6731 17.3378 30.8761C17.2984 33.9793 17.8946 37.0576 19.0897 39.9217C20.1025 42.1969 21.2497 43.2312 21.8761 43.2312H26.0498C26.681 43.2312 27.821 42.1945 28.8362 39.9217C30.0297 37.0572 30.6251 33.979 30.5858 30.8761C30.5574 26.6736 29.2063 22.5867 26.7242 19.1953Z" fill="#76869B"/>
</svg>
