<svg width="48" height="49" viewBox="0 0 48 49" fill="none" xmlns="http://www.w3.org/2000/svg">
<g clip-path="url(#clip0_51173_17837)">
<path d="M12.1145 41.3H35.889L38.4006 24.5H9.60059L12.1145 41.3Z" fill="#2273EF"/>
<path fill-rule="evenodd" clip-rule="evenodd" d="M24.0002 19.7008C25.3257 19.7008 26.4002 18.6263 26.4002 17.3008H40.8002V22.1008H7.2002V17.3008H21.6002C21.6002 18.6263 22.6747 19.7008 24.0002 19.7008Z" fill="#2273EF"/>
<rect x="26.4004" y="7.70117" width="7.2" height="4.8" rx="2.4" transform="rotate(90 26.4004 7.70117)" fill="#2273EF"/>
<path fill-rule="evenodd" clip-rule="evenodd" d="M24.0002 22.1C26.6512 22.1 28.8002 19.951 28.8002 17.3C28.8002 14.649 26.6512 12.5 24.0002 12.5C21.3492 12.5 19.2002 14.649 19.2002 17.3C19.2002 19.951 21.3492 22.1 24.0002 22.1ZM24.0002 19.7C25.3257 19.7 26.4002 18.6255 26.4002 17.3C26.4002 15.9745 25.3257 14.9 24.0002 14.9C22.6747 14.9 21.6002 15.9745 21.6002 17.3C21.6002 18.6255 22.6747 19.7 24.0002 19.7Z" fill="#2273EF"/>
</g>
<defs>
<clipPath id="clip0_51173_17837">
<rect width="33.6" height="36" fill="white" transform="translate(7.2002 5.30078)"/>
</clipPath>
</defs>
</svg>
