<svg width="24" height="24" viewBox="0 0 24 24" fill="none" xmlns="http://www.w3.org/2000/svg">
<path d="M16.5717 4.00028C19.3306 5.57399 21.1431 8.59685 21.1431 12.0003C21.1431 13.8086 20.6069 15.5762 19.6023 17.0798C18.5977 18.5833 17.1697 19.7552 15.4991 20.4472C13.8285 21.1392 11.9901 21.3202 10.2166 20.9675C8.44306 20.6147 6.81396 19.7439 5.53531 18.4653C4.25666 17.1866 3.38588 15.5575 3.0331 13.784C2.68032 12.0104 2.86138 10.1721 3.55338 8.50146C4.24539 6.83082 5.41725 5.4029 6.92078 4.39827C8.42432 3.39364 10.192 2.85742 12.0003 2.85742" stroke="#323232" stroke-width="1.5" stroke-linecap="round" stroke-linejoin="round"/>
<path d="M16.5713 8.57143V4H21.1427" stroke="#323232" stroke-width="1.5" stroke-linecap="round" stroke-linejoin="round"/>
</svg>
