<svg width="24" height="24" viewBox="0 0 24 24" fill="none" xmlns="http://www.w3.org/2000/svg">
<path fill-rule="evenodd" clip-rule="evenodd" d="M12 21C16.9706 21 21 16.9706 21 12C21 7.02944 16.9706 3 12 3C7.02944 3 3 7.02944 3 12C3 16.9706 7.02944 21 12 21ZM12 6C12.5523 6 13 6.44772 13 7V14C13 14.5523 12.5523 15 12 15C11.4477 15 11 14.5523 11 14V7C11 6.44772 11.4477 6 12 6ZM13 16.99C13 16.4377 12.5523 15.99 12 15.99C11.4477 15.99 11 16.4377 11 16.99V17C11 17.5523 11.4477 18 12 18C12.5523 18 13 17.5523 13 17V16.99Z" fill="#0475F4"/>
</svg>
