<svg width="24" height="24" viewBox="0 0 24 24" fill="none" xmlns="http://www.w3.org/2000/svg">
<path fill-rule="evenodd" clip-rule="evenodd" d="M17.3789 17.1422C15.2016 19.1508 13.05 20.5359 12.9586 20.5945L12.4031 20.9508C12.157 21.1078 11.8406 21.1078 11.5945 20.9508L11.0391 20.5945C10.9477 20.5383 8.79375 19.1508 6.61875 17.1422C5.30625 15.9305 4.24922 14.7352 3.48047 13.5891C2.99531 12.8648 2.61563 12.1477 2.35078 11.4563C2.03438 10.6289 1.875 9.81563 1.875 9.03516C1.875 8.20782 2.04141 7.40392 2.36719 6.64689C2.6805 5.919 3.13359 5.25967 3.70078 4.70626C4.27031 4.14845 4.93359 3.71017 5.66953 3.40548C6.43125 3.08908 7.2375 2.9297 8.06953 2.9297C9.225 2.9297 10.3523 3.24611 11.332 3.84377C11.5664 3.98673 11.7891 4.14376 12 4.31486C12.2109 4.14376 12.4336 3.98673 12.668 3.84377C13.6477 3.24611 14.775 2.9297 15.9305 2.9297C16.7541 2.92781 17.5699 3.08953 18.3305 3.40548C19.064 3.70898 19.7323 4.15058 20.2992 4.70626C20.8657 5.2603 21.3187 5.91947 21.6328 6.64689C21.9586 7.40392 22.125 8.20782 22.1227 9.03516C22.1227 9.81563 21.9633 10.6289 21.6469 11.4563C21.3844 12.1477 21.0023 12.8648 20.5172 13.5891C19.7484 14.7352 18.6914 15.9305 17.3789 17.1422ZM12.4187 19.7528L11.9988 20.0221L12.0268 19.9967C12.0178 20.003 12.0089 20.0093 11.9999 20.0156C11.9837 20.0033 11.9675 19.9911 11.9513 19.9788L11.9988 20.0221L11.5711 19.7477L11.5632 19.7429L11.5614 19.7417L11.5613 19.7417C11.5534 19.7366 11.5207 19.7157 11.4613 19.6767C11.3939 19.6325 11.2983 19.5688 11.1785 19.4872C10.9387 19.324 10.6031 19.0896 10.2031 18.7952C9.40169 18.2052 8.35005 17.3798 7.29719 16.4075C6.02601 15.234 5.02554 14.0973 4.31128 13.0325L4.34683 13.0648C4.33357 13.0464 4.32041 13.028 4.30737 13.0097L4.31128 13.0325C4.24139 12.9282 4.17411 12.8244 4.10943 12.7211C3.73783 12.1586 3.47186 11.6279 3.28838 11.1084C3.28719 11.1053 3.286 11.1021 3.28481 11.099C3.00639 10.371 2.875 9.67871 2.875 9.03516C2.875 8.65461 2.91702 8.28062 3.00023 7.91573C3.03537 7.68439 3.10737 7.45485 3.20947 7.22946C3.23359 7.16671 3.25901 7.1043 3.28571 7.04225L3.28961 7.06501C3.29356 7.05742 3.29756 7.04983 3.30158 7.04225L3.28571 7.04225C3.54729 6.43457 3.9256 5.88404 4.39914 5.42202L4.4005 5.42068C4.87878 4.95224 5.43442 4.58514 6.05206 4.32943L6.05314 4.32898C6.43644 4.16976 6.83315 4.05782 7.24093 3.99377C7.31978 3.97796 7.40217 3.96718 7.48763 3.96101C7.67938 3.94016 7.87343 3.9297 8.06953 3.9297C9.04209 3.9297 9.98915 4.19594 10.8113 4.69747C11.008 4.81746 11.1941 4.9488 11.3701 5.0915L11.8065 5.44548C11.8748 5.48589 11.9394 5.525 11.9999 5.56247L12.078 5.5392L12.6299 5.0915C12.8059 4.9488 12.992 4.81745 13.1888 4.69745C14.0109 4.19592 14.9579 3.9297 15.9305 3.92971L15.9328 3.9297C16.6239 3.92811 17.3086 4.06383 17.9468 4.32898L17.9481 4.32951C18.5633 4.58403 19.1238 4.95437 19.5992 5.42038L19.6 5.42116C20.0733 5.88414 20.4519 6.43494 20.7145 7.04276L20.6892 7.04276C20.6957 7.05303 20.7023 7.06391 20.7089 7.07541L20.7145 7.04276C20.9865 7.67511 21.1246 8.34341 21.1227 9.03233V9.03516C21.1227 9.42479 21.0745 9.8323 20.9747 10.2548C20.8456 11.1359 20.3678 12.0849 19.6789 13.0436C18.9652 14.1052 17.9673 15.2379 16.7006 16.4074C14.5859 18.3581 12.4903 19.7069 12.4187 19.7528Z" fill="#C7C7C7"/>
</svg>
