<svg width="24" height="24" viewBox="0 0 24 24" fill="none" xmlns="http://www.w3.org/2000/svg">
<path fill-rule="evenodd" clip-rule="evenodd" d="M7.33333 3.80212V4.30212C7.33333 4.85441 7.78105 5.30212 8.33333 5.30212H15.75C16.3023 5.30212 16.75 4.85441 16.75 4.30212V3.80212H18C18.5523 3.80212 19 4.24984 19 4.80212V20.3438C19 20.8961 18.5523 21.3438 18 21.3438H6C5.44772 21.3438 5 20.8961 5 20.3438V4.80212C5 4.24984 5.44772 3.80212 6 3.80212H7.33333ZM7.33333 12.6355C7.33333 12.2673 7.63181 11.9688 8 11.9688H16C16.3682 11.9688 16.6667 12.2673 16.6667 12.6355C16.6667 13.0036 16.3682 13.3021 16 13.3021H8C7.63181 13.3021 7.33333 13.0036 7.33333 12.6355ZM8 9.30212C7.63181 9.30212 7.33333 9.6006 7.33333 9.96879C7.33333 10.337 7.63181 10.6355 8 10.6355H14C14.3682 10.6355 14.6667 10.337 14.6667 9.96879C14.6667 9.6006 14.3682 9.30212 14 9.30212H8Z" fill="#0475F4"/>
<path d="M16 3.64583C16 3.0993 15.5569 2.65625 15.0104 2.65625H8.98958C8.44305 2.65625 8 3.0993 8 3.64583V3.64583V3.64583C8 4.19237 8.44305 4.63542 8.98958 4.63542H15.0104C15.5569 4.63542 16 4.19237 16 3.64583V3.64583V3.64583Z" fill="#0475F4"/>
</svg>
