<svg width="314" height="60" viewBox="0 0 314 60" fill="none" xmlns="http://www.w3.org/2000/svg">
<path d="M226.45 30.875H207.45V33.185H215.69V41.605H217.11C217.76 41.605 218.28 40.295 218.29 38.605V33.175H226.53V30.865L226.45 30.875Z" fill="#231815"/>
<path d="M224.87 20.175H224.95V22.485H218.7C219.224 23.6401 220.108 24.5944 221.22 25.205C222.642 26.1604 224.269 26.7669 225.97 26.975H226.12V27.045L226.04 27.185L225.04 29.185V29.265H224.95C223.227 28.7485 221.589 27.9801 220.09 26.985C218.88 26.2505 217.832 25.2775 217.01 24.125C216.192 25.2776 215.148 26.2508 213.94 26.985C212.439 27.982 210.797 28.7505 209.07 29.265H208.98V29.185L207.98 27.185L207.9 27.045V26.975H208.05C209.751 26.7669 211.378 26.1604 212.8 25.205C213.912 24.5974 214.793 23.6418 215.31 22.485H208.95V20.175H224.95H224.87Z" fill="#231815"/>
<path d="M207.35 41.975C204.914 38.5919 203.604 34.5286 203.604 30.36C203.604 26.1913 204.914 22.1281 207.35 18.745H204.55C202.468 22.2617 201.37 26.2733 201.37 30.36C201.37 34.4467 202.468 38.4584 204.55 41.975H207.35Z" fill="#231815"/>
<path d="M226.53 41.975C228.971 38.5942 230.285 34.5301 230.285 30.36C230.285 26.1899 228.971 22.1258 226.53 18.745H229.33C231.415 22.2606 232.515 26.2726 232.515 30.36C232.515 34.4474 231.415 38.4594 229.33 41.975H226.53Z" fill="#231815"/>
<path d="M313.37 0.0350037H254.12V59.285H313.37V0.0350037Z" fill="#00479D"/>
<path d="M300.32 29.935L285.93 29.265L285.29 15.295H285.27L284.61 29.265L270.24 29.935V29.965L284.61 30.575L285.27 45.355H285.29L285.93 30.575L300.32 29.965V29.935Z" fill="#F39800"/>
<path d="M280.72 8.58501V9.21502H280.41C279.51 9.21502 278.53 9.39501 278.53 11.895V21.485C278.516 22.2006 278.559 22.9163 278.66 23.625H277.86L267 11.525V20.205C267 22.045 267.36 22.675 269 22.675H269.36V23.295H263.75V22.675H264.05C265.5 22.675 265.94 21.675 265.94 19.995V11.125C265.941 10.8729 265.893 10.6232 265.796 10.3902C265.7 10.1572 265.559 9.94563 265.38 9.76788C265.201 9.59012 264.989 9.44971 264.756 9.35479C264.522 9.25987 264.272 9.21236 264.02 9.21502H263.75V8.58501H268.05L277.43 19.155V19.105V11.205C277.468 10.9474 277.447 10.6846 277.371 10.4358C277.294 10.187 277.163 9.9584 276.986 9.76678C276.81 9.57516 276.593 9.42531 276.352 9.32812C276.11 9.23093 275.85 9.18888 275.59 9.20501H275.13V8.575L280.72 8.58501Z" fill="white"/>
<path d="M295.29 23.295V22.675H295.59C296.35 22.675 297.16 22.565 297.16 21.465V10.465C297.16 9.36502 296.35 9.255 295.59 9.255H295.29V8.62499H301.73V9.255H301.43C300.67 9.255 299.88 9.36502 299.88 10.465V21.465C299.88 22.565 300.67 22.675 301.43 22.675H301.73V23.295H295.29Z" fill="white"/>
<path d="M277.72 50.585C276.194 51.2218 274.554 51.5416 272.9 51.525C268.16 51.525 264.64 48.935 264.64 43.645C264.64 38.925 268.46 36.185 272.8 36.185C275.26 36.185 276.06 36.945 278.04 37.185L278.21 40.715L277.58 40.795C276.99 38.795 276.02 37.065 272.86 37.065C269.41 37.065 267.59 39.785 267.59 43.475C267.59 46.985 269.39 50.555 273.36 50.555C274.377 50.5718 275.368 50.2274 276.155 49.5829C276.942 48.9384 277.476 48.0356 277.66 47.035L278.26 47.115L277.72 50.585Z" fill="white"/>
<path d="M292.23 51.215V50.585H292.53C293.3 50.585 294.09 50.475 294.09 49.375V38.375C294.09 37.275 293.3 37.175 292.53 37.175H292.23V36.545H302.89C302.835 37.6176 302.835 38.6924 302.89 39.765L302.26 39.935C302.15 38.565 301.9 37.465 299.69 37.465H296.76V42.995H299.27C300.53 42.995 300.8 42.285 300.93 41.135H301.56V46.005L300.93 46.135C300.8 44.875 300.75 44.055 299.29 44.055H296.76V48.955C296.76 50.335 297.98 50.335 299.33 50.335C301.86 50.335 302.97 50.165 303.61 47.755L304.2 47.905C303.93 49.015 303.68 50.135 303.49 51.255L292.23 51.215Z" fill="white"/>
<path d="M19.09 35.065L19.14 35.005V24.165C19.1896 23.8143 19.1606 23.4569 19.0551 23.1188C18.9495 22.7806 18.7702 22.4702 18.53 22.2099C18.2898 21.9496 17.9947 21.7459 17.6661 21.6136C17.3375 21.4814 16.9836 21.4237 16.63 21.445H15.95V20.575C17.31 20.575 18.64 20.695 20 20.695C21.18 20.695 22.37 20.575 23.55 20.575V21.445H23.12C21.91 21.445 20.55 21.675 20.55 25.115V38.275C20.5336 39.2512 20.5905 40.2273 20.72 41.195H19.62L4.73004 24.595V36.505C4.73004 39.025 5.22004 39.895 7.45004 39.895H7.95004V40.765C6.71004 40.765 5.47005 40.645 4.22005 40.645C2.97005 40.645 1.59004 40.765 0.290039 40.765V39.895H0.700043C2.70004 39.895 3.30005 38.535 3.30005 36.225V24.055C3.30276 23.7098 3.23643 23.3675 3.10497 23.0483C2.9735 22.7291 2.77956 22.4394 2.53453 22.1963C2.2895 21.9531 1.99833 21.7614 1.67815 21.6324C1.35796 21.5034 1.01521 21.4397 0.670044 21.445H0.290039V20.575C1.39004 20.575 2.52004 20.695 3.62004 20.695C4.49004 20.695 5.32005 20.575 6.19005 20.575L19.09 35.065Z" fill="#231815"/>
<path d="M24.41 39.895H24.81C25.81 39.895 26.95 39.745 26.95 38.245V23.095C26.95 21.595 25.85 21.445 24.81 21.445H24.41V20.575C25.53 20.575 27.27 20.695 28.68 20.695C30.09 20.695 31.86 20.575 33.22 20.575V21.445H32.82C31.82 21.445 30.68 21.595 30.68 23.095V38.245C30.68 39.745 31.78 39.895 32.82 39.895H33.22V40.765C31.84 40.765 30.1 40.645 28.65 40.645C27.2 40.645 25.53 40.765 24.41 40.765V39.895Z" fill="#231815"/>
<path d="M52.57 26.535C51.76 23.725 50.42 21.415 46.09 21.415C41.35 21.415 38.86 25.145 38.86 30.205C38.86 35.035 41.32 39.915 46.78 39.915C48.175 39.9406 49.5338 39.47 50.6142 38.5873C51.6947 37.7046 52.4268 36.4671 52.68 35.095L53.49 35.205C53.1331 36.7481 52.8924 38.3159 52.77 39.895C50.6724 40.7662 48.4214 41.2083 46.15 41.195C39.64 41.195 34.82 37.635 34.82 30.385C34.82 23.905 40.05 20.145 46 20.145C49.39 20.145 50.48 21.145 53.2 21.595C53.1628 23.2084 53.2396 24.8224 53.43 26.425L52.57 26.535Z" fill="#231815"/>
<path d="M55.05 39.895H55.46C56.46 39.895 57.6 39.745 57.6 38.245V23.095C57.6 21.595 56.5 21.445 55.46 21.445H55.05V20.575C56.82 20.575 59.82 20.695 62.25 20.695C64.68 20.695 67.69 20.575 69.65 20.575C69.5952 22.0517 69.6153 23.5303 69.71 25.005L68.84 25.235C68.69 23.355 68.35 21.855 65.32 21.855H61.32V29.425H64.75C66.49 29.425 66.86 28.425 67.04 26.875H67.91C67.85 28.0017 67.82 29.1317 67.82 30.265C67.82 31.3983 67.85 32.4983 67.91 33.565L67.04 33.735C66.86 32.005 66.78 30.875 64.79 30.875H61.32V37.615C61.32 39.485 62.99 39.485 64.85 39.485C68.31 39.485 69.8501 39.255 70.7101 35.955L71.53 36.165C71.15 37.695 70.8 39.225 70.53 40.765C68.68 40.765 65.35 40.645 62.75 40.645C60.15 40.645 56.75 40.765 55.06 40.765L55.05 39.895Z" fill="#231815"/>
<path d="M166.57 18.735H166.46V20.325H167.85V42.825H169.23C169.93 42.825 170.49 41.445 170.49 39.685V18.735H166.55H166.57Z" fill="#231815"/>
<path d="M157.53 21.925C155.878 21.8992 154.269 22.4589 152.99 23.505C152.338 24.0285 151.818 24.6972 151.471 25.4578C151.123 26.2183 150.959 27.0495 150.99 27.885C150.984 28.6868 151.15 29.4805 151.478 30.2122C151.806 30.9438 152.287 31.5963 152.89 32.125C154.133 33.2608 155.767 33.8702 157.45 33.825C158.365 33.9 159.286 33.7762 160.149 33.4621C161.012 33.148 161.797 32.6509 162.45 32.005C163.497 30.8924 164.08 29.4226 164.08 27.895C164.088 27.1043 163.934 26.3202 163.628 25.5911C163.322 24.8619 162.87 24.2031 162.3 23.655C161.672 23.0565 160.929 22.5912 160.116 22.287C159.303 21.9828 158.437 21.8461 157.57 21.885L157.53 21.925ZM154.64 25.135C155.015 24.7704 155.46 24.4858 155.948 24.2985C156.436 24.1111 156.957 24.0248 157.48 24.045C158.035 24.0008 158.593 24.0822 159.112 24.283C159.632 24.4838 160.099 24.7989 160.48 25.205C161.137 25.9497 161.493 26.9121 161.48 27.905C161.492 28.4303 161.393 28.9522 161.189 29.4363C160.985 29.9205 160.681 30.356 160.296 30.714C159.912 31.0721 159.456 31.3446 158.958 31.5137C158.461 31.6828 157.933 31.7446 157.41 31.695C156.893 31.7098 156.379 31.615 155.902 31.4167C155.424 31.2185 154.994 30.9214 154.64 30.545C154.287 30.192 154.008 29.7724 153.82 29.3106C153.631 28.8488 153.536 28.354 153.54 27.855C153.528 27.3515 153.619 26.8507 153.806 26.3832C153.993 25.9156 154.274 25.491 154.63 25.135H154.64Z" fill="#231815"/>
<path d="M116.46 18.735H116.34V20.325H117.74V42.825H119.12C119.82 42.825 120.37 41.445 120.38 39.685V18.735H116.44H116.46Z" fill="#231815"/>
<path d="M91.7701 18.735H91.66V20.325H93.05V42.825H94.4301C95.1301 42.825 95.69 41.445 95.69 39.685V18.735H91.75H91.7701Z" fill="#231815"/>
<path d="M129.09 32.975H137.7V35.345H126.37V20.175H136.07V22.555H129.07L129.09 32.975Z" fill="#231815"/>
<path d="M143.22 42.695V42.825H144.64C145.36 42.825 145.93 41.415 145.93 39.605V18.825H143.25L143.22 42.695Z" fill="#231815"/>
<path d="M141.85 18.825V18.705H137.7V20.325H139.14V26.325H134.24V28.825H139.13V42.825H140.55C141.26 42.825 141.83 41.415 141.84 39.595" fill="#231815"/>
<path d="M179.17 26.475H186.01V28.825H179.17V33.015H189.17V35.385H176.46V20.215H187.46V22.595H179.11L179.17 26.475Z" fill="#231815"/>
<path d="M197.22 27.345H194.46V18.735H190.34V20.325H191.78V42.715H193.19C193.91 42.715 194.46 41.325 194.46 39.545V29.695H197.32V27.345H197.22Z" fill="#231815"/>
<path d="M86.33 30.055C85.2846 28.829 84.5535 27.3669 84.2 25.795C84.0951 25.3001 84.0216 24.7991 83.98 24.295C83.98 23.765 83.91 23.295 83.91 22.725H89.04V20.395H76.42V22.725H81.3C81.3 23.405 81.23 24.075 81.15 24.725C81.0758 25.3702 80.9521 26.0088 80.78 26.635C80.3715 28.1253 79.641 29.5078 78.64 30.685C77.7045 31.776 76.5448 32.6526 75.24 33.255L75.12 33.315L75.2 33.415L76.57 35.245L76.63 35.325H76.71C78.0955 34.4356 79.3281 33.3279 80.36 32.045C81.2842 30.9687 82.0395 29.7583 82.6 28.455C83.2071 29.7509 84.0478 30.9238 85.08 31.915C86.1868 33.0596 87.3988 34.0975 88.7 35.015L88.79 35.075L88.84 34.985L90.13 33.135L90.21 33.025H90.09C88.6262 32.3353 87.34 31.3192 86.33 30.055Z" fill="#231815"/>
<path d="M114.82 32.975H104.65V20.115V20.005H104.54H102.06H101.94V20.115V35.215V35.325H102.06H114.82V32.975Z" fill="#231815"/>
</svg>
