<svg width="184" height="30" viewBox="0 0 184 30" fill="none" xmlns="http://www.w3.org/2000/svg">
<g clip-path="url(#clip0_22_391)">
<path d="M6.13686 12.7448L4.18865 9.42754H4.0263L4.54583 12.7764V24.2764H0V2.00309H3.47431L12.8582 13.7874L14.709 17.01H14.9038L14.3843 13.7558V2.16106H18.9301V24.4344H15.4558L6.13686 12.7448Z" fill="#2E2E2E"/>
<path d="M24.926 4.68853H22.3283V2.16106H32.3292V4.68853H29.7315V21.749H32.3292V24.2764H22.3283V21.749H24.926V4.68853Z" fill="#2E2E2E"/>
<path d="M50.4145 23.3286C49.7002 23.8131 48.7585 24.1606 47.5896 24.3712C46.4207 24.6029 45.2193 24.7188 43.9854 24.7188C42.5351 24.7188 41.1389 24.5081 39.7968 24.0869C38.4763 23.6656 37.2966 22.9916 36.2575 22.0649C35.2401 21.1382 34.4284 19.9481 33.8222 18.4949C33.2161 17.0416 32.9131 15.2829 32.9131 13.2188C32.9131 11.0704 33.2594 9.26957 33.9521 7.81628C34.6448 6.34192 35.5323 5.16243 36.6147 4.27782C37.697 3.37214 38.8984 2.71921 40.2189 2.31902C41.5393 1.91884 42.8381 1.71875 44.1153 1.71875C45.5223 1.71875 46.7021 1.803 47.6545 1.9715C48.6286 2.14 49.4296 2.34009 50.0573 2.57177L49.1157 6.48936C48.5745 6.25767 47.9359 6.08917 47.2 5.98386C46.4856 5.87855 45.5764 5.82589 44.4725 5.82589C43.4984 5.82589 42.6108 5.98386 41.8099 6.2998C41.0306 6.59467 40.3596 7.04751 39.7968 7.65831C39.2339 8.26912 38.7902 9.03789 38.4655 9.96463C38.1624 10.8914 38.0109 11.9761 38.0109 13.2188C38.0109 14.314 38.1516 15.3144 38.433 16.2201C38.7144 17.1258 39.1365 17.9051 39.6993 18.558C40.2622 19.211 40.9765 19.7165 41.8424 20.0745C42.7082 20.4326 43.7148 20.6116 44.8621 20.6116C45.9228 20.6116 46.8103 20.5168 47.5247 20.3273C48.2606 20.1377 48.9101 19.8955 49.4729 19.6006L50.4145 23.3286Z" fill="#2E2E2E"/>
<path d="M53.1936 2.16106H67.8377V6.2682H57.9992V11.0704H66.9285V15.1775H57.9992V20.1693H68V24.2764H53.1936V2.16106Z" fill="#2E2E2E"/>
<path d="M73 2H77.5318V9.09677H77.9203C78.4382 8.51613 79.0964 8.06452 79.8949 7.74194C80.7149 7.39785 81.6105 7.22581 82.5816 7.22581C84.7828 7.22581 86.4552 7.94624 87.599 9.3871C88.7643 10.8065 89.347 12.8925 89.347 15.6452C89.347 17.129 89.1312 18.4516 88.6996 19.6129C88.2895 20.7742 87.6961 21.7527 86.9192 22.5484C86.1423 23.3441 85.1928 23.957 84.0706 24.3871C82.9485 24.7957 81.686 25 80.2833 25C78.6648 25 77.2189 24.8817 75.9457 24.6452C74.6725 24.4301 73.6906 24.1828 73 23.9032V2ZM77.5318 20.7419C77.9634 20.957 78.4166 21.0968 78.8914 21.1613C79.3877 21.2043 79.9164 21.2258 80.4775 21.2258C83.2829 21.2258 84.6857 19.3978 84.6857 15.7419C84.6857 14.1935 84.3943 13.0215 83.8117 12.2258C83.229 11.4086 82.3658 11 81.222 11C80.2509 11 79.4633 11.2258 78.859 11.6774C78.2764 12.129 77.834 12.7957 77.5318 13.6774V20.7419Z" fill="#2E2E2E"/>
<path d="M91.5738 7.64516H96.1057V24.5806H91.5738V7.64516Z" fill="#2E2E2E"/>
<path d="M98.3262 20.7419L105.48 13.0645H105.448L107.552 11.4194H98.3262V7.64516H112.634V11.4839L105.545 19.2581H105.577L103.441 20.8065H112.634V24.5806H98.3262V20.7419Z" fill="#2E2E2E"/>
<path d="M125.953 24.5806V15.7419C125.953 14.1075 125.781 12.9355 125.435 12.2258C125.09 11.5161 124.378 11.1613 123.299 11.1613C122.393 11.1613 121.67 11.3871 121.13 11.8387C120.591 12.2688 120.17 12.8387 119.868 13.5484V24.5806H115.336V7.64516H118.832L119.35 10H119.771C120.051 9.63441 120.375 9.27957 120.742 8.93548C121.109 8.5914 121.508 8.29032 121.939 8.03226C122.393 7.77419 122.889 7.56989 123.429 7.41936C123.99 7.24731 124.615 7.16129 125.306 7.16129C126.45 7.16129 127.399 7.41936 128.155 7.93548C128.931 8.43011 129.546 9.26882 130 10.4516C130.625 9.41936 131.381 8.6129 132.266 8.03226C133.172 7.45161 134.219 7.16129 135.406 7.16129C136.441 7.16129 137.315 7.27957 138.027 7.51613C138.761 7.75269 139.355 8.16129 139.808 8.74194C140.261 9.32258 140.585 10.1075 140.779 11.0968C140.995 12.086 141.103 13.3226 141.103 14.8065V24.5806H136.571V15.5161C136.571 14.8065 136.538 14.1828 136.474 13.6452C136.409 13.1075 136.279 12.6559 136.085 12.2903C135.891 11.9032 135.611 11.6237 135.244 11.4516C134.898 11.2581 134.434 11.1613 133.852 11.1613C132.945 11.1613 132.212 11.3978 131.651 11.871C131.111 12.3226 130.723 12.957 130.485 13.7742V24.5806H125.953Z" fill="#2E2E2E"/>
<path d="M144.616 8.80645C145.587 8.37635 146.774 8.02151 148.177 7.74194C149.601 7.46237 151.069 7.32258 152.579 7.32258C153.766 7.32258 154.759 7.46237 155.557 7.74194C156.377 8.02151 157.025 8.43011 157.499 8.96774C157.974 9.48387 158.309 10.1183 158.503 10.871C158.719 11.6022 158.827 12.4194 158.827 13.3226C158.827 14.4194 158.783 15.5054 158.697 16.5806C158.611 17.6559 158.568 18.7957 158.568 20C158.568 20.8172 158.622 21.6129 158.729 22.3871C158.837 23.1613 159.01 23.9032 159.247 24.6129H155.557L154.813 22.0968H154.424C153.863 22.8495 153.151 23.4946 152.288 24.0323C151.425 24.5699 150.313 24.8387 148.954 24.8387C148.134 24.8387 147.378 24.7204 146.688 24.4839C146.019 24.2473 145.436 23.914 144.94 23.4839C144.465 23.0323 144.087 22.5054 143.807 21.9032C143.548 21.3011 143.418 20.6452 143.418 19.9355C143.418 18.0215 144.055 16.5806 145.328 15.6129C146.623 14.6237 148.576 14.129 151.187 14.129C151.791 14.129 152.396 14.1828 153 14.2903C153.604 14.3763 154.025 14.4409 154.262 14.4839C154.327 14.0323 154.359 13.6452 154.359 13.3226C154.359 12.5054 154.154 11.9032 153.744 11.5161C153.334 11.129 152.568 10.9355 151.446 10.9355C150.41 10.9355 149.396 11.0645 148.403 11.3226C147.432 11.5591 146.569 11.8602 145.814 12.2258L144.616 8.80645ZM150.54 21.2258C151.554 21.2258 152.363 20.9892 152.968 20.5161C153.572 20.043 154.014 19.5484 154.295 19.0323V17.0968C154.187 17.0538 154.014 17.0108 153.777 16.9677C153.561 16.9247 153.313 16.8817 153.032 16.8387C152.773 16.7957 152.504 16.7634 152.223 16.7419C151.964 16.7204 151.727 16.7097 151.511 16.7097C150.346 16.7097 149.482 16.9247 148.921 17.3548C148.36 17.7634 148.08 18.2796 148.08 18.9032C148.08 19.6774 148.295 20.2581 148.727 20.6452C149.18 21.0323 149.784 21.2258 150.54 21.2258Z" fill="#2E2E2E"/>
<path d="M162.024 7.64516H165.261L165.811 9.74194H166.199C166.868 8.88172 167.645 8.23656 168.53 7.80645C169.415 7.37634 170.451 7.16129 171.638 7.16129C173.925 7.16129 175.641 7.84946 176.784 9.22581C177.928 10.5806 178.5 12.7419 178.5 15.7097C178.5 17.129 178.317 18.4194 177.95 19.5806C177.583 20.7204 177.043 21.7097 176.331 22.5484C175.619 23.3656 174.734 24 173.677 24.4516C172.641 24.8817 171.443 25.0968 170.084 25.0968C169.35 25.0968 168.713 25.0215 168.174 24.871C167.634 24.7419 167.095 24.5591 166.555 24.3226V31H162.024V7.64516ZM170.246 10.9355C169.21 10.9355 168.411 11.172 167.85 11.6452C167.289 12.0968 166.857 12.8065 166.555 13.7742V20.3548C166.922 20.6559 167.332 20.8925 167.785 21.0645C168.239 21.2366 168.811 21.3226 169.501 21.3226C170.969 21.3226 172.058 20.871 172.77 19.9677C173.483 19.043 173.839 17.5806 173.839 15.5806C173.839 14.1398 173.558 13.0108 172.997 12.1935C172.458 11.3548 171.54 10.9355 170.246 10.9355Z" fill="#2E2E2E"/>
<circle cx="91.8203" cy="4.21875" r="2.5" fill="#2E2E2E"/>
<circle cx="181.263" cy="4.73723" r="2.73723" fill="#2273EF"/>
</g>
<defs>
<clipPath id="clip0_22_391">
<rect width="184" height="30" fill="white"/>
</clipPath>
</defs>
</svg>
