<svg width="108" height="95" viewBox="0 0 108 95" fill="none" xmlns="http://www.w3.org/2000/svg">
<g opacity="0.3" filter="url(#filter0_f_202_394)">
<path d="M63.167 59.5695L94.0809 70.3981C94.532 70.5334 94.8814 70.6985 95.1043 70.8817C95.3271 71.0649 95.4181 71.2617 95.3708 71.4583C95.3235 71.6549 95.139 71.8465 94.8304 72.0196C94.5218 72.1926 94.0966 72.3429 93.5847 72.4599L53.1157 81.7841C52.2353 81.979 51.1697 82.0727 50.1023 82.0491C49.0349 82.0255 48.0326 81.886 47.2679 81.6548L16.3541 70.8334C15.9029 70.698 15.5536 70.5329 15.3307 70.3498C15.1079 70.1666 15.0169 69.9697 15.0642 69.7731C15.1115 69.5765 15.2959 69.3849 15.6046 69.2119C15.9132 69.0388 16.3384 68.8885 16.8503 68.7716L57.3193 59.4473C58.1971 59.2515 59.2612 59.1566 60.3285 59.1789C61.3958 59.2012 62.3996 59.3393 63.167 59.5695Z" fill="url(#paint0_linear_202_394)"/>
<path d="M93.9156 70.87L93.9263 70.8737L93.9372 70.877C94.36 71.0038 94.6374 71.1452 94.7868 71.268C94.8361 71.3085 94.8619 71.3392 94.8746 71.3576C94.8676 71.3679 94.8563 71.3825 94.8384 71.401C94.7911 71.4501 94.7111 71.5132 94.5859 71.5834C94.3339 71.7248 93.9588 71.8615 93.4733 71.9724L93.4724 71.9726L53.0076 81.2959C53.0069 81.2961 53.0062 81.2962 53.0056 81.2964C52.1711 81.4809 51.147 81.5721 50.1134 81.5492C49.082 81.5264 48.1312 81.3921 47.4228 81.1792L16.5193 70.3615L16.5086 70.3577L16.4978 70.3545C16.0749 70.2276 15.7976 70.0863 15.6482 69.9635C15.5989 69.923 15.5731 69.8922 15.5604 69.8739C15.5674 69.8636 15.5787 69.849 15.5966 69.8305C15.6439 69.7814 15.7239 69.7182 15.8491 69.648C16.1011 69.5067 16.4762 69.3699 16.9617 69.259L16.9626 69.2588L57.4282 59.9353C57.4288 59.9352 57.4294 59.9351 57.43 59.9349C58.2618 59.7496 59.2843 59.6572 60.3181 59.6788C61.349 59.7004 62.3012 59.8334 63.0127 60.0452L93.9156 70.87Z" stroke="black"/>
</g>
<g clip-path="url(#clip0_202_394)">
<path d="M53.8681 7.73285L22.9915 2.28753C15.8278 1.02416 8.99635 5.8073 7.73298 12.971L2.28766 43.8476C1.02429 51.0113 5.80743 57.8427 12.9711 59.1061L43.8477 64.5514C51.0114 65.8148 57.8429 61.0316 59.1062 53.868L64.5515 22.9913C65.8149 15.8277 61.0318 8.99622 53.8681 7.73285Z" fill="#FEFFB6"/>
<path d="M62.4701 13.2962C63.4628 15.5627 63.7609 18.0727 63.3265 20.5086L57.6717 52.5732C57.0934 55.8522 55.2362 58.7672 52.5087 60.6769C49.7812 62.5866 46.4068 63.3346 43.1278 62.7563L11.0793 57.1044C8.64173 56.6792 6.38511 55.5406 4.59497 53.8324C6.5935 56.6137 9.59948 58.5042 12.9719 59.1009L43.8539 64.5472C45.5566 64.8475 47.3017 64.8095 48.9897 64.4353C50.6777 64.0611 52.2754 63.3582 53.6917 62.3665C55.108 61.3749 56.3151 60.114 57.2441 58.6558C58.1731 57.1977 58.8058 55.5709 59.1061 53.8682L64.5514 22.9916C65.1513 19.612 64.4042 16.1318 62.4701 13.2962Z" fill="#95BB99"/>
<g filter="url(#filter1_f_202_394)">
<path d="M23.7638 45.7723L15.4268 33.8652C15.2103 33.5558 15.1255 33.173 15.1911 32.8011C15.2567 32.4291 15.4673 32.0984 15.7767 31.8817L21.8481 27.626C22.1586 27.4093 22.5423 27.3245 22.9151 27.3903C23.2879 27.456 23.6195 27.6669 23.837 27.9767L27.4366 33.1177L43.789 21.6683C44.0985 21.4518 44.4813 21.367 44.8532 21.4326C45.2252 21.4982 45.5559 21.7088 45.7726 22.0181L50.0274 28.095C50.2441 28.4054 50.3288 28.7891 50.2631 29.1619C50.1973 29.5348 49.9864 29.8663 49.6766 30.0839L26.5634 46.2716C26.3469 46.4229 26.1027 46.5301 25.8447 46.5869C25.5867 46.6437 25.3201 46.6491 25.06 46.6027C24.8 46.5563 24.5516 46.4591 24.3292 46.3166C24.1067 46.1741 23.9146 45.9892 23.7638 45.7723Z" fill="#FFE975"/>
<path d="M23.7732 45.7186L15.4718 33.8621C15.3656 33.7106 15.2903 33.5396 15.2502 33.359C15.2102 33.1783 15.2061 32.9916 15.2382 32.8094C15.2703 32.6271 15.3381 32.4531 15.4375 32.297C15.537 32.141 15.6662 32.0061 15.8178 31.9L21.8567 27.6718C22.1637 27.4572 22.5433 27.3732 22.9122 27.4383C23.281 27.5033 23.609 27.7121 23.8241 28.0188L27.4325 33.1724L43.7985 21.7088C44.1055 21.4942 44.4851 21.4102 44.854 21.4752C45.2229 21.5403 45.5509 21.7491 45.766 22.0558L49.9942 28.0946C50.2059 28.4026 50.2882 28.7813 50.2233 29.1494C50.1584 29.5174 49.9515 29.8452 49.6472 30.0621L26.5846 46.2144C26.1455 46.5197 25.6034 46.639 25.0767 46.5461C24.55 46.4532 24.0814 46.1557 23.7732 45.7186Z" fill="#FFE975"/>
<path d="M23.7827 45.6648L15.522 33.8599C15.3095 33.5563 15.2263 33.1808 15.2907 32.8158C15.355 32.4509 15.5617 32.1265 15.8652 31.9139L21.8662 27.7123C22.1697 27.4998 22.5453 27.4166 22.9102 27.4809C23.2751 27.5453 23.5995 27.752 23.8121 28.0555L27.4293 33.2217L43.8071 21.7546C44.1106 21.5421 44.4862 21.4589 44.8511 21.5233C45.216 21.5876 45.5404 21.7943 45.753 22.0978L49.9546 28.0988C50.1671 28.4023 50.2504 28.7779 50.186 29.1428C50.1217 29.5077 49.915 29.8321 49.6115 30.0447L26.5994 46.1616C26.1594 46.4671 25.6164 46.5863 25.0888 46.4933C24.5612 46.4002 24.0917 46.1025 23.7827 45.6648Z" fill="#FFE975"/>
<path d="M23.7922 45.611L15.5606 33.8611C15.35 33.56 15.2676 33.1876 15.3314 32.8258C15.3953 32.464 15.6001 32.1422 15.9009 31.9313L21.8693 27.7572C22.0179 27.653 22.1856 27.5792 22.3628 27.5398C22.54 27.5005 22.7232 27.4965 22.9019 27.528C23.0806 27.5595 23.2514 27.626 23.4044 27.7235C23.5574 27.8211 23.6897 27.9478 23.7937 28.0966L27.4198 33.2755L43.8058 21.7932C44.1069 21.5826 44.4793 21.5002 44.8411 21.564C45.203 21.6278 45.5247 21.8327 45.7356 22.1335L49.9097 28.1019C50.0139 28.2505 50.0878 28.4182 50.1271 28.5954C50.1664 28.7726 50.1705 28.9557 50.1389 29.1345C50.1074 29.3132 50.041 29.484 49.9434 29.637C49.8459 29.79 49.7191 29.9223 49.5703 30.0263L26.6153 46.1034C26.3979 46.2573 26.1522 46.3667 25.8924 46.4252C25.6325 46.4838 25.3637 46.4904 25.1013 46.4446C24.8389 46.3989 24.5881 46.3017 24.3635 46.1586C24.1388 46.0156 23.9446 45.8295 23.7922 45.611Z" fill="#FFE975"/>
<path d="M23.8026 45.5519L15.6109 33.8589C15.5077 33.7115 15.4345 33.5452 15.3956 33.3696C15.3566 33.1939 15.3526 33.0122 15.3839 32.835C15.4151 32.6578 15.481 32.4885 15.5777 32.3368C15.6744 32.185 15.8 32.0538 15.9474 31.9506L21.8788 27.7977C22.0257 27.6945 22.1915 27.6214 22.3668 27.5824C22.542 27.5435 22.7232 27.5395 22.8999 27.5707C23.0767 27.6018 23.2455 27.6676 23.3969 27.7641C23.5482 27.8606 23.679 27.9861 23.7817 28.1333L27.4167 33.3248L43.8106 21.8605C43.9579 21.7573 44.1242 21.6842 44.2999 21.6452C44.4756 21.6063 44.6572 21.6023 44.8344 21.6336C45.0116 21.6648 45.1809 21.7307 45.3327 21.8273C45.4844 21.924 45.6156 22.0497 45.7188 22.1971L49.8727 28.1231C49.976 28.2705 50.0492 28.4368 50.0881 28.6125C50.127 28.7881 50.131 28.9698 50.0998 29.147C50.0685 29.3242 50.0027 29.4935 49.906 29.6452C49.8093 29.797 49.6836 29.9282 49.5362 30.0314L26.6317 46.073C26.4119 46.225 26.1642 46.3321 25.9029 46.3882C25.6416 46.4443 25.3718 46.4483 25.109 46.3999C24.8461 46.3514 24.5954 46.2516 24.3713 46.1061C24.1471 45.9606 23.9539 45.7723 23.8026 45.5519Z" fill="#FFE975"/>
<path d="M23.813 45.4928L15.6514 33.8494C15.5492 33.7037 15.4767 33.5393 15.4381 33.3656C15.3996 33.1919 15.3956 33.0123 15.4265 32.837C15.4574 32.6618 15.5226 32.4943 15.6182 32.3443C15.7139 32.1943 15.8383 32.0646 15.9841 31.9626L21.8776 27.8362C22.1728 27.6297 22.5379 27.5489 22.8927 27.6114C23.2475 27.674 23.563 27.8749 23.7697 28.1699L27.4091 33.3678L43.8501 21.8564C43.9958 21.7543 44.1602 21.6818 44.3339 21.6432C44.5076 21.6047 44.6872 21.6007 44.8625 21.6316C45.0377 21.6625 45.2051 21.7277 45.3552 21.8233C45.5052 21.919 45.6349 22.0433 45.7369 22.1892L49.8633 28.0826C50.0698 28.3779 50.1506 28.743 50.0881 29.0978C50.0255 29.4526 49.8246 29.7681 49.5296 29.9748L26.6513 45.9933C26.4322 46.1471 26.1848 46.2561 25.9235 46.3142C25.6622 46.3722 25.392 46.3782 25.1284 46.3317C24.8647 46.2852 24.6129 46.1872 24.3872 46.0432C24.1615 45.8993 23.9664 45.7122 23.813 45.4928Z" fill="#FFE975"/>
<path d="M23.8216 45.4444L15.7007 33.8526C15.5995 33.7086 15.5278 33.5461 15.4896 33.3743C15.4514 33.2025 15.4475 33.0249 15.478 32.8517C15.5086 32.6784 15.573 32.5128 15.6677 32.3645C15.7624 32.2162 15.8853 32.088 16.0296 31.9873L21.8861 27.8821C22.0306 27.7809 22.1936 27.7091 22.3658 27.6709C22.538 27.6327 22.7161 27.6288 22.8898 27.6594C23.0635 27.6901 23.2295 27.7547 23.3783 27.8495C23.527 27.9443 23.6556 28.0675 23.7568 28.212L27.404 33.4279L43.845 21.9165C43.989 21.8154 44.1515 21.7436 44.3233 21.7054C44.4951 21.6672 44.6727 21.6633 44.8459 21.6939C45.0192 21.7244 45.1848 21.7889 45.3331 21.8835C45.4814 21.9782 45.6096 22.1012 45.7103 22.2455L49.8155 28.1019C49.9167 28.2464 49.9885 28.4094 50.0267 28.5816C50.0649 28.7538 50.0688 28.9319 50.0381 29.1056C50.0075 29.2793 49.9429 29.4453 49.8481 29.5941C49.7533 29.7428 49.6301 29.8715 49.4856 29.9726L26.6886 45.939C26.4684 46.0961 26.2191 46.208 25.9554 46.2682C25.6916 46.3284 25.4185 46.3357 25.1519 46.2897C24.8853 46.2437 24.6305 46.1453 24.4021 46.0002C24.1738 45.8552 23.9765 45.6662 23.8216 45.4444Z" fill="#FFE975"/>
<path d="M23.8311 45.3907L15.751 33.8503C15.6508 33.7076 15.5797 33.5465 15.5419 33.3762C15.5041 33.2059 15.5002 33.0299 15.5305 32.8581C15.5608 32.6864 15.6247 32.5223 15.7184 32.3752C15.8122 32.2282 15.9341 32.1011 16.0771 32.0012L21.8947 27.9279C22.0374 27.8278 22.1985 27.7567 22.3688 27.7189C22.5391 27.6811 22.7151 27.6772 22.8869 27.7075C23.0586 27.7378 23.2227 27.8016 23.3698 27.8954C23.5168 27.9892 23.6439 28.1111 23.7438 28.2541L27.4009 33.4772L43.8419 21.9658C43.9847 21.8657 44.1458 21.7946 44.316 21.7568C44.4863 21.719 44.6623 21.7151 44.8341 21.7454C45.0058 21.7757 45.1699 21.8395 45.317 21.9333C45.464 22.0271 45.5912 22.149 45.691 22.292L49.7643 28.1095C49.8645 28.2523 49.9355 28.4134 49.9733 28.5837C50.0111 28.7539 50.015 28.93 49.9848 29.1018C49.9545 29.2735 49.8906 29.4376 49.7968 29.5847C49.703 29.7317 49.5811 29.8588 49.4382 29.9587L26.6737 45.8975C26.2278 46.2017 25.6804 46.319 25.1489 46.2242C24.6175 46.1295 24.1444 45.8302 23.8311 45.3907Z" fill="#FFE975"/>
<path d="M23.8405 45.3369L15.7895 33.8516C15.6903 33.71 15.62 33.5503 15.5825 33.3816C15.5451 33.2128 15.5412 33.0383 15.5713 32.8681C15.6013 32.6979 15.6646 32.5352 15.7575 32.3894C15.8504 32.2437 15.9711 32.1177 16.1128 32.0186L21.9139 27.9757C22.055 27.8765 22.2143 27.8062 22.3826 27.7688C22.5509 27.7313 22.7249 27.7274 22.8947 27.7574C23.0645 27.7873 23.2267 27.8505 23.372 27.9433C23.5174 28.036 23.643 28.1566 23.7416 28.298L27.4075 33.5338L43.8485 22.0224C43.9901 21.9232 44.1498 21.8529 44.3186 21.8154C44.4873 21.778 44.6618 21.7741 44.832 21.8042C45.0023 21.8342 45.1649 21.8975 45.3107 21.9904C45.4565 22.0833 45.5825 22.2041 45.6816 22.3457L49.7273 28.1307C49.8264 28.2718 49.8967 28.431 49.9342 28.5993C49.9717 28.7676 49.9755 28.9417 49.9456 29.1115C49.9157 29.2813 49.8525 29.4435 49.7597 29.5888C49.6669 29.7341 49.5464 29.8597 49.405 29.9584L26.6905 45.834C26.2465 46.1456 25.697 46.2684 25.1627 46.1752C24.6283 46.082 24.1528 45.7805 23.8405 45.3369Z" fill="#FFE975"/>
<path d="M23.851 45.2778L15.8398 33.8494C15.7416 33.7095 15.672 33.5517 15.6349 33.3849C15.5979 33.2181 15.594 33.0456 15.6237 32.8773C15.6534 32.7091 15.716 32.5483 15.8079 32.4043C15.8998 32.2602 16.0192 32.1357 16.1593 32.0379L21.9073 28.0133C22.0467 27.9152 22.204 27.8456 22.3704 27.8085C22.5367 27.7715 22.7087 27.7676 22.8766 27.7972C23.0444 27.8268 23.2047 27.8893 23.3484 27.981C23.492 28.0728 23.6161 28.192 23.7135 28.3318L27.3882 33.5803L43.8292 22.0689C43.9691 21.9707 44.1269 21.9011 44.2937 21.864C44.4605 21.827 44.633 21.8232 44.8013 21.8528C44.9695 21.8825 45.1303 21.9451 45.2744 22.037C45.4184 22.1289 45.543 22.2483 45.6408 22.3884L49.6653 28.1364C49.7634 28.2758 49.833 28.4332 49.8701 28.5995C49.9072 28.7658 49.911 28.9379 49.8814 29.1057C49.8518 29.2735 49.7894 29.4339 49.6976 29.5775C49.6059 29.7211 49.4866 29.8452 49.3468 29.9426L26.7079 45.7982C26.2596 46.1069 25.7074 46.2254 25.172 46.1279C24.6365 46.0303 24.1616 45.7247 23.851 45.2778Z" fill="#FFE975"/>
<path d="M23.8604 45.224L15.891 33.8418C15.7939 33.7036 15.725 33.5477 15.6883 33.3828C15.6516 33.218 15.6478 33.0475 15.6771 32.8812C15.7064 32.7149 15.7683 32.556 15.8592 32.4137C15.9501 32.2713 16.0682 32.1484 16.2067 32.0518L21.8978 28.0671C22.1783 27.8722 22.5244 27.796 22.8608 27.8554C23.1971 27.9147 23.4964 28.1046 23.6932 28.3837L27.3725 33.6385L43.8134 22.1271C43.9516 22.03 44.1075 21.9611 44.2724 21.9244C44.4372 21.8876 44.6077 21.8838 44.774 21.9132C44.9403 21.9425 45.0992 22.0044 45.2416 22.0953C45.3839 22.1862 45.5069 22.3043 45.6035 22.4428L49.5882 28.1339C49.7831 28.4144 49.8592 28.7605 49.7999 29.0969C49.7405 29.4332 49.5506 29.7324 49.2715 29.9293L26.6895 45.7451C26.2425 46.0423 25.6975 46.154 25.1696 46.0568C24.6417 45.9595 24.1723 45.6609 23.8604 45.224Z" fill="#FFE975"/>
<path d="M23.8699 45.1703L15.892 33.8364C15.7959 33.7 15.7277 33.5459 15.6914 33.383C15.655 33.2201 15.6512 33.0517 15.6802 32.8873C15.7092 32.723 15.7704 32.566 15.8603 32.4253C15.9501 32.2847 16.0669 32.1632 16.2039 32.0679L21.895 28.0832C22.172 27.8904 22.5141 27.8151 22.8465 27.8737C23.1789 27.9323 23.4745 28.1201 23.6689 28.396L27.356 33.6688L43.8359 22.1255C43.9723 22.0294 44.1264 21.9612 44.2893 21.9249C44.4522 21.8886 44.6207 21.8848 44.785 21.9138C44.9494 21.9427 45.1063 22.0039 45.247 22.0938C45.3876 22.1837 45.5091 22.3004 45.6044 22.4374L49.5891 28.1285C49.7819 28.4055 49.8573 28.7476 49.7986 29.08C49.74 29.4124 49.5522 29.7081 49.2763 29.9024L26.7448 45.6828C26.2949 45.9937 25.7403 46.1142 25.2019 46.0182C24.6635 45.9222 24.1848 45.6174 23.8699 45.1703Z" fill="#FFE975"/>
<path d="M23.8794 45.1165L15.9799 33.8408C15.7892 33.5672 15.7146 33.2292 15.7725 32.9008C15.8305 32.5724 16.0161 32.2803 16.2889 32.0884L21.9231 28.1436C22.1967 27.9529 22.5347 27.8783 22.8632 27.9362C23.1916 27.9942 23.4837 28.1798 23.6755 28.4526L27.3725 33.7327L43.865 22.1805C44.1386 21.9898 44.4766 21.9153 44.805 21.9732C45.1334 22.0311 45.4255 22.2168 45.6174 22.4896L49.5613 28.1292C49.752 28.4028 49.8265 28.7407 49.7686 29.0692C49.7107 29.3976 49.525 29.6897 49.2522 29.8816L26.7768 45.6275C26.324 45.9413 25.7656 46.0636 25.223 45.9679C24.6804 45.8723 24.1976 45.5663 23.8794 45.1165Z" fill="#FFE975"/>
<path d="M23.8889 45.0628L16.0184 33.8421C15.8297 33.571 15.7559 33.2361 15.8133 32.9108C15.8707 32.5854 16.0545 32.296 16.3247 32.1058L21.9273 28.1831C22.1974 27.9945 22.5313 27.9207 22.8558 27.9779C23.1803 28.0352 23.4688 28.2187 23.6581 28.4884L27.3639 33.7811L43.8628 22.2245C44.1339 22.0357 44.4687 21.962 44.7941 22.0193C45.1194 22.0767 45.4088 22.2606 45.599 22.5307L49.5218 28.1333C49.7104 28.4034 49.7841 28.7373 49.7269 29.0618C49.6697 29.3863 49.4861 29.6748 49.2165 29.8642L26.7926 45.5693C26.5689 45.7273 26.3162 45.8395 26.049 45.8996C25.7818 45.9596 25.5053 45.9663 25.2355 45.9193C24.9657 45.8722 24.7078 45.7723 24.4768 45.6253C24.2457 45.4783 24.0459 45.2872 23.8889 45.0628Z" fill="#FFE975"/>
<path d="M23.8661 45.0033L16.0365 33.8342C15.8498 33.5665 15.7768 33.2357 15.8335 32.9143C15.8902 32.5929 16.0719 32.3071 16.3389 32.1194L21.9035 28.2233C22.1703 28.0368 22.5001 27.9638 22.8206 28.0203C23.1411 28.0768 23.4261 28.2582 23.6129 28.5247L27.3276 33.8301L43.8391 22.2646C44.1067 22.078 44.4375 22.005 44.7589 22.0617C45.0803 22.1184 45.3661 22.3001 45.5538 22.5671L49.45 28.1317C49.6365 28.3984 49.7095 28.7283 49.653 29.0488C49.5964 29.3693 49.415 29.6543 49.1485 29.8411L26.7752 45.5108C26.551 45.6689 26.2978 45.7812 26.0301 45.8412C25.7625 45.9013 25.4856 45.9079 25.2153 45.8608C24.9451 45.8136 24.6868 45.7136 24.4553 45.5665C24.2238 45.4193 24.0235 45.228 23.8661 45.0033Z" fill="#FFE975"/>
<path d="M23.8702 44.9486L16.0751 33.8354C15.8905 33.5712 15.8183 33.2445 15.8743 32.9271C15.9303 32.6096 16.1099 32.3274 16.3737 32.1422L21.9004 28.2726C22.1656 28.0879 22.4932 28.0157 22.8115 28.0718C23.1299 28.1279 23.413 28.3078 23.599 28.5722L27.3181 33.8839L43.8422 22.3095C44.1065 22.125 44.4332 22.0528 44.7506 22.1087C45.0681 22.1647 45.3503 22.3443 45.5355 22.6082L49.4051 28.1349C49.5897 28.3991 49.6619 28.7258 49.6059 29.0432C49.5499 29.3607 49.3703 29.643 49.1065 29.8281L26.7891 45.4634C26.3337 45.7821 25.7705 45.907 25.2231 45.8104C24.6757 45.7139 24.1891 45.4039 23.8702 44.9486Z" fill="#FFE975"/>
<path d="M23.8806 44.8895L16.1209 33.8269C15.9384 33.5661 15.867 33.2435 15.9223 32.93C15.9776 32.6165 16.155 32.3378 16.4157 32.1551L21.9055 28.3067C22.1673 28.1241 22.4908 28.0527 22.8051 28.1081C23.1195 28.1636 23.3991 28.3413 23.5826 28.6025L27.3096 33.9322L43.8464 22.3491C44.1072 22.1666 44.4298 22.0952 44.7433 22.1504C45.0567 22.2057 45.3354 22.3832 45.5181 22.6439L49.3665 28.1336C49.5492 28.3954 49.6206 28.7189 49.5651 29.0333C49.5097 29.3476 49.3319 29.6272 49.0707 29.8108L26.8049 45.4052C26.3486 45.7241 25.7844 45.8489 25.2361 45.7522C24.6878 45.6555 24.2003 45.3453 23.8806 44.8895Z" fill="#FFE975"/>
<path d="M23.8847 44.8348L16.1604 33.8228C15.9799 33.5644 15.9092 33.245 15.964 32.9346C16.0187 32.6242 16.1944 32.3482 16.4524 32.1671L21.9086 28.3516C22.167 28.1711 22.4864 28.1005 22.7968 28.1552C23.1072 28.21 23.3832 28.3856 23.5643 28.6436L27.301 33.9806L43.8505 22.3886C44.1088 22.2081 44.4283 22.1374 44.7387 22.1922C45.0491 22.2469 45.3251 22.4226 45.5061 22.6806L49.3216 28.1368C49.5021 28.3951 49.5728 28.7146 49.5181 29.025C49.4633 29.3354 49.2877 29.6114 49.0296 29.7924L26.8198 45.3524C26.3615 45.6716 25.7954 45.7964 25.2454 45.6994C24.6954 45.6024 24.2062 45.2915 23.8847 44.8348Z" fill="#FFE975"/>
<path d="M23.8888 44.7801L16.2044 33.825C16.0258 33.5691 15.9559 33.2528 16.0101 32.9455C16.0643 32.6382 16.2382 32.3649 16.4935 32.1855L21.9127 28.3912C22.1656 28.2191 22.4756 28.1525 22.7768 28.2056C23.0781 28.2587 23.3466 28.4274 23.5254 28.6756L27.271 34.0252L43.8501 22.4218C44.1061 22.2432 44.4223 22.1733 44.7297 22.2275C45.037 22.2817 45.3103 22.4556 45.4897 22.7109L49.284 28.1301C49.4561 28.383 49.5227 28.6931 49.4695 28.9943C49.4164 29.2955 49.2478 29.564 48.9996 29.7428L26.8627 45.2657C26.6365 45.4315 26.3794 45.5505 26.1066 45.6159C25.8339 45.6812 25.5508 45.6916 25.274 45.6464C24.9972 45.6012 24.7321 45.5013 24.4943 45.3526C24.2565 45.2038 24.0506 45.0092 23.8888 44.7801Z" fill="#FFE975"/>
<path d="M23.8983 44.7263L16.2493 33.8218C16.0744 33.5699 16.0062 33.259 16.0594 32.957C16.1127 32.6549 16.2832 32.3861 16.5337 32.2092L21.915 28.4414C22.0395 28.3541 22.18 28.2922 22.3284 28.2593C22.4769 28.2263 22.6305 28.2229 22.7802 28.2494C22.93 28.2758 23.0731 28.3314 23.2013 28.4132C23.3296 28.495 23.4404 28.6012 23.5276 28.7258L27.2821 34.0881L43.8505 22.4828C43.9748 22.3948 44.1152 22.3323 44.2638 22.2989C44.4124 22.2656 44.5662 22.262 44.7161 22.2885C44.8661 22.3149 45.0093 22.3709 45.1376 22.453C45.2658 22.5352 45.3764 22.642 45.4631 22.7672L49.2309 28.1485C49.3182 28.273 49.3801 28.4135 49.413 28.562C49.446 28.7105 49.4494 28.864 49.4229 29.0138C49.3965 29.1635 49.3409 29.3066 49.2591 29.4349C49.1773 29.5631 49.0711 29.674 48.9465 29.7611L26.8144 45.2572C26.3555 45.5678 25.7932 45.6861 25.248 45.5869C24.7029 45.4876 24.2183 45.1787 23.8983 44.7263Z" fill="#FFE975"/>
<path d="M23.9034 44.6662L16.2888 33.8177C16.2001 33.6937 16.137 33.5532 16.1032 33.4045C16.0694 33.2558 16.0657 33.1018 16.0922 32.9516C16.1187 32.8015 16.1748 32.6581 16.2574 32.5299C16.34 32.4017 16.4474 32.2913 16.5732 32.2051L21.9165 28.4639C22.0408 28.3759 22.1813 28.3134 22.3299 28.28C22.4785 28.2467 22.6322 28.2431 22.7822 28.2695C22.9322 28.296 23.0754 28.3519 23.2036 28.4341C23.3318 28.5163 23.4425 28.6231 23.5291 28.7483L27.2881 34.1169L43.8691 22.5027C43.9931 22.414 44.1336 22.3509 44.2823 22.3171C44.431 22.2834 44.585 22.2796 44.7352 22.3061C44.8854 22.3326 45.0288 22.3888 45.157 22.4714C45.2852 22.554 45.3956 22.6613 45.4818 22.7871L49.223 28.1305C49.3124 28.2542 49.3761 28.3947 49.4103 28.5435C49.4445 28.6924 49.4484 28.8466 49.4219 28.9969C49.3954 29.1473 49.3389 29.2909 49.2559 29.419C49.1729 29.5472 49.065 29.6574 48.9386 29.7431L26.8814 45.1914C26.6521 45.3544 26.3926 45.4702 26.1181 45.5321C25.8437 45.5939 25.5596 45.6006 25.2825 45.5518C25.0054 45.5029 24.7408 45.3995 24.5041 45.2474C24.2673 45.0954 24.0631 44.8979 23.9034 44.6662Z" fill="#FFE975"/>
<path d="M23.9129 44.6125L16.3337 33.8145C16.2484 33.6929 16.1879 33.5557 16.1557 33.4107C16.1235 33.2657 16.1202 33.1157 16.146 32.9694C16.1718 32.8232 16.2262 32.6834 16.306 32.5581C16.3859 32.4329 16.4897 32.3246 16.6115 32.2395L21.9178 28.5195C22.1644 28.3471 22.4694 28.2796 22.7657 28.3318C23.062 28.3841 23.3255 28.5519 23.4982 28.7983L27.265 34.1849L43.8587 22.5619C43.9803 22.4766 44.1175 22.4161 44.2626 22.3839C44.4076 22.3517 44.5575 22.3484 44.7038 22.3742C44.8501 22.4 44.9899 22.4544 45.1151 22.5342C45.2403 22.6141 45.3486 22.7179 45.4337 22.8396L49.1537 28.146C49.3262 28.3926 49.3937 28.6975 49.3414 28.9938C49.2891 29.2902 49.1214 29.5536 48.875 29.7263L26.8747 45.1348C26.4125 45.4578 25.8411 45.5842 25.2858 45.4862C24.7305 45.3883 24.2367 45.0741 23.9129 44.6125Z" fill="#FFE975"/>
<path d="M23.917 44.5578L16.3903 33.8079C16.306 33.6875 16.2462 33.5517 16.2143 33.4082C16.1825 33.2646 16.1792 33.1163 16.2048 32.9715C16.2303 32.8267 16.2841 32.6884 16.3631 32.5645C16.4421 32.4405 16.5448 32.3333 16.6652 32.249L21.938 28.5619C22.0584 28.4775 22.1943 28.4178 22.3378 28.3859C22.4813 28.3541 22.6297 28.3508 22.7744 28.3764C22.9192 28.4019 23.0575 28.4557 23.1815 28.5347C23.3055 28.6137 23.4126 28.7164 23.4969 28.8368L27.2735 34.2307L43.8799 22.5989C44.0003 22.5145 44.1361 22.4547 44.2796 22.4229C44.4231 22.391 44.5715 22.3878 44.7163 22.4133C44.8611 22.4389 44.9994 22.4927 45.1233 22.5717C45.2473 22.6507 45.3545 22.7533 45.4388 22.8738L49.1259 28.1466C49.2103 28.267 49.2701 28.4028 49.3019 28.5463C49.3337 28.6899 49.3369 28.8382 49.3114 28.983C49.2859 29.1278 49.2321 29.2661 49.1531 29.3901C49.0741 29.514 48.9714 29.6212 48.851 29.7055L26.9067 45.0795C26.6767 45.2431 26.4165 45.3594 26.1412 45.4217C25.8659 45.4841 25.581 45.4912 25.3029 45.4427C25.0249 45.3941 24.7592 45.2909 24.5213 45.1391C24.2834 44.9872 24.078 44.7896 23.917 44.5578Z" fill="#FFE975"/>
<path d="M23.9211 44.5031L16.4172 33.8126C16.3316 33.6942 16.2707 33.5599 16.2381 33.4175C16.2054 33.2751 16.2016 33.1276 16.227 32.9837C16.2524 32.8399 16.3064 32.7026 16.3858 32.5799C16.4652 32.4573 16.5684 32.3519 16.6893 32.2699L21.9251 28.604C22.0432 28.5192 22.1772 28.4589 22.319 28.4267C22.4608 28.3944 22.6076 28.3908 22.7508 28.4161C22.894 28.4413 23.0307 28.4949 23.153 28.5738C23.2752 28.6526 23.3804 28.755 23.4625 28.8751L27.2479 34.2816L43.8606 22.6453C43.979 22.5598 44.1134 22.4989 44.2558 22.4662C44.3982 22.4335 44.5457 22.4298 44.6895 22.4552C44.8334 22.4805 44.9707 22.5345 45.0933 22.6139C45.2159 22.6933 45.3214 22.7965 45.4034 22.9174L49.0693 28.1532C49.154 28.2714 49.2143 28.4053 49.2466 28.5471C49.2788 28.6889 49.2824 28.8358 49.2572 28.979C49.2319 29.1222 49.1783 29.2589 49.0995 29.3811C49.0207 29.5033 48.9182 29.6086 48.7982 29.6906L26.9054 45.0238C26.6754 45.1859 26.4156 45.301 26.141 45.3626C25.8664 45.4241 25.5824 45.4309 25.3052 45.3825C25.028 45.3342 24.7631 45.2316 24.5255 45.0807C24.288 44.9298 24.0826 44.7335 23.9211 44.5031Z" fill="#FFE975"/>
<path d="M23.9306 44.4493L16.4513 33.8076C16.369 33.6901 16.3106 33.5575 16.2795 33.4175C16.2484 33.2774 16.2453 33.1326 16.2702 32.9913C16.2951 32.8501 16.3476 32.7151 16.4247 32.5941C16.5018 32.4731 16.602 32.3685 16.7196 32.2863L21.9229 28.6479C22.1596 28.4832 22.4519 28.4189 22.736 28.469C23.02 28.519 23.2726 28.6795 23.4387 28.9152L27.2331 34.3344L43.8593 22.6839C43.9768 22.6016 44.1094 22.5432 44.2494 22.5121C44.3895 22.481 44.5343 22.4778 44.6756 22.5028C44.8169 22.5277 44.9518 22.5802 45.0728 22.6573C45.1938 22.7344 45.2984 22.8346 45.3806 22.9522L49.019 28.1555C49.1837 28.3922 49.2481 28.6845 49.198 28.9685C49.1479 29.2526 48.9875 29.5052 48.7517 29.6713L26.9149 44.9701C26.4498 45.296 25.8745 45.4242 25.3151 45.3265C24.7556 45.2289 24.2578 44.9135 23.9306 44.4493Z" fill="#FFE975"/>
<path d="M23.9328 44.4054L16.4997 33.8161C16.3397 33.5809 16.2779 33.2926 16.3273 33.0125C16.3767 32.7324 16.5334 32.4826 16.7642 32.3164L21.9251 28.6982C22.1608 28.5366 22.4505 28.474 22.7319 28.5236C23.0133 28.5732 23.264 28.7312 23.4302 28.9636L27.228 34.3945L43.866 22.7405C44.1012 22.5805 44.3895 22.5187 44.6696 22.5681C44.9497 22.6175 45.1995 22.7742 45.3657 23.005L48.9839 28.1659C49.1439 28.4011 49.2058 28.6894 49.1564 28.9695C49.107 29.2496 48.9502 29.4994 48.7194 29.6657L26.9323 44.9344C26.4619 45.2543 25.8852 45.3781 25.325 45.2793C24.7648 45.1805 24.2653 44.8669 23.9328 44.4054Z" fill="#FFE975"/>
<path d="M23.9397 44.3345L16.5465 33.8022C16.4662 33.6881 16.4093 33.5593 16.379 33.4232C16.3486 33.2871 16.3455 33.1463 16.3697 33.0089C16.3939 32.8715 16.445 32.7403 16.5201 32.6228C16.5952 32.5052 16.6927 32.4037 16.8072 32.3239L21.9302 28.7323C22.1637 28.577 22.4481 28.5175 22.7243 28.5662C23.0006 28.6149 23.2475 28.7681 23.4138 28.994L27.2204 34.4375L43.8926 22.7785C44.0066 22.6982 44.1354 22.6413 44.2716 22.6109C44.4077 22.5806 44.5485 22.5774 44.6859 22.6016C44.8232 22.6259 44.9544 22.677 45.072 22.7521C45.1895 22.8272 45.2911 22.9247 45.3708 23.0392L48.9624 28.1621C49.1178 28.3957 49.1772 28.68 49.1285 28.9563C49.0798 29.2325 48.9266 29.4794 48.7008 29.6457L26.9661 44.8683C26.4931 45.1961 25.9098 45.3239 25.3431 45.224C24.7764 45.124 24.272 44.8044 23.9397 44.3345Z" fill="#FFE975"/>
<path d="M23.9492 44.2808L16.586 33.7981C16.4273 33.5697 16.3653 33.2878 16.4136 33.0139C16.4619 32.74 16.6166 32.4963 16.8439 32.336L21.9026 28.794C22.131 28.6353 22.4129 28.5733 22.6868 28.6216C22.9608 28.6699 23.2045 28.8246 23.3648 29.0519L27.1812 34.5027L43.8859 22.8161C44.1143 22.6574 44.3962 22.5954 44.6701 22.6437C44.944 22.692 45.1877 22.8467 45.348 23.074L48.8853 28.1596C48.9653 28.2722 49.0221 28.3996 49.0525 28.5343C49.0829 28.6691 49.0862 28.8085 49.0622 28.9446C49.0382 29.0806 48.9874 29.2105 48.9127 29.3268C48.8381 29.443 48.7411 29.5433 48.6274 29.6217L26.9487 44.8098C26.4784 45.1297 25.9017 45.2535 25.3415 45.1547C24.7813 45.0559 24.2817 44.7423 23.9492 44.2808Z" fill="#FFE975"/>
<path d="M23.9533 44.2261L16.63 33.8003C16.4732 33.5744 16.412 33.2956 16.4597 33.0248C16.5075 32.754 16.6604 32.513 16.885 32.3543L21.9438 28.8123C22.1687 28.6557 22.4465 28.5945 22.7165 28.6421C22.9864 28.6897 23.2266 28.8423 23.3844 29.0664L27.2097 34.5299L43.8783 22.8591C44.1033 22.7025 44.3811 22.6413 44.6511 22.6889C44.921 22.7365 45.1611 22.889 45.319 23.1132L48.8609 28.1719C49.0176 28.3969 49.0788 28.6747 49.0312 28.9447C48.9836 29.2146 48.831 29.4547 48.6069 29.6125L26.9797 44.7598C26.5067 45.0877 25.9234 45.2155 25.3567 45.1155C24.7899 45.0156 24.2856 44.6959 23.9533 44.2261Z" fill="#FFE975"/>
<path d="M23.9628 44.1723L16.6695 33.7962C16.5148 33.5737 16.4544 33.299 16.5014 33.0321C16.5485 32.7653 16.6993 32.5278 16.9207 32.3717L21.9406 28.8617C22.0501 28.7844 22.1737 28.7296 22.3044 28.7004C22.4351 28.6712 22.5704 28.6681 22.7023 28.6914C22.8342 28.7146 22.9602 28.7638 23.073 28.8359C23.1859 28.9081 23.2833 29.0019 23.3597 29.1119L27.1939 34.588L43.8771 22.8977C44.0996 22.743 44.3742 22.6826 44.6411 22.7296C44.908 22.7767 45.1454 22.9274 45.3016 23.1489L48.8116 28.1688C48.8888 28.2782 48.9436 28.4019 48.9729 28.5326C49.0021 28.6633 49.0052 28.7985 48.9819 28.9304C48.9586 29.0623 48.9095 29.1883 48.8373 29.3012C48.7651 29.414 48.6713 29.5115 48.5613 29.5879L26.9901 44.7007C26.5177 45.0294 25.9347 45.1582 25.3678 45.0593C24.8008 44.9603 24.2959 44.6416 23.9628 44.1723Z" fill="#FFE975"/>
<path d="M23.9669 44.1176L16.7144 33.793C16.5618 33.5739 16.5022 33.3034 16.5485 33.0404C16.5949 32.7775 16.7435 32.5437 16.9618 32.39L21.9394 28.9002C22.1594 28.7475 22.4309 28.6879 22.6947 28.7344C22.9585 28.7809 23.1932 28.9298 23.3477 29.1486L27.1854 34.6364L43.8803 22.9426C44.0993 22.79 44.3699 22.7303 44.6328 22.7767C44.8957 22.8231 45.1296 22.9717 45.2832 23.19L48.773 28.1675C48.9256 28.3866 48.9853 28.6572 48.9389 28.9201C48.8925 29.183 48.7439 29.4169 48.5256 29.5705L27.0258 44.6238C26.7922 44.7926 26.5274 44.9135 26.2468 44.9794C25.9662 45.0453 25.6753 45.0551 25.3909 45.008C25.1065 44.9609 24.8343 44.858 24.5899 44.7052C24.3455 44.5524 24.1337 44.3527 23.9669 44.1176Z" fill="#FFE975"/>
<path d="M23.9719 44.0576L16.7593 33.7898C16.6833 33.6836 16.6294 33.5632 16.6005 33.4358C16.5716 33.3085 16.5684 33.1766 16.5911 33.048C16.6138 32.9193 16.6619 32.7965 16.7326 32.6867C16.8033 32.5769 16.8952 32.4822 17.0029 32.4084L21.9425 28.9451C22.1591 28.7945 22.4265 28.7356 22.6864 28.7815C22.9462 28.8273 23.1774 28.974 23.3294 29.1897L27.1768 34.6848L43.8843 22.9821C43.9909 22.9069 44.1112 22.8535 44.2385 22.825C44.3658 22.7965 44.4974 22.7935 44.6259 22.8162C44.7543 22.8388 44.8769 22.8867 44.9868 22.957C45.0966 23.0273 45.1915 23.1186 45.2658 23.2257L48.7281 28.1707C48.8788 28.3873 48.9376 28.6547 48.8918 28.9145C48.846 29.1744 48.6992 29.4055 48.4835 29.5575L27.016 44.6166C26.7797 44.7804 26.5133 44.8959 26.2322 44.9565C25.951 45.0171 25.6607 45.0216 25.3778 44.9696C25.095 44.9177 24.8251 44.8104 24.5839 44.6538C24.3426 44.4973 24.1347 44.2947 23.9719 44.0576Z" fill="#FFE975"/>
<path d="M23.9814 44.0038L16.7988 33.7857C16.6503 33.5725 16.5922 33.3092 16.6373 33.0533C16.6825 32.7974 16.8271 32.5699 17.0396 32.4204L21.9457 28.99C22.0507 28.9151 22.1697 28.8617 22.2956 28.8332C22.4214 28.8047 22.5518 28.8016 22.6789 28.824C22.806 28.8464 22.9274 28.894 23.0359 28.9638C23.1444 29.0336 23.238 29.1244 23.311 29.2308L27.1674 34.7386L43.8875 23.027C44.1007 22.8784 44.3641 22.8204 44.6199 22.8655C44.8758 22.9106 45.1034 23.0553 45.2529 23.2678L48.6886 28.1748C48.8371 28.388 48.8952 28.6513 48.8501 28.9072C48.805 29.1631 48.6603 29.3907 48.4478 29.5402L27.0293 44.5413C26.7941 44.7068 26.5285 44.8242 26.2478 44.8868C25.9672 44.9493 25.6769 44.9558 25.3937 44.9059C25.1104 44.8559 24.8399 44.7505 24.5975 44.5957C24.3552 44.4409 24.1458 44.2398 23.9814 44.0038Z" fill="#FFE975"/>
<path d="M23.9855 43.9491L16.8428 33.7879C16.6962 33.5772 16.6389 33.3171 16.6835 33.0642C16.7281 32.8114 16.8709 32.5865 17.0807 32.4387L21.9498 29.0296C22.1595 28.8831 22.4188 28.8258 22.6707 28.8702C22.9227 28.9147 23.1467 29.0572 23.2937 29.2666L27.1588 34.7869L43.8907 23.0719C44.1004 22.9254 44.3597 22.8681 44.6116 22.9126C44.8636 22.957 45.0876 23.0995 45.2346 23.3089L48.6437 28.1779C48.7901 28.3877 48.8474 28.6469 48.803 28.8989C48.7586 29.1508 48.6161 29.3748 48.4067 29.5218L27.0451 44.4831C26.8097 44.6506 26.5435 44.7698 26.2617 44.8336C25.98 44.8974 25.6884 44.9047 25.4038 44.855C25.1192 44.8054 24.8473 44.6997 24.6039 44.5442C24.3604 44.3887 24.1502 44.1864 23.9855 43.9491Z" fill="#FFE975"/>
<path d="M23.9896 43.8944L16.9057 33.7769C16.7612 33.5696 16.7047 33.3135 16.7486 33.0646C16.7924 32.8158 16.9331 32.5945 17.1399 32.4491L21.9764 29.0675C22.1827 28.9231 22.4378 28.8666 22.6858 28.9103C22.9338 28.9541 23.1542 29.0945 23.2987 29.3007L27.1727 34.8337L43.9128 23.1035C44.1201 22.959 44.3762 22.9025 44.6251 22.9464C44.8739 22.9903 45.0952 23.131 45.2406 23.3377L48.6222 28.1742C48.7665 28.3805 48.8231 28.6357 48.7793 28.8836C48.7356 29.1316 48.5952 29.352 48.389 29.4965L27.0834 44.4234C26.8472 44.5965 26.5786 44.7204 26.2936 44.7876C26.0086 44.8549 25.713 44.8641 25.4243 44.8147C25.1357 44.7654 24.86 44.6585 24.6135 44.5004C24.367 44.3422 24.1548 44.1362 23.9896 43.8944Z" fill="#FFE975"/>
<path d="M23.9953 43.8621L16.9019 33.7984C16.7595 33.5945 16.7037 33.3425 16.7469 33.0976C16.7901 32.8527 16.9287 32.635 17.1323 32.4921L21.9318 29.1317C22.1356 28.9893 22.3876 28.9335 22.6325 28.9767C22.8774 29.0199 23.0952 29.1585 23.238 29.3621L27.1155 34.9068L43.8673 23.1731C44.0712 23.0307 44.3232 22.9749 44.5681 23.0181C44.8129 23.0613 45.0307 23.1999 45.1735 23.4034L48.5349 28.1976C48.6773 28.4014 48.7331 28.6534 48.6899 28.8983C48.6467 29.1432 48.5081 29.361 48.3045 29.5038L27.0701 44.4044C26.5902 44.7395 25.997 44.8705 25.4206 44.7689C24.8442 44.6672 24.3316 44.3411 23.9953 43.8621Z" fill="#FFE975"/>
<path d="M24.0032 43.7859L16.9705 33.755C16.8302 33.5546 16.7753 33.3067 16.8177 33.0657C16.8602 32.8248 16.9967 32.6106 17.1971 32.4703L21.9587 29.1364C22.16 28.9959 22.4089 28.941 22.6507 28.9837C22.8925 29.0263 23.1076 29.163 23.2488 29.3639L27.1361 34.9159L43.9005 23.1734C44.1009 23.0331 44.3489 22.9781 44.5898 23.0206C44.8307 23.0631 45.0449 23.1996 45.1853 23.4L48.5191 28.1615C48.6596 28.3629 48.7145 28.6118 48.6719 28.8536C48.6292 29.0954 48.4925 29.3104 48.2916 29.4516L27.0935 44.3032C26.6145 44.6428 26.0207 44.7791 25.4416 44.6821C24.8626 44.5852 24.3454 44.263 24.0032 43.7859Z" fill="#FFE975"/>
<path d="M24.0136 43.7268L17.0135 33.7626C16.8751 33.5647 16.821 33.3199 16.8629 33.082C16.9049 32.8442 17.0395 32.6327 17.2372 32.494L21.9609 29.1867C22.1588 29.0483 22.4036 28.9942 22.6415 29.0361C22.8793 29.0781 23.0908 29.2127 23.2295 29.4104L27.1247 34.9805L43.9018 23.229C44.0997 23.0907 44.3445 23.0365 44.5824 23.0784C44.8202 23.1204 45.0317 23.255 45.1704 23.4528L48.4777 28.1764C48.6161 28.3743 48.6702 28.6191 48.6283 28.857C48.5863 29.0948 48.4517 29.3063 48.254 29.445L27.1064 44.2612C26.6252 44.5998 26.0294 44.7338 25.4495 44.6336C24.8697 44.5334 24.3533 44.2073 24.0136 43.7268Z" fill="#FFE975"/>
<path d="M24.0177 43.6721L17.0565 33.7702C16.9891 33.6739 16.9412 33.5652 16.9157 33.4504C16.8903 33.3356 16.8877 33.2169 16.9081 33.1011C16.9285 32.9853 16.9716 32.8746 17.0348 32.7755C17.098 32.6763 17.1801 32.5905 17.2765 32.5231L21.9621 29.2424C22.0585 29.1749 22.1671 29.127 22.2819 29.1016C22.3967 29.0761 22.5155 29.0735 22.6313 29.0939C22.7471 29.1144 22.8577 29.1574 22.9569 29.2206C23.0561 29.2838 23.1418 29.3659 23.2092 29.4623L27.1143 35.0396L43.903 23.2847C43.9988 23.2158 44.1075 23.1667 44.2225 23.1405C44.3376 23.1142 44.4568 23.1112 44.573 23.1317C44.6892 23.1522 44.8002 23.1958 44.8993 23.2598C44.9984 23.3239 45.0837 23.4071 45.1502 23.5046L48.4309 28.1903C48.4984 28.2866 48.5462 28.3953 48.5717 28.5101C48.5971 28.6249 48.5997 28.7436 48.5793 28.8594C48.5589 28.9752 48.5158 29.0859 48.4526 29.1851C48.3894 29.2842 48.3073 29.37 48.2109 29.4374L27.1149 44.2128C26.8764 44.3816 26.6068 44.5015 26.3218 44.5657C26.0367 44.6299 25.7417 44.637 25.4539 44.5868C25.166 44.5365 24.8909 44.4298 24.6445 44.2729C24.398 44.1159 24.185 43.9117 24.0177 43.6721Z" fill="#FFE975"/>
<path d="M24.0219 43.6174L17.0942 33.7768C16.9598 33.5848 16.9072 33.3472 16.9479 33.1164C16.9886 32.8856 17.1193 32.6804 17.3113 32.5459L21.9644 29.2926C22.0585 29.2247 22.1652 29.1764 22.2783 29.1505C22.3914 29.1246 22.5086 29.1217 22.6228 29.1418C22.7371 29.162 22.8462 29.2048 22.9436 29.2679C23.041 29.3309 23.1248 29.4128 23.19 29.5088L27.1038 35.0987L43.9008 23.3286C44.0929 23.1943 44.3304 23.1417 44.5613 23.1824C44.7921 23.2231 44.9973 23.3538 45.1318 23.5457L48.3851 28.1989C48.4529 28.293 48.5012 28.3997 48.5272 28.5128C48.5531 28.6259 48.556 28.743 48.5359 28.8573C48.5157 28.9716 48.4729 29.0806 48.4098 29.178C48.3468 29.2755 48.2649 29.3593 48.1689 29.4245L27.1289 44.1653C26.6441 44.5043 26.0445 44.6369 25.462 44.5342C24.8794 44.4315 24.3615 44.1017 24.0219 43.6174Z" fill="#FFE975"/>
<path d="M24.0313 43.5637L17.1371 33.7844C17.0717 33.691 17.0253 33.5856 17.0005 33.4743C16.9758 33.3629 16.9733 33.2478 16.9931 33.1355C17.0129 33.0231 17.0547 32.9158 17.116 32.8196C17.1773 32.7235 17.257 32.6403 17.3504 32.5749L21.9666 29.3429C22.0595 29.2775 22.1644 29.2311 22.2753 29.2064C22.3862 29.1817 22.5009 29.1791 22.6128 29.1988C22.7247 29.2186 22.8316 29.2602 22.9273 29.3214C23.023 29.3825 23.1058 29.462 23.1707 29.5553L27.0934 35.1578L43.9021 23.3843C43.9955 23.3188 44.1009 23.2724 44.2122 23.2477C44.3236 23.2229 44.4387 23.2204 44.5511 23.2402C44.6634 23.26 44.7707 23.3018 44.8669 23.3631C44.9631 23.4244 45.0462 23.5041 45.1116 23.5976L48.3446 28.2083C48.4101 28.3017 48.4565 28.4071 48.4812 28.5185C48.5059 28.6298 48.5084 28.745 48.4886 28.8573C48.4688 28.9696 48.4271 29.077 48.3657 29.1731C48.3044 29.2693 48.2248 29.3525 48.1313 29.4178L27.1418 44.1233C26.6549 44.4607 26.054 44.5913 25.4709 44.4864C24.8878 44.3815 24.3702 44.0497 24.0313 43.5637Z" fill="#FFE975"/>
<path d="M24.0354 43.509L17.1748 33.7911C17.1103 33.6994 17.0647 33.5959 17.0403 33.4865C17.016 33.3771 17.0134 33.2639 17.0329 33.1536C17.0524 33.0432 17.0934 32.9378 17.1537 32.8433C17.214 32.7488 17.2924 32.6672 17.3843 32.6031L21.9625 29.3976C22.1491 29.2687 22.379 29.2186 22.6024 29.2579C22.8257 29.2973 23.0246 29.4231 23.1558 29.6081L27.083 35.217L43.9043 23.4346C43.996 23.3701 44.0995 23.3244 44.2089 23.3001C44.3183 23.2757 44.4315 23.2732 44.5418 23.2927C44.6522 23.3121 44.7576 23.3532 44.8521 23.4135C44.9465 23.4738 45.0282 23.5522 45.0923 23.6441L48.2978 28.2223C48.4267 28.4089 48.4768 28.6388 48.4374 28.8621C48.398 29.0855 48.2723 29.2843 48.0873 29.4156L27.1548 44.0812C26.6647 44.4173 26.0615 44.5458 25.4771 44.4386C24.8926 44.3313 24.3743 43.9971 24.0354 43.509Z" fill="#FFE975"/>
<path d="M24.0395 43.4542L17.2244 33.761C17.161 33.671 17.116 33.5694 17.0921 33.462C17.0681 33.3545 17.0656 33.2434 17.0847 33.135C17.1038 33.0266 17.1442 32.923 17.2035 32.8303C17.2627 32.7375 17.3398 32.6574 17.4301 32.5945L21.9713 29.4103C22.1545 29.2835 22.3803 29.2341 22.5997 29.2728C22.8191 29.3115 23.0144 29.4351 23.1432 29.6169L27.0782 35.2438L43.9122 23.4526C44.0954 23.3258 44.3212 23.2764 44.5406 23.3151C44.76 23.3538 44.9553 23.4775 45.0841 23.6593L48.263 28.1995C48.3898 28.3827 48.4392 28.6085 48.4005 28.8279C48.3618 29.0473 48.2381 29.2426 48.0563 29.3714L27.1889 43.9819C26.7011 44.3291 26.0956 44.4686 25.5051 44.3696C24.9146 44.2707 24.3875 43.9415 24.0395 43.4542Z" fill="#FFE975"/>
<path d="M24.05 43.3951L17.2693 33.7579C17.2062 33.6693 17.1613 33.5691 17.1373 33.4631C17.1133 33.357 17.1106 33.2472 17.1295 33.1401C17.1484 33.033 17.1885 32.9308 17.2473 32.8394C17.3061 32.7479 17.3826 32.6691 17.4722 32.6075L21.9745 29.4552C22.0633 29.3927 22.1635 29.3484 22.2694 29.3248C22.3754 29.3012 22.4849 29.2988 22.5918 29.3176C22.6987 29.3365 22.8008 29.3763 22.8923 29.4347C22.9837 29.4931 23.0628 29.569 23.1248 29.658L27.0697 35.2922L43.9164 23.4921C44.0051 23.4297 44.1054 23.3854 44.2113 23.3618C44.3172 23.3382 44.4268 23.3357 44.5337 23.3546C44.6406 23.3734 44.7426 23.4132 44.8341 23.4716C44.9256 23.53 45.0046 23.6059 45.0667 23.695L48.2181 28.2027C48.2805 28.2914 48.3248 28.3917 48.3484 28.4976C48.372 28.6035 48.3745 28.7131 48.3556 28.82C48.3368 28.9269 48.297 29.029 48.2386 29.1204C48.1802 29.2119 48.1043 29.291 48.0152 29.353L27.1854 43.9702C26.6933 44.3097 26.0866 44.4398 25.4986 44.332C24.9106 44.2241 24.3895 43.8871 24.05 43.3951Z" fill="#FFE975"/>
<path d="M24.0579 43.3189L17.3117 33.7376C17.189 33.5603 17.1411 33.3417 17.1786 33.1294C17.216 32.917 17.3358 32.728 17.5117 32.6034L21.9824 29.4732C22.0695 29.4118 22.1678 29.3682 22.2718 29.345C22.3758 29.3218 22.4833 29.3193 22.5883 29.3378C22.6932 29.3563 22.7934 29.3954 22.8831 29.4528C22.9729 29.5102 23.0504 29.5848 23.1113 29.6723L27.065 35.3191L43.9132 23.5414C44.0905 23.4187 44.3091 23.3709 44.5214 23.4083C44.7338 23.4458 44.9228 23.5655 45.0474 23.7415L48.1776 28.2122C48.239 28.2992 48.2826 28.3976 48.3058 28.5016C48.3291 28.6055 48.3315 28.7131 48.313 28.818C48.2945 28.9229 48.2554 29.0232 48.198 29.1129C48.1406 29.2027 48.066 29.2802 47.9786 29.341L27.2025 43.8735C26.7118 44.2165 26.105 44.3507 25.5155 44.2467C24.9259 44.1427 24.4016 43.809 24.0579 43.3189Z" fill="#FFE975"/>
<path d="M24.0635 43.2867L17.3528 33.7559C17.2322 33.5821 17.1851 33.3676 17.2219 33.1592C17.2586 32.9508 17.3762 32.7653 17.549 32.6432L21.9754 29.544C22.0608 29.4836 22.1573 29.4408 22.2593 29.4179C22.3613 29.3951 22.4669 29.3927 22.5698 29.4108C22.6728 29.429 22.7711 29.4674 22.8592 29.5237C22.9472 29.5801 23.0232 29.6534 23.0828 29.7393L27.0722 35.4035L43.9379 23.5901C44.0235 23.529 44.1204 23.4855 44.223 23.4623C44.3256 23.439 44.4318 23.4364 44.5354 23.4547C44.639 23.473 44.7379 23.5117 44.8264 23.5687C44.9148 23.6256 44.991 23.6996 45.0506 23.7864L48.1498 28.2128C48.2704 28.3866 48.3175 28.6011 48.2807 28.8095C48.244 29.0179 48.1264 29.2034 47.9535 29.3255L27.2297 43.845C26.9858 44.018 26.7099 44.1409 26.4182 44.2065C26.1264 44.2721 25.8245 44.2791 25.53 44.2272C25.2355 44.1752 24.9542 44.0654 24.7025 43.9039C24.4508 43.7425 24.2336 43.5327 24.0635 43.2867Z" fill="#FFE975"/>
<path d="M24.0676 43.232L17.3942 33.7411C17.2804 33.5722 17.2366 33.3658 17.2719 33.1652C17.3073 32.9647 17.4191 32.7857 17.5838 32.666L22.0055 29.5937C22.1748 29.4812 22.3808 29.4381 22.581 29.4734C22.7811 29.5087 22.96 29.6197 23.0806 29.7833L27.0653 35.4744L43.9436 23.6521C44.1124 23.5383 44.3189 23.4944 44.5194 23.5298C44.7199 23.5652 44.8989 23.677 45.0186 23.8417L48.0957 28.2365C48.2109 28.4049 48.2556 28.6118 48.2201 28.8127C48.1847 29.0137 48.072 29.1928 47.9061 29.3116L27.2392 43.7913C26.9945 43.9636 26.7182 44.0859 26.4261 44.1511C26.134 44.2163 25.8318 44.2231 25.5371 44.1711C25.2424 44.1191 24.9608 44.0094 24.7086 43.8482C24.4564 43.6871 24.2386 43.4776 24.0676 43.232Z" fill="#FFE975"/>
<path d="M24.0718 43.1772L17.4211 33.7458C17.3626 33.6629 17.3212 33.5692 17.2991 33.4702C17.277 33.3712 17.2747 33.2688 17.2923 33.1688C17.3099 33.0689 17.3471 32.9735 17.4018 32.888C17.4564 32.8025 17.5274 32.7287 17.6107 32.6707L21.9685 29.6148C22.1365 29.4982 22.3437 29.4527 22.5451 29.4883C22.7465 29.5238 22.9256 29.6374 23.0436 29.8044L27.0283 35.4955L43.9192 23.6644C44.0872 23.5478 44.2944 23.5024 44.4958 23.5379C44.6972 23.5734 44.8764 23.687 44.9943 23.854L48.0448 28.2109C48.1614 28.3789 48.2069 28.5861 48.1714 28.7875C48.1359 28.9889 48.0222 29.168 47.8552 29.286L27.2388 43.7302C26.7448 44.0747 26.1347 44.2099 25.5414 44.1063C24.9481 44.0027 24.4198 43.6688 24.0718 43.1772Z" fill="#FFE975"/>
<path d="M24.0822 43.1181L17.4768 33.7446C17.4169 33.6621 17.3742 33.5685 17.3513 33.4692C17.3283 33.37 17.3256 33.2671 17.3433 33.1668C17.361 33.0664 17.3988 32.9707 17.4542 32.8852C17.5097 32.7998 17.5819 32.7264 17.6664 32.6695L21.9906 29.6464C22.0731 29.5866 22.1667 29.5439 22.266 29.521C22.3652 29.498 22.4681 29.4953 22.5684 29.513C22.6688 29.5307 22.7645 29.5685 22.85 29.624C22.9354 29.6795 23.0088 29.7516 23.0657 29.836L27.0504 35.5272L43.954 23.6872C44.0364 23.6273 44.1301 23.5846 44.2293 23.5617C44.3286 23.5388 44.4315 23.5361 44.5318 23.5538C44.6321 23.5715 44.7279 23.6092 44.8133 23.6647C44.8987 23.7202 44.9721 23.7923 45.0291 23.8768L48.0521 28.2011C48.112 28.2835 48.1547 28.3772 48.1776 28.4764C48.2005 28.5757 48.2032 28.6786 48.1855 28.7789C48.1678 28.8792 48.1301 28.975 48.0746 29.0604C48.0191 29.1459 47.9469 29.2192 47.8625 29.2762L27.3021 43.686C27.0548 43.8641 26.7743 43.9909 26.4772 44.0588C26.1801 44.1268 25.8724 44.1345 25.5723 44.0816C25.2722 44.0286 24.9857 43.9161 24.7297 43.7506C24.4738 43.5852 24.2536 43.3701 24.0822 43.1181Z" fill="#FFE975"/>
<path d="M24.0863 43.0634L17.5207 33.7468C17.4081 33.5847 17.3642 33.3847 17.3985 33.1903C17.4328 32.996 17.5424 32.8231 17.7036 32.7093L21.991 29.7075C22.1521 29.5951 22.3512 29.5512 22.5446 29.5853C22.7381 29.6194 22.9101 29.7288 23.023 29.8895L27.0078 35.5806L43.9176 23.7362C44.0797 23.6237 44.2797 23.5797 44.4741 23.614C44.6684 23.6483 44.8413 23.758 44.9551 23.9192L47.9569 28.2065C48.0693 28.3676 48.1133 28.5667 48.0791 28.7601C48.045 28.9536 47.9356 29.1256 47.7749 29.2386L27.266 43.6076C26.7712 43.9541 26.1597 44.0913 25.5642 43.9894C24.9688 43.8875 24.4377 43.5547 24.0863 43.0634Z" fill="#FFE975"/>
<path d="M24.0904 43.0087L17.571 33.7445C17.5149 33.6665 17.4749 33.578 17.4535 33.4843C17.4321 33.3905 17.4297 33.2935 17.4464 33.1988C17.4631 33.1041 17.4986 33.0137 17.5507 32.933C17.6029 32.8522 17.6707 32.7827 17.7501 32.7286L21.9995 29.7533C22.1572 29.643 22.3522 29.5999 22.5417 29.6333C22.7312 29.6667 22.8996 29.774 23.0101 29.9315L26.9948 35.6227L43.9173 23.7694C43.9954 23.7133 44.0839 23.6734 44.1776 23.652C44.2713 23.6306 44.3684 23.6282 44.4631 23.6449C44.5577 23.6616 44.6481 23.697 44.7289 23.7492C44.8096 23.8014 44.8791 23.8692 44.9333 23.9486L47.9095 28.1926C48.0199 28.3512 48.0631 28.5472 48.0295 28.7375C47.996 28.9279 47.8884 29.0973 47.7303 29.2085L27.2774 43.5431C26.7828 43.8914 26.1708 44.0307 25.5741 43.9307C24.9775 43.8307 24.4443 43.4994 24.0904 43.0087Z" fill="#FFE975"/>
<path d="M27.2992 43.5136C26.8001 43.8626 26.183 43.9992 25.5833 43.8934C24.9836 43.7876 24.4504 43.4482 24.1008 42.9496L17.6061 33.7341C17.4977 33.5789 17.4553 33.387 17.4882 33.2006C17.5211 33.0142 17.6265 32.8484 17.7815 32.7396L21.9929 29.791C22.0697 29.7358 22.1568 29.6966 22.249 29.6755C22.3413 29.6545 22.4368 29.6522 22.5299 29.6686C22.6231 29.685 22.712 29.7199 22.7915 29.7712C22.8709 29.8225 22.9394 29.8892 22.9927 29.9673L26.9727 35.6853L43.9078 23.8232C44.0631 23.7148 44.2549 23.6724 44.4413 23.7053C44.6277 23.7382 44.7935 23.8437 44.9023 23.9986L47.8564 28.2109C47.9649 28.3671 48.0072 28.5599 47.9742 28.7472C47.9412 28.9345 47.8354 29.1011 47.68 29.2108L27.2992 43.5136Z" fill="#FFE975"/>
</g>
<path d="M24.7046 42.3247L17.2542 31.6769C17.0614 31.3999 16.986 31.0578 17.0446 30.7255C17.1033 30.3931 17.2911 30.0974 17.567 29.903L22.9989 26.0999C23.2759 25.907 23.618 25.8317 23.9504 25.8903C24.2827 25.949 24.5784 26.1368 24.7727 26.4127L27.9906 31.0152L42.6113 20.7736C42.8884 20.5808 43.2305 20.5055 43.5628 20.5641C43.8952 20.6227 44.1909 20.8105 44.3852 21.0864L48.1884 26.5183C48.3812 26.7953 48.4566 27.1374 48.3979 27.4698C48.3393 27.8021 48.1515 28.0978 47.8756 28.2922L27.2096 42.7665C26.8181 43.0379 26.3353 43.1438 25.8662 43.0611C25.3971 42.9784 24.9796 42.7137 24.7046 42.3247Z" fill="url(#paint1_linear_202_394)"/>
<path d="M17.4732 30.4358L22.905 26.6326C23.182 26.4398 23.5241 26.3645 23.8565 26.4231C24.1889 26.4817 24.4845 26.6695 24.6789 26.9455L27.8977 31.5426L42.5175 21.3063C42.7945 21.1135 43.1366 21.0382 43.469 21.0968C43.8014 21.1554 44.097 21.3432 44.2914 21.6192L48.0946 27.051C48.235 27.2501 48.3148 27.4855 48.3242 27.7289C48.4047 27.5311 48.4345 27.3163 48.411 27.1041C48.3874 26.8918 48.3113 26.6888 48.1894 26.5135L44.3862 21.0816C44.1918 20.8057 43.8962 20.6179 43.5638 20.5593C43.2314 20.5006 42.8893 20.576 42.6123 20.7688L27.9915 31.0104L24.7737 26.4079C24.5793 26.132 24.2837 25.9442 23.9513 25.8856C23.6189 25.8269 23.2768 25.9023 22.9998 26.0951L17.568 29.8983C17.3938 30.0217 17.2531 30.1865 17.1584 30.3778C17.0637 30.5691 17.018 30.7809 17.0255 30.9942C17.1176 30.7688 17.2731 30.5748 17.4732 30.4358Z" fill="white"/>
<path d="M47.9999 27.5879L27.3339 42.0622C26.9424 42.3337 26.4596 42.4396 25.9905 42.3569C25.5213 42.2741 25.1039 42.0095 24.8289 41.6205L17.3785 30.9727C17.2563 30.7964 17.1799 30.5924 17.1561 30.3792C17.0541 30.5843 17.0094 30.8132 17.0266 31.0416C17.0439 31.27 17.1226 31.4895 17.2543 31.6769L24.7047 42.3247C24.9797 42.7136 25.3972 42.9783 25.8663 43.0611C26.3354 43.1438 26.8182 43.0379 27.2097 42.7664L47.8757 28.2921C48.0637 28.1599 48.2128 27.9796 48.3073 27.77C48.4018 27.5605 48.4382 27.3294 48.4128 27.101C48.3182 27.2954 48.1762 27.4628 47.9999 27.5879Z" fill="#FEFFB6"/>
</g>
<defs>
<filter id="filter0_f_202_394" x="3.05176" y="47.1758" width="104.331" height="46.877" filterUnits="userSpaceOnUse" color-interpolation-filters="sRGB">
<feFlood flood-opacity="0" result="BackgroundImageFix"/>
<feBlend mode="normal" in="SourceGraphic" in2="BackgroundImageFix" result="shape"/>
<feGaussianBlur stdDeviation="6" result="effect1_foregroundBlur_202_394"/>
</filter>
<filter id="filter1_f_202_394" x="9.16943" y="15.4111" width="47.1152" height="37.2227" filterUnits="userSpaceOnUse" color-interpolation-filters="sRGB">
<feFlood flood-opacity="0" result="BackgroundImageFix"/>
<feBlend mode="normal" in="SourceGraphic" in2="BackgroundImageFix" result="shape"/>
<feGaussianBlur stdDeviation="3" result="effect1_foregroundBlur_202_394"/>
</filter>
<linearGradient id="paint0_linear_202_394" x1="53.8692" y1="65.7038" x2="67.6041" y2="105.653" gradientUnits="userSpaceOnUse">
<stop stop-color="#194064"/>
<stop offset="1" stop-color="#353B41" stop-opacity="0"/>
</linearGradient>
<linearGradient id="paint1_linear_202_394" x1="17.1133" y1="45.6954" x2="45.0299" y2="24.8612" gradientUnits="userSpaceOnUse">
<stop stop-color="#2E79EB"/>
<stop offset="1" stop-color="#8FBBFF"/>
</linearGradient>
<clipPath id="clip0_202_394">
<rect width="57.6954" height="57.6954" fill="white" transform="translate(10.0205) rotate(10.0017)"/>
</clipPath>
</defs>
</svg>
