<svg width="450" height="904" viewBox="0 0 450 904" fill="none" xmlns="http://www.w3.org/2000/svg">
<rect x="3.26831" width="443.463" height="903.759" rx="50" fill="url(#paint0_linear_199_213)"/>
<g clip-path="url(#clip0_199_213)">
<rect x="20.6506" y="17.1328" width="408.596" height="869.493" rx="36" fill="#2273EF"/>
<rect x="13.6506" y="220.71" width="430" height="681" fill="#F1F4F7"/>
<path d="M66.6226 110.714C66.7666 109.814 66.8386 108.806 66.8386 107.762C66.8386 106.502 66.7306 105.314 66.5146 104.234H72.2746V110.714H66.6226ZM58.2706 115.322C55.8586 115.322 54.2026 112.694 54.2026 107.762C54.2026 102.866 55.8586 100.238 58.2706 100.238C60.7186 100.238 62.3746 102.866 62.3746 107.762C62.3746 112.694 60.7186 115.322 58.2706 115.322ZM72.2746 93.614V100.418H65.2186C63.7426 97.574 61.2586 95.954 58.2706 95.954C53.3386 95.954 49.7026 100.49 49.7026 107.762C49.7026 115.07 53.3386 119.642 58.2706 119.642C61.4746 119.678 64.0306 117.806 65.5066 114.566H72.2746V126.878H77.0266V93.614H72.2746ZM92.9718 95.846C87.7878 95.846 83.8638 99.266 83.8638 104.018C83.8638 108.806 87.7878 112.19 92.9718 112.19C98.1558 112.19 102.116 108.806 102.116 104.018C102.116 99.266 98.1558 95.846 92.9718 95.846ZM92.9718 99.914C95.5278 99.914 97.4718 101.426 97.4718 104.018C97.4718 106.61 95.5278 108.122 92.9718 108.122C90.4158 108.122 88.4718 106.61 88.4718 104.018C88.4718 101.426 90.4158 99.914 92.9718 99.914ZM105.212 93.614V126.878H109.964V93.614H105.212ZM83.0718 120.146C88.7958 120.146 96.5718 120.074 103.7 118.634L103.412 115.214C96.4278 116.258 88.2918 116.294 82.4598 116.294L83.0718 120.146ZM132.785 119.174V112.262H142.253V108.446H123.713V99.734H142.001V95.918H118.925V112.262H128.033V119.174H115.433V123.062H145.457V119.174H132.785ZM163.454 123.242C159.026 123.242 156.758 122.486 156.758 120.758C156.758 119.03 159.026 118.238 163.454 118.238C167.882 118.238 170.15 119.03 170.15 120.758C170.15 122.486 167.882 123.242 163.454 123.242ZM163.454 114.638C156.29 114.638 151.97 116.834 151.97 120.758C151.97 124.646 156.29 126.842 163.454 126.842C170.618 126.842 174.974 124.646 174.974 120.758C174.974 116.834 170.618 114.638 163.454 114.638ZM165.938 109.238V106.502H175.154V102.722H156.938V98.834H174.974V95.054H152.222V106.502H161.186V109.238H148.586V113.018H178.574V109.238H165.938ZM50.8546 146.818V150.598H61.3306C61.1866 152.182 60.9346 153.622 60.6106 155.026L49.0906 155.674L49.7026 159.67L59.1706 158.806C57.2626 162.442 54.0586 165.502 48.9106 168.202L51.5026 171.802C63.3826 165.574 66.0466 157.006 66.0466 146.818H50.8546ZM72.1666 143.65V156.358H65.9746V160.21H72.1666V176.806H76.9186V143.65H72.1666ZM90.5958 150.526H94.3038V165.142C93.0438 165.178 91.8198 165.25 90.5958 165.25V150.526ZM98.8758 150.526H101.72V146.71H83.1078V150.526H85.9878V165.358C84.6918 165.358 83.4318 165.358 82.2438 165.358L82.7478 169.246C88.6878 169.21 96.3198 169.066 103.304 167.878L103.016 164.458C101.648 164.638 100.28 164.782 98.8758 164.854V150.526ZM105.14 143.686V176.842H109.928V143.686H105.14ZM133.217 152.218V156.07H138.401V167.842H143.153V143.65H138.401V152.218H133.217ZM135.413 159.85C130.193 158.086 127.925 154.018 127.925 150.094V149.662H134.369V145.882H116.549V149.662H123.065V150.13C123.065 154.306 120.689 158.662 115.253 160.426L117.665 164.206C121.517 162.91 124.109 160.282 125.585 157.006C127.025 159.994 129.473 162.37 133.109 163.558L135.413 159.85ZM126.053 172.45V165.826H121.301V176.23H143.909V172.45H126.053ZM170.042 153.658H156.902V148.762H170.042V153.658ZM174.722 145.054H152.222V157.402H174.722V145.054ZM156.758 166.618H152.006V176.23H175.226V172.45H156.758V166.618ZM148.514 160.03V163.774H161.582V169.426H166.334V163.774H178.538V160.03H148.514ZM201.647 158.554C196.571 156.862 194.303 152.938 194.159 149.122H200.603V145.342H182.783V149.122H189.299C189.191 153.226 186.815 157.402 181.487 159.13L183.899 162.91C187.751 161.614 190.343 159.022 191.819 155.746C193.259 158.698 195.707 161.074 199.343 162.262L201.647 158.554ZM191.999 167.878H204.743V172.702H191.999V167.878ZM187.319 176.41H209.387V164.17H187.319V176.41ZM204.635 143.65V151.318H199.631V155.17H204.635V162.802H209.387V143.65H204.635ZM244.397 154.63H231.473V151.642H244.397V154.63ZM249.113 144.694H244.397V148.078H231.473V144.694H226.757V158.338H249.113V144.694ZM231.149 167.122H226.397V176.23H249.653V172.45H231.149V167.122ZM222.905 160.642V164.386H235.973V169.606H240.725V164.386H252.965V160.642H222.905ZM275.858 158.662C270.638 156.934 268.442 152.902 268.442 148.762V145.342H263.618V148.474C263.618 152.974 261.35 157.366 255.842 159.166L258.326 162.91C262.07 161.614 264.626 159.058 266.066 155.854C267.47 158.77 269.846 161.11 273.374 162.334L275.858 158.662ZM261.17 168.634H279.026V176.842H283.778V164.89H261.17V168.634ZM279.026 143.65V149.842H272.978V153.694H279.026V163.378H283.778V143.65H279.026Z" fill="white"/>
</g>
<path d="M58.8709 46.3813C61.5589 46.3813 63.1556 44.2793 63.1556 40.7124C63.1556 37.2114 61.4563 35.2925 58.9295 35.2925C56.6297 35.2925 55.0037 36.8379 55.0037 38.9985C55.0037 41.0273 56.4685 42.5068 58.4827 42.5068C59.7205 42.5068 60.7239 41.9355 61.222 40.9321H61.3465C61.3245 43.415 60.4383 44.8359 58.8929 44.8359C57.9847 44.8359 57.2596 44.3379 57.0325 43.5322H55.1502C55.4578 45.2534 56.9373 46.3813 58.8709 46.3813ZM58.9368 41.0493C57.7063 41.0493 56.8567 40.1851 56.8567 38.9399C56.8567 37.7461 57.7503 36.8306 58.9441 36.8306C60.138 36.8306 61.0315 37.7607 61.0315 38.9766C61.0315 40.1777 60.1599 41.0493 58.9368 41.0493ZM66.1734 39.2842C66.8692 39.2842 67.3453 38.8008 67.3453 38.1489C67.3453 37.4971 66.8692 37.0137 66.1734 37.0137C65.4849 37.0137 65.0015 37.4971 65.0015 38.1489C65.0015 38.8008 65.4849 39.2842 66.1734 39.2842ZM66.1734 44.6602C66.8692 44.6602 67.3453 44.1694 67.3453 43.5249C67.3453 42.873 66.8692 42.3896 66.1734 42.3896C65.4849 42.3896 65.0015 42.873 65.0015 43.5249C65.0015 44.1694 65.4849 44.6602 66.1734 44.6602ZM74.3475 46.125H76.1566V44.0962H77.5848V42.5361H76.1566V35.5562H73.4906C72.0551 37.7388 70.5536 40.1704 69.184 42.5508V44.0962H74.3475V46.125ZM70.9345 42.4702C71.9672 40.6758 73.1903 38.7202 74.2743 37.0649H74.3768V42.5801H70.9345V42.4702ZM81.6134 46.125H83.5031V35.5562H81.6208L78.8595 37.4971V39.2769L81.4889 37.4165H81.6134V46.125Z" fill="white" fill-opacity="0.8"/>
<rect opacity="0.35" x="384.401" y="36.1953" width="22.971" height="11.1358" rx="2.16667" stroke="white"/>
<path opacity="0.4" d="M408.961 39.6211V43.9043C409.838 43.5415 410.408 42.6977 410.408 41.7627C410.408 40.8277 409.838 39.9839 408.961 39.6211" fill="white" fill-opacity="0.8"/>
<rect x="386.08" y="37.8369" width="19.6126" height="7.85256" rx="1.33333" fill="white" fill-opacity="0.8"/>
<path fill-rule="evenodd" clip-rule="evenodd" d="M370.101 38.1367C372.525 38.1368 374.856 39.0513 376.613 40.6914C376.746 40.818 376.957 40.8164 377.087 40.6878L378.352 39.4346C378.418 39.3694 378.455 39.281 378.454 39.1891C378.454 39.0972 378.416 39.0093 378.349 38.9448C373.738 34.6056 366.463 34.6056 361.852 38.9448C361.786 39.0092 361.748 39.0971 361.747 39.189C361.746 39.281 361.783 39.3693 361.849 39.4346L363.114 40.6878C363.244 40.8166 363.456 40.8182 363.588 40.6914C365.345 39.0512 367.677 38.1367 370.101 38.1367ZM370.101 42.214C371.433 42.2139 372.717 42.7 373.705 43.5778C373.838 43.7024 374.048 43.6997 374.179 43.5717L375.442 42.3185C375.508 42.2528 375.545 42.1636 375.544 42.071C375.543 41.9783 375.505 41.8899 375.437 41.8255C372.43 39.0795 367.775 39.0795 364.768 41.8255C364.7 41.8899 364.662 41.9783 364.661 42.071C364.66 42.1637 364.697 42.2529 364.763 42.3185L366.026 43.5717C366.156 43.6997 366.367 43.7024 366.5 43.5778C367.487 42.7006 368.77 42.2145 370.101 42.214ZM372.632 44.9569C372.634 45.0498 372.596 45.1394 372.529 45.2045L370.344 47.3697C370.28 47.4333 370.193 47.4691 370.101 47.4691C370.01 47.4691 369.923 47.4333 369.859 47.3697L367.674 45.2045C367.606 45.1394 367.569 45.0498 367.571 44.9568C367.573 44.8639 367.614 44.7759 367.684 44.7136C369.08 43.5547 371.123 43.5547 372.519 44.7136C372.589 44.776 372.63 44.864 372.632 44.9569Z" fill="white" fill-opacity="0.8"/>
<path fill-rule="evenodd" clip-rule="evenodd" d="M355.209 36.0508H354.12C353.518 36.0508 353.03 36.5302 353.03 37.1216V46.4019C353.03 46.9933 353.518 47.4727 354.12 47.4727H355.209C355.811 47.4727 356.299 46.9933 356.299 46.4019V37.1216C356.299 36.5302 355.811 36.0508 355.209 36.0508ZM349.035 38.5495H350.125C350.727 38.5495 351.214 39.0289 351.214 39.6203V46.4021C351.214 46.9935 350.727 47.4729 350.125 47.4729H349.035C348.433 47.4729 347.946 46.9935 347.946 46.4021V39.6203C347.946 39.0289 348.433 38.5495 349.035 38.5495ZM345.039 41.0473H343.95C343.348 41.0473 342.86 41.5267 342.86 42.1181V46.4013C342.86 46.9927 343.348 47.4721 343.95 47.4721H345.039C345.641 47.4721 346.129 46.9927 346.129 46.4013V42.1181C346.129 41.5267 345.641 41.0473 345.039 41.0473ZM339.955 43.1897H338.865C338.264 43.1897 337.776 43.6692 337.776 44.2606V46.4022C337.776 46.9935 338.264 47.473 338.865 47.473H339.955C340.557 47.473 341.045 46.9935 341.045 46.4022V44.2606C341.045 43.6692 340.557 43.1897 339.955 43.1897Z" fill="white" fill-opacity="0.8"/>
<path opacity="0.5" d="M446.731 193.815H448.5C449.328 193.815 450 194.487 450 195.315V295.113C450 295.941 449.328 296.613 448.5 296.613H446.731V193.815Z" fill="black"/>
<path opacity="0.5" d="M3.2688 255.923H1.50003C0.671602 255.923 2.86102e-05 256.594 2.86102e-05 257.423V316.529C2.86102e-05 317.358 0.671602 318.029 1.50003 318.029H3.2688V255.923Z" fill="black"/>
<path opacity="0.5" d="M3.2688 173.472H1.50003C0.671602 173.472 2.86102e-05 174.143 2.86102e-05 174.972V234.078C2.86102e-05 234.907 0.671602 235.578 1.50003 235.578H3.2688V173.472Z" fill="black"/>
<path opacity="0.5" d="M3.2688 108.152H1.50003C0.671602 108.152 2.86102e-05 108.824 2.86102e-05 109.652V137.706C2.86102e-05 138.534 0.671602 139.206 1.50003 139.206H3.2688V108.152Z" fill="black"/>
<path fill-rule="evenodd" clip-rule="evenodd" d="M139.467 17.1338C142.181 17.1338 144.896 19.7926 144.914 22.4605V25.2181C144.914 33.1724 151.363 39.6207 159.317 39.6207H291.771C299.725 39.6207 306.174 33.1724 306.174 25.2181V17.1338H144.915H144.914H139.467ZM306.174 22.4878C306.174 19.4284 308.509 17.1338 311.622 17.1338H306.174V22.4878Z" fill="url(#paint1_linear_199_213)"/>
<g opacity="0.75">
<rect x="201.573" y="19.2754" width="46.8524" height="7.49563" rx="3.74781" fill="black"/>
<rect x="201.573" y="19.2754" width="46.8524" height="7.49563" rx="3.74781" fill="black"/>
</g>
<ellipse cx="257.686" cy="23.0232" rx="5.99274" ry="5.88942" fill="black"/>
<ellipse cx="257.686" cy="23.0232" rx="5.99274" ry="5.88942" fill="black"/>
<ellipse cx="257.686" cy="23.0232" rx="5.99274" ry="5.88942" fill="black"/>
<ellipse cx="257.686" cy="23.0232" rx="5.99274" ry="5.88942" fill="black"/>
<ellipse opacity="0.15" cx="257.686" cy="23.0232" rx="3.81357" ry="3.74781" fill="white"/>
<defs>
<linearGradient id="paint0_linear_199_213" x1="57.402" y1="-2.66347e-06" x2="413.996" y2="217.075" gradientUnits="userSpaceOnUse">
<stop stop-color="#3E3E3E"/>
<stop offset="1"/>
</linearGradient>
<linearGradient id="paint1_linear_199_213" x1="139.467" y1="17.1338" x2="310.532" y2="17.1338" gradientUnits="userSpaceOnUse">
<stop stop-color="#323232"/>
<stop offset="1" stop-color="#1D1D1D"/>
</linearGradient>
<clipPath id="clip0_199_213">
<rect x="20.6506" y="17.1328" width="408.596" height="869.493" rx="36" fill="white"/>
</clipPath>
</defs>
</svg>
